<?xml version="1.0" standalone="no"?>
<!DOCTYPE svg PUBLIC "-//W3C//DTD SVG 1.1//EN" "http://www.w3.org/Graphics/SVG/1.1/DTD/svg11.dtd" >
<svg>
<metadata>
Created by FontForge 20120731 at Tue Aug 20 15:16:16 2019
 By pello,,,
(c) 1996-2018 Typodermic Fonts Inc
</metadata>
<defs>
<font id="JoystixMonospace-Regular" horiz-adv-x="828" >
  <font-face 
    font-family="Joystix Monospace"
    font-weight="400"
    font-stretch="normal"
    units-per-em="1000"
    panose-1="2 1 6 9 2 1 2 2 3 4"
    ascent="800"
    descent="-200"
    cap-height="700"
    bbox="-714 -200 828 1100"
    underline-thickness="0"
    underline-position="0"
    unicode-range="U+0017-F8FF"
  />
<missing-glyph 
d="M664 -200h-500v1200h500v-1200zM564 -100v1000h-300v-1000h300z" />
    <glyph glyph-name=".notdef" 
d="M664 -200h-500v1200h500v-1200zM564 -100v1000h-300v-1000h300z" />
    <glyph glyph-name="uni0017" 
 />
    <glyph glyph-name="space" unicode=" " 
 />
    <glyph glyph-name="exclam" unicode="!" 
d="M664 500h-100v-100h-100v-100h-100v-100h-100v300h100v200h300v-200zM264 0h-100v100h100v-100z" />
    <glyph glyph-name="quotedbl" unicode="&#x22;" 
d="M664 400h-100v100h-100v200h200v-300zM564 300h-100v100h100v-100zM364 400h-100v100h-100v200h200v-300zM264 300h-100v100h100v-100z" />
    <glyph glyph-name="numbersign" unicode="#" 
d="M664 200h-100v-100h-100v100h-100v-100h-100v100h-100v100h100v100h-100v100h100v100h100v-100h100v100h100v-100h100v-100h-100v-100h100v-100zM464 300v100h-100v-100h100z" />
    <glyph glyph-name="dollar" unicode="$" 
d="M764 200h-100v-100h-200v-100h-100v100h-200v100h300v100h-300v100h-100v100h100v100h200v100h100v-100h200v-100h-300v-100h300v-100h100v-100z" />
    <glyph glyph-name="percent" unicode="%" 
d="M714 600h-100v100h100v-100zM614 500h-100v100h100v-100zM514 400h-100v100h100v-100zM314 500h-200v200h200v-200zM714 100h-200v200h200v-200zM414 300h-100v100h100v-100zM314 200h-100v100h100v-100zM214 100h-100v100h100v-100z" />
    <glyph glyph-name="ampersand" unicode="&#x26;" 
d="M364 300h100v-100h100v-100h200v-100h-200v100h-100v100h-100v100h-100v100h-100v200h100v-200h100v-100zM464 100v-100h-300v100h-100v200h200v-200h200zM464 400h-100v200h-100v100h100v-100h100v-200zM664 200h-100v100h100v-100z" />
    <glyph glyph-name="quotesingle" unicode="'" 
d="M514 400h-100v100h-100v200h200v-300zM414 300h-100v100h100v-100z" />
    <glyph glyph-name="parenleft" unicode="(" 
d="M664 -100h-200v100h-100v700h100v100h200v-100h-100v-700h100v-100z" />
    <glyph glyph-name="parenright" unicode=")" 
d="M164 0h100v700h-100v100h200v-100h100v-700h-100v-100h-200v100z" />
    <glyph glyph-name="asterisk" unicode="*" 
d="M664 500h-100v100h100v-100zM764 300h-200v-100h-100v-200h-100v200h-100v100h-200v100h200v100h100v200h100v-200h100v-100h200v-100zM664 100h-100v100h100v-100zM264 500h-100v100h100v-100zM264 100h-100v100h100v-100z" />
    <glyph glyph-name="plus" unicode="+" 
d="M713 300h-199v-200h-200v200h-200v100h200v200h200v-200h199v-100z" />
    <glyph glyph-name="comma" unicode="," 
d="M514 100h-100v100h-100v200h200v-300zM414 0h-100v100h100v-100z" />
    <glyph glyph-name="hyphen" unicode="-" 
d="M664 300h-500v100h500v-100z" />
    <glyph glyph-name="hyphen" unicode="&#x2010;" 
d="M664 300h-500v100h500v-100z" />
    <glyph glyph-name="hyphen" unicode="&#xad;" 
d="M664 300h-500v100h500v-100z" />
    <glyph glyph-name="period" unicode="." 
d="M514 0h-200v200h200v-200z" />
    <glyph glyph-name="slash" unicode="/" 
d="M764 600h-100v100h100v-100zM664 500h-100v100h100v-100zM564 400h-100v100h100v-100zM464 300h-100v100h100v-100zM364 200h-100v100h100v-100zM264 100h-100v100h100v-100zM164 0h-100v100h100v-100z" />
    <glyph glyph-name="zero" unicode="0" 
d="M564 100v-100h-300v100h-100v100h-100v300h100v100h100v-400h100v-100h200zM764 200h-100v-100h-100v400h-100v100h-200v100h300v-100h100v-100h100v-300z" />
    <glyph glyph-name="one" unicode="1" 
d="M714 0h-600v100h200v400h-101v100h101v100h200v-600h200v-100z" />
    <glyph glyph-name="two" unicode="2" 
d="M764 0h-700v200h100v100h100v100h200v100h100v100h-300v-100h-200v100h100v100h500v-100h100v-200h-100v-100h-100v-100h-200v-100h400v-100z" />
    <glyph glyph-name="three" unicode="3" 
d="M764 100h-101v-100h-499v100h-100v100h199v-100h301v200h-301v100h101v100h100v100h-300v100h600v-100h-100v-100h-100v-100h100v-100h100v-200z" />
    <glyph glyph-name="three" unicode="&#x4e1;" 
d="M764 100h-101v-100h-499v100h-100v100h199v-100h301v200h-301v100h101v100h100v100h-300v100h600v-100h-100v-100h-100v-100h100v-100h100v-200z" />
    <glyph glyph-name="three" unicode="&#x4e0;" 
d="M764 100h-101v-100h-499v100h-100v100h199v-100h301v200h-301v100h101v100h100v100h-300v100h600v-100h-100v-100h-100v-100h100v-100h100v-200z" />
    <glyph glyph-name="four" unicode="4" 
d="M764 200h-100v-200h-200v200h-400v200h99v100h101v100h100v100h300v-400h100v-100zM464 300v200h-100v-100h-100v-100h200z" />
    <glyph glyph-name="five" unicode="5" 
d="M764 100h-100v-100h-500v100h-100v100h200v-100h300v300h-500v300h600v-100h-400v-100h400v-100h100v-300z" />
    <glyph glyph-name="six" unicode="6" 
d="M764 100h-100v-100h-500v100h-100v400h100v100h100v100h400v-100h-300v-100h-100v-100h400v-100h100v-200zM564 100v200h-300v-200h300z" />
    <glyph glyph-name="seven" unicode="7" 
d="M764 500h-101v-100h-99v-100h-100v-300h-200v300h100v100h100v100h100v100h-300v-100h-200v200h700v-200z" />
    <glyph glyph-name="eight" unicode="8" 
d="M164 400h-100v200h100v100h400v-100h100v-200h-100v200h-300v-100h100v-100h200v-100h200v-200h-100v-100h-500v100h-100v200h100v100zM164 100h400v100h-200v100h-200v-200z" />
    <glyph glyph-name="nine" unicode="9" 
d="M764 200h-100v-100h-100v-100h-400v100h300v100h100v100h-400v100h-100v200h100v100h500v-100h100v-400zM564 400v200h-300v-200h300z" />
    <glyph glyph-name="colon" unicode=":" 
d="M514 500h-200v200h200v-200zM514 200h-200v200h200v-200z" />
    <glyph glyph-name="semicolon" unicode=";" 
d="M514 500h-200v200h200v-200zM514 100h-100v100h-100v200h200v-300zM414 0h-100v100h100v-100z" />
    <glyph glyph-name="semicolon" unicode="&#x37e;" 
d="M514 500h-200v200h200v-200zM514 100h-100v100h-100v200h200v-300zM414 0h-100v100h100v-100z" />
    <glyph glyph-name="less" unicode="&#x3c;" 
d="M664 0h-200v100h-100v100h-100v100h-100v100h100v100h100v100h100v100h200v-100h-100v-100h-100v-100h-100v-100h100v-100h100v-100h100v-100z" />
    <glyph glyph-name="equal" unicode="=" 
d="M714 400h-600v100h600v-100zM714 200h-600v100h600v-100z" />
    <glyph glyph-name="greater" unicode="&#x3e;" 
d="M664 300h-101v-100h-99v-100h-100v-100h-200v100h100v100h100v100h100v100h-100v100h-100v100h-100v100h200v-100h100v-100h99v-100h101v-100z" />
    <glyph glyph-name="question" unicode="?" 
d="M764 400h-200v-100h-100v-100h-100v200h100v100h100v100h-300v-100h-200v100h100v100h500v-100h100v-200zM464 0h-100v100h100v-100z" />
    <glyph glyph-name="at" unicode="@" 
d="M664 100v-100h-500v100h-100v500h100v100h500v-100h100v-300h-100v-100h-300v300h200v100h-300v-500h400zM464 400v-100h100v100h-100z" />
    <glyph glyph-name="A" unicode="A" 
d="M764 0h-200v200h-300v-200h-200v500h100v100h100v100h300v-100h100v-100h100v-500zM564 300v200h-100v100h-100v-100h-100v-200h300z" />
    <glyph glyph-name="A" unicode="&#x430;" 
d="M764 0h-200v200h-300v-200h-200v500h100v100h100v100h300v-100h100v-100h100v-500zM564 300v200h-100v100h-100v-100h-100v-200h300z" />
    <glyph glyph-name="A" unicode="&#x410;" 
d="M764 0h-200v200h-300v-200h-200v500h100v100h100v100h300v-100h100v-100h100v-500zM564 300v200h-100v100h-100v-100h-100v-200h300z" />
    <glyph glyph-name="A" unicode="&#x3b1;" 
d="M764 0h-200v200h-300v-200h-200v500h100v100h100v100h300v-100h100v-100h100v-500zM564 300v200h-100v100h-100v-100h-100v-200h300z" />
    <glyph glyph-name="A" unicode="&#x391;" 
d="M764 0h-200v200h-300v-200h-200v500h100v100h100v100h300v-100h100v-100h100v-500zM564 300v200h-100v100h-100v-100h-100v-200h300z" />
    <glyph glyph-name="A" unicode="a" 
d="M764 0h-200v200h-300v-200h-200v500h100v100h100v100h300v-100h100v-100h100v-500zM564 300v200h-100v100h-100v-100h-100v-200h300z" />
    <glyph glyph-name="B" unicode="B" 
d="M764 100h-100v-100h-600v700h600v-100h100v-200h-100v-100h100v-200zM564 400v200h-300v-200h300zM564 100v200h-300v-200h300z" />
    <glyph glyph-name="B" unicode="&#x432;" 
d="M764 100h-100v-100h-600v700h600v-100h100v-200h-100v-100h100v-200zM564 400v200h-300v-200h300zM564 100v200h-300v-200h300z" />
    <glyph glyph-name="B" unicode="&#x412;" 
d="M764 100h-100v-100h-600v700h600v-100h100v-200h-100v-100h100v-200zM564 400v200h-300v-200h300zM564 100v200h-300v-200h300z" />
    <glyph glyph-name="B" unicode="&#x3b2;" 
d="M764 100h-100v-100h-600v700h600v-100h100v-200h-100v-100h100v-200zM564 400v200h-300v-200h300zM564 100v200h-300v-200h300z" />
    <glyph glyph-name="B" unicode="&#x392;" 
d="M764 100h-100v-100h-600v700h600v-100h100v-200h-100v-100h100v-200zM564 400v200h-300v-200h300zM564 100v200h-300v-200h300z" />
    <glyph glyph-name="B" unicode="b" 
d="M764 100h-100v-100h-600v700h600v-100h100v-200h-100v-100h100v-200zM564 400v200h-300v-200h300zM564 100v200h-300v-200h300z" />
    <glyph glyph-name="C" unicode="C" 
d="M764 100h-100v-100h-400v100h-100v100h-100v300h100v100h100v100h400v-100h100v-100h-200v100h-200v-100h-100v-300h100v-100h200v100h200v-100z" />
    <glyph glyph-name="C" unicode="&#x441;" 
d="M764 100h-100v-100h-400v100h-100v100h-100v300h100v100h100v100h400v-100h100v-100h-200v100h-200v-100h-100v-300h100v-100h200v100h200v-100z" />
    <glyph glyph-name="C" unicode="&#x421;" 
d="M764 100h-100v-100h-400v100h-100v100h-100v300h100v100h100v100h400v-100h100v-100h-200v100h-200v-100h-100v-300h100v-100h200v100h200v-100z" />
    <glyph glyph-name="C" unicode="c" 
d="M764 100h-100v-100h-400v100h-100v100h-100v300h100v100h100v100h400v-100h100v-100h-200v100h-200v-100h-100v-300h100v-100h200v100h200v-100z" />
    <glyph glyph-name="D" unicode="D" 
d="M764 200h-100v-100h-100v-100h-500v700h500v-100h100v-100h100v-300zM564 200v300h-100v100h-200v-500h200v100h100z" />
    <glyph glyph-name="D" unicode="d" 
d="M764 200h-100v-100h-100v-100h-500v700h500v-100h100v-100h100v-300zM564 200v300h-100v100h-200v-500h200v100h100z" />
    <glyph glyph-name="E" unicode="E" 
d="M764 0h-700v700h700v-100h-500v-200h400v-100h-400v-200h500v-100z" />
    <glyph glyph-name="E" unicode="&#x435;" 
d="M764 0h-700v700h700v-100h-500v-200h400v-100h-400v-200h500v-100z" />
    <glyph glyph-name="E" unicode="&#x415;" 
d="M764 0h-700v700h700v-100h-500v-200h400v-100h-400v-200h500v-100z" />
    <glyph glyph-name="E" unicode="&#x3b5;" 
d="M764 0h-700v700h700v-100h-500v-200h400v-100h-400v-200h500v-100z" />
    <glyph glyph-name="E" unicode="&#x395;" 
d="M764 0h-700v700h700v-100h-500v-200h400v-100h-400v-200h500v-100z" />
    <glyph glyph-name="E" unicode="e" 
d="M764 0h-700v700h700v-100h-500v-200h400v-100h-400v-200h500v-100z" />
    <glyph glyph-name="F" unicode="F" 
d="M764 600h-500v-200h400v-100h-400v-300h-200v700h700v-100z" />
    <glyph glyph-name="F" unicode="&#xf53d;" 
d="M764 600h-500v-200h400v-100h-400v-300h-200v700h700v-100z" />
    <glyph glyph-name="F" unicode="&#xf53c;" 
d="M764 600h-500v-200h400v-100h-400v-300h-200v700h700v-100z" />
    <glyph glyph-name="F" unicode="f" 
d="M764 600h-500v-200h400v-100h-400v-300h-200v700h700v-100z" />
    <glyph glyph-name="G" unicode="G" 
d="M764 0h-500v102h-100v98h-100v300h100v100h100v100h500v-100h-400v-100h-100v-300h100v-100h200v200h-100v100h300v-400z" />
    <glyph glyph-name="G" unicode="g" 
d="M764 0h-500v102h-100v98h-100v300h100v100h100v100h500v-100h-400v-100h-100v-300h100v-100h200v200h-100v100h300v-400z" />
    <glyph glyph-name="H" unicode="H" 
d="M764 0h-200v300h-300v-300h-200v700h200v-300h300v300h200v-700z" />
    <glyph glyph-name="H" unicode="&#x43d;" 
d="M764 0h-200v300h-300v-300h-200v700h200v-300h300v300h200v-700z" />
    <glyph glyph-name="H" unicode="&#x41d;" 
d="M764 0h-200v300h-300v-300h-200v700h200v-300h300v300h200v-700z" />
    <glyph glyph-name="H" unicode="&#x3b7;" 
d="M764 0h-200v300h-300v-300h-200v700h200v-300h300v300h200v-700z" />
    <glyph glyph-name="H" unicode="&#x397;" 
d="M764 0h-200v300h-300v-300h-200v700h200v-300h300v300h200v-700z" />
    <glyph glyph-name="H" unicode="h" 
d="M764 0h-200v300h-300v-300h-200v700h200v-300h300v300h200v-700z" />
    <glyph glyph-name="I" unicode="I" 
d="M714 600h-200v-500h200v-100h-600v100h200v500h-200v100h600v-100z" />
    <glyph glyph-name="I" unicode="&#x456;" 
d="M714 600h-200v-500h200v-100h-600v100h200v500h-200v100h600v-100z" />
    <glyph glyph-name="I" unicode="&#x406;" 
d="M714 600h-200v-500h200v-100h-600v100h200v500h-200v100h600v-100z" />
    <glyph glyph-name="I" unicode="&#x3b9;" 
d="M714 600h-200v-500h200v-100h-600v100h200v500h-200v100h600v-100z" />
    <glyph glyph-name="I" unicode="&#x399;" 
d="M714 600h-200v-500h200v-100h-600v100h200v500h-200v100h600v-100z" />
    <glyph glyph-name="I" unicode="&#x131;" 
d="M714 600h-200v-500h200v-100h-600v100h200v500h-200v100h600v-100z" />
    <glyph glyph-name="I" unicode="i" 
d="M714 600h-200v-500h200v-100h-600v100h200v500h-200v100h600v-100z" />
    <glyph glyph-name="J" unicode="J" 
d="M764 100h-100v-100h-500v100h-100v100h200v-100h300v600h200v-600z" />
    <glyph glyph-name="J" unicode="&#x458;" 
d="M764 100h-100v-100h-500v100h-100v100h200v-100h300v600h200v-600z" />
    <glyph glyph-name="J" unicode="&#x408;" 
d="M764 100h-100v-100h-500v100h-100v100h200v-100h300v600h200v-600z" />
    <glyph glyph-name="J" unicode="&#x237;" 
d="M764 100h-100v-100h-500v100h-100v100h200v-100h300v600h200v-600z" />
    <glyph glyph-name="J" unicode="j" 
d="M764 100h-100v-100h-500v100h-100v100h200v-100h300v600h200v-600z" />
    <glyph glyph-name="K" unicode="K" 
d="M764 0h-300v100h-100v100h-100v-200h-200v700h200v-300h100v100h100v100h100v100h200v-100h-100v-100h-100v-100h-100v-100h100v-100h100v-100h100v-100z" />
    <glyph glyph-name="K" unicode="&#x43a;" 
d="M764 0h-300v100h-100v100h-100v-200h-200v700h200v-300h100v100h100v100h100v100h200v-100h-100v-100h-100v-100h-100v-100h100v-100h100v-100h100v-100z" />
    <glyph glyph-name="K" unicode="&#x41a;" 
d="M764 0h-300v100h-100v100h-100v-200h-200v700h200v-300h100v100h100v100h100v100h200v-100h-100v-100h-100v-100h-100v-100h100v-100h100v-100h100v-100z" />
    <glyph glyph-name="K" unicode="&#x3ba;" 
d="M764 0h-300v100h-100v100h-100v-200h-200v700h200v-300h100v100h100v100h100v100h200v-100h-100v-100h-100v-100h-100v-100h100v-100h100v-100h100v-100z" />
    <glyph glyph-name="K" unicode="&#x39a;" 
d="M764 0h-300v100h-100v100h-100v-200h-200v700h200v-300h100v100h100v100h100v100h200v-100h-100v-100h-100v-100h-100v-100h100v-100h100v-100h100v-100z" />
    <glyph glyph-name="K" unicode="k" 
d="M764 0h-300v100h-100v100h-100v-200h-200v700h200v-300h100v100h100v100h100v100h200v-100h-100v-100h-100v-100h-100v-100h100v-100h100v-100h100v-100z" />
    <glyph glyph-name="L" unicode="L" 
d="M764 0h-700v700h200v-600h500v-100z" />
    <glyph glyph-name="L" unicode="l" 
d="M764 0h-700v700h200v-600h500v-100z" />
    <glyph glyph-name="M" unicode="M" 
d="M764 0h-200v300h-100v-100h-100v100h-100v-300h-200v700h200v-100h100v-100h100v100h100v100h200v-700z" />
    <glyph glyph-name="M" unicode="&#x43c;" 
d="M764 0h-200v300h-100v-100h-100v100h-100v-300h-200v700h200v-100h100v-100h100v100h100v100h200v-700z" />
    <glyph glyph-name="M" unicode="&#x41c;" 
d="M764 0h-200v300h-100v-100h-100v100h-100v-300h-200v700h200v-100h100v-100h100v100h100v100h200v-700z" />
    <glyph glyph-name="M" unicode="&#x3bc;" 
d="M764 0h-200v300h-100v-100h-100v100h-100v-300h-200v700h200v-100h100v-100h100v100h100v100h200v-700z" />
    <glyph glyph-name="M" unicode="&#x39c;" 
d="M764 0h-200v300h-100v-100h-100v100h-100v-300h-200v700h200v-100h100v-100h100v100h100v100h200v-700z" />
    <glyph glyph-name="M" unicode="m" 
d="M764 0h-200v300h-100v-100h-100v100h-100v-300h-200v700h200v-100h100v-100h100v100h100v100h200v-700z" />
    <glyph glyph-name="N" unicode="N" 
d="M764 0h-200v100h-100v100h-100v100h-100v-300h-200v700h200v-100h100v-100h100v-100h100v300h200v-700z" />
    <glyph glyph-name="N" unicode="&#x3bd;" 
d="M764 0h-200v100h-100v100h-100v100h-100v-300h-200v700h200v-100h100v-100h100v-100h100v300h200v-700z" />
    <glyph glyph-name="N" unicode="&#x39d;" 
d="M764 0h-200v100h-100v100h-100v100h-100v-300h-200v700h200v-100h100v-100h100v-100h100v300h200v-700z" />
    <glyph glyph-name="N" unicode="n" 
d="M764 0h-200v100h-100v100h-100v100h-100v-300h-200v700h200v-100h100v-100h100v-100h100v300h200v-700z" />
    <glyph glyph-name="O" unicode="O" 
d="M764 100h-100v-100h-500v100h-100v500h100v100h500v-100h100v-500zM564 100v500h-300v-500h300z" />
    <glyph glyph-name="O" unicode="&#x43e;" 
d="M764 100h-100v-100h-500v100h-100v500h100v100h500v-100h100v-500zM564 100v500h-300v-500h300z" />
    <glyph glyph-name="O" unicode="&#x41e;" 
d="M764 100h-100v-100h-500v100h-100v500h100v100h500v-100h100v-500zM564 100v500h-300v-500h300z" />
    <glyph glyph-name="O" unicode="&#x3bf;" 
d="M764 100h-100v-100h-500v100h-100v500h100v100h500v-100h100v-500zM564 100v500h-300v-500h300z" />
    <glyph glyph-name="O" unicode="&#x39f;" 
d="M764 100h-100v-100h-500v100h-100v500h100v100h500v-100h100v-500zM564 100v500h-300v-500h300z" />
    <glyph glyph-name="O" unicode="o" 
d="M764 100h-100v-100h-500v100h-100v500h100v100h500v-100h100v-500zM564 100v500h-300v-500h300z" />
    <glyph glyph-name="P" unicode="P" 
d="M764 300h-100v-100h-400v-200h-200v700h600v-100h100v-300zM564 300v300h-300v-300h300z" />
    <glyph glyph-name="P" unicode="&#x440;" 
d="M764 300h-100v-100h-400v-200h-200v700h600v-100h100v-300zM564 300v300h-300v-300h300z" />
    <glyph glyph-name="P" unicode="&#x420;" 
d="M764 300h-100v-100h-400v-200h-200v700h600v-100h100v-300zM564 300v300h-300v-300h300z" />
    <glyph glyph-name="P" unicode="&#x3c1;" 
d="M764 300h-100v-100h-400v-200h-200v700h600v-100h100v-300zM564 300v300h-300v-300h300z" />
    <glyph glyph-name="P" unicode="&#x3a1;" 
d="M764 300h-100v-100h-400v-200h-200v700h600v-100h100v-300zM564 300v300h-300v-300h300z" />
    <glyph glyph-name="P" unicode="p" 
d="M764 300h-100v-100h-400v-200h-200v700h600v-100h100v-300zM564 300v300h-300v-300h300z" />
    <glyph glyph-name="Q" unicode="Q" 
d="M764 0h-100v100h-100v-100h-400v100h-100v500h100v100h500v-100h100v-400h-100v-100h100v-100zM564 300v300h-300v-500h200v100h-100v100h200z" />
    <glyph glyph-name="Q" unicode="q" 
d="M764 0h-100v100h-100v-100h-400v100h-100v500h100v100h500v-100h100v-400h-100v-100h100v-100zM564 300v300h-300v-500h200v100h-100v100h200z" />
    <glyph glyph-name="R" unicode="R" 
d="M764 0h-300v100h-100v100h-100v-200h-200v700h600v-100h100v-300h-200v-100h100v-100h100v-100zM564 400v200h-300v-300h200v100h100z" />
    <glyph glyph-name="R" unicode="r" 
d="M764 0h-300v100h-100v100h-100v-200h-200v700h600v-100h100v-300h-200v-100h100v-100h100v-100zM564 400v200h-300v-300h200v100h100z" />
    <glyph glyph-name="S" unicode="S" 
d="M764 100h-100v-100h-500v100h-100v100h200v-100h300v200h-400v100h-100v200h100v100h400v-100h100v-100h-200v100h-200v-200h400v-100h100v-200z" />
    <glyph glyph-name="S" unicode="&#x455;" 
d="M764 100h-100v-100h-500v100h-100v100h200v-100h300v200h-400v100h-100v200h100v100h400v-100h100v-100h-200v100h-200v-200h400v-100h100v-200z" />
    <glyph glyph-name="S" unicode="&#x405;" 
d="M764 100h-100v-100h-500v100h-100v100h200v-100h300v200h-400v100h-100v200h100v100h400v-100h100v-100h-200v100h-200v-200h400v-100h100v-200z" />
    <glyph glyph-name="S" unicode="s" 
d="M764 100h-100v-100h-500v100h-100v100h200v-100h300v200h-400v100h-100v200h100v100h400v-100h100v-100h-200v100h-200v-200h400v-100h100v-200z" />
    <glyph glyph-name="T" unicode="T" 
d="M714 600h-200v-600h-200v600h-200v100h600v-100z" />
    <glyph glyph-name="T" unicode="&#x442;" 
d="M714 600h-200v-600h-200v600h-200v100h600v-100z" />
    <glyph glyph-name="T" unicode="&#x422;" 
d="M714 600h-200v-600h-200v600h-200v100h600v-100z" />
    <glyph glyph-name="T" unicode="&#x3c4;" 
d="M714 600h-200v-600h-200v600h-200v100h600v-100z" />
    <glyph glyph-name="T" unicode="&#x3a4;" 
d="M714 600h-200v-600h-200v600h-200v100h600v-100z" />
    <glyph glyph-name="T" unicode="t" 
d="M714 600h-200v-600h-200v600h-200v100h600v-100z" />
    <glyph glyph-name="U" unicode="U" 
d="M764 100h-100v-100h-500v100h-100v600h200v-600h300v600h200v-600z" />
    <glyph glyph-name="U" unicode="u" 
d="M764 100h-100v-100h-500v100h-100v600h200v-600h300v600h200v-600z" />
    <glyph glyph-name="V" unicode="V" 
d="M764 300h-100v-100h-100v-100h-100v-100h-100v100h-100v100h-100v100h-100v400h200v-300h100v-100h100v100h100v300h200v-400z" />
    <glyph glyph-name="V" unicode="v" 
d="M764 300h-100v-100h-100v-100h-100v-100h-100v100h-100v100h-100v100h-100v400h200v-300h100v-100h100v100h100v300h200v-400z" />
    <glyph glyph-name="W" unicode="W" 
d="M764 0h-200v100h-100v100h-100v-100h-100v-100h-200v700h200v-300h100v100h100v-100h100v300h200v-700z" />
    <glyph glyph-name="W" unicode="&#x51d;" 
d="M764 0h-200v100h-100v100h-100v-100h-100v-100h-200v700h200v-300h100v100h100v-100h100v300h200v-700z" />
    <glyph glyph-name="W" unicode="&#x51c;" 
d="M764 0h-200v100h-100v100h-100v-100h-100v-100h-200v700h200v-300h100v100h100v-100h100v300h200v-700z" />
    <glyph glyph-name="W" unicode="w" 
d="M764 0h-200v100h-100v100h-100v-100h-100v-100h-200v700h200v-300h100v100h100v-100h100v300h200v-700z" />
    <glyph glyph-name="X" unicode="X" 
d="M764 0h-200v100h-100v100h-100v-100h-100v-100h-200v200h100v100h100v100h-100v100h-100v200h200v-100h100v-100h100v100h100v100h200v-200h-100v-100h-100v-100h100v-100h100v-200z" />
    <glyph glyph-name="X" unicode="&#x445;" 
d="M764 0h-200v100h-100v100h-100v-100h-100v-100h-200v200h100v100h100v100h-100v100h-100v200h200v-100h100v-100h100v100h100v100h200v-200h-100v-100h-100v-100h100v-100h100v-200z" />
    <glyph glyph-name="X" unicode="&#x425;" 
d="M764 0h-200v100h-100v100h-100v-100h-100v-100h-200v200h100v100h100v100h-100v100h-100v200h200v-100h100v-100h100v100h100v100h200v-200h-100v-100h-100v-100h100v-100h100v-200z" />
    <glyph glyph-name="X" unicode="&#x3c7;" 
d="M764 0h-200v100h-100v100h-100v-100h-100v-100h-200v200h100v100h100v100h-100v100h-100v200h200v-100h100v-100h100v100h100v100h200v-200h-100v-100h-100v-100h100v-100h100v-200z" />
    <glyph glyph-name="X" unicode="&#x3a7;" 
d="M764 0h-200v100h-100v100h-100v-100h-100v-100h-200v200h100v100h100v100h-100v100h-100v200h200v-100h100v-100h100v100h100v100h200v-200h-100v-100h-100v-100h100v-100h100v-200z" />
    <glyph glyph-name="X" unicode="x" 
d="M764 0h-200v100h-100v100h-100v-100h-100v-100h-200v200h100v100h100v100h-100v100h-100v200h200v-100h100v-100h100v100h100v100h200v-200h-100v-100h-100v-100h100v-100h100v-200z" />
    <glyph glyph-name="Y" unicode="Y" 
d="M714 400h-100v-100h-100v-300h-200v300h-101v100h-99v300h200v-300h200v300h200v-300z" />
    <glyph glyph-name="Y" unicode="&#x4af;" 
d="M714 400h-100v-100h-100v-300h-200v300h-101v100h-99v300h200v-300h200v300h200v-300z" />
    <glyph glyph-name="Y" unicode="&#x4ae;" 
d="M714 400h-100v-100h-100v-300h-200v300h-101v100h-99v300h200v-300h200v300h200v-300z" />
    <glyph glyph-name="Y" unicode="&#x3c5;" 
d="M714 400h-100v-100h-100v-300h-200v300h-101v100h-99v300h200v-300h200v300h200v-300z" />
    <glyph glyph-name="Y" unicode="&#x3a5;" 
d="M714 400h-100v-100h-100v-300h-200v300h-101v100h-99v300h200v-300h200v300h200v-300z" />
    <glyph glyph-name="Y" unicode="y" 
d="M714 400h-100v-100h-100v-300h-200v300h-101v100h-99v300h200v-300h200v300h200v-300z" />
    <glyph glyph-name="Z" unicode="Z" 
d="M764 0h-700v200h100v100h100v100h100v100h100v100h-400v100h700v-200h-100v-100h-100v-100h-100v-100h-100v-100h400v-100z" />
    <glyph glyph-name="Z" unicode="&#x3b6;" 
d="M764 0h-700v200h100v100h100v100h100v100h100v100h-400v100h700v-200h-100v-100h-100v-100h-100v-100h-100v-100h400v-100z" />
    <glyph glyph-name="Z" unicode="&#x396;" 
d="M764 0h-700v200h100v100h100v100h100v100h100v100h-400v100h700v-200h-100v-100h-100v-100h-100v-100h-100v-100h400v-100z" />
    <glyph glyph-name="Z" unicode="z" 
d="M764 0h-700v200h100v100h100v100h100v100h100v100h-400v100h700v-200h-100v-100h-100v-100h-100v-100h-100v-100h400v-100z" />
    <glyph glyph-name="bracketleft" unicode="[" 
d="M664 -100h-400v900h400v-100h-200v-700h200v-100z" />
    <glyph glyph-name="backslash" unicode="\" 
d="M764 0h-100v100h-100v100h-100v100h-100v100h-100v100h-100v100h-100v100h100v-100h100v-100h100v-100h100v-100h100v-100h100v-100h100v-100z" />
    <glyph glyph-name="bracketright" unicode="]" 
d="M164 0h200v700h-200v100h400v-900h-400v100z" />
    <glyph glyph-name="asciicircum" unicode="^" 
d="M664 400h-200v100h-100v-100h-200v100h100v100h100v100h100v-100h100v-100h100v-100z" />
    <glyph glyph-name="underscore" unicode="_" 
d="M764 -100h-700v100h700v-100z" />
    <glyph glyph-name="grave" unicode="`" 
d="M364 800v100h-100v100h200v-100h100v-100h-200z" />
    <glyph glyph-name="braceleft" unicode="{" 
d="M464 300h100v-300h100v-100h-200v100h-100v300h-100v100h100v300h100v100h200v-100h-100v-300h-100v-100z" />
    <glyph glyph-name="bar" unicode="|" 
d="M314 800h200v-900h-200v900z" />
    <glyph glyph-name="braceright" unicode="}" 
d="M364 400h-100v300h-100v100h200v-100h100v-300h100v-100h-100v-300h-100v-100h-200v100h100v300h100v100z" />
    <glyph glyph-name="asciitilde" unicode="~" 
d="M714 300h-100v100h100v-100zM614 201h-200v99h-200v100h200v-100h200v-99zM214 201h-100v99h100v-99z" />
    <glyph glyph-name="nonbreakingspace" unicode="&#xa0;" 
 />
    <glyph glyph-name="exclamdown" unicode="&#xa1;" 
d="M164 200h100v100h100v100h100v100h100v-300h-100v-200h-300v200zM564 700h100v-100h-100v100z" />
    <glyph glyph-name="cent" unicode="&#xa2;" 
d="M526 600h175v-100h-175v-300h175v-100h-175v-100h-100v100h-200v100h-100v300h100v100h200v100h100v-100zM326 200h100v300h-100v-300z" />
    <glyph glyph-name="sterling" unicode="&#xa3;" 
d="M164 100v200h-100v100h100v200h100v100h400v-100h100v-99h-200v99h-200v-200h200v-100h-200v-200h400v-100h-700v100h100z" />
    <glyph glyph-name="currency" unicode="&#xa4;" 
d="M164 300h100v100h-100v200h100v-100h300v100h100v-200h-100v-100h100v-198h-100v98h-300v-98h-100v198zM464 300v100h-100v-100h100z" />
    <glyph glyph-name="yen" unicode="&#xa5;" 
d="M514 0h-200v100h-200v100h200v100h-100v100h-100v300h199v-300h201v300h200v-300h-100v-100h-100v-100h200v-100h-200v-100z" />
    <glyph glyph-name="brokenbar" unicode="&#xa6;" 
d="M514 443h-200v357h200v-357zM314 256h200v-356h-200v356z" />
    <glyph glyph-name="section" unicode="&#xa7;" 
d="M764 -100h-100v-100h-500v100h-100v100h200v-100h300v200h-400v100h-100v100h100v100h-100v200h100v100h500v-100h100v-100h-200v100h-300v-200h400v-100h100v-100h-100v-100h100v-200zM564 200v100h-300v-100h300z" />
    <glyph glyph-name="dieresis" unicode="&#xa8;" 
d="M664 1000v-200h-200v200h200zM164 1000h200v-200h-200v200z" />
    <glyph glyph-name="copyright" unicode="&#xa9;" 
d="M764 100h-100v500h-500v100h500v-100h100v-500zM264 200v300h300v-100h-200v-100h200v-100h-300zM64 100v500h100v-500h-100zM164 100h500v-100h-500v100z" />
    <glyph glyph-name="ordfeminine" unicode="&#xaa;" 
d="M514 500v100h-200v100h200v-100h100v-300h-100v100h-200v-100h-100v300h100v-100h200z" />
    <glyph glyph-name="guillemotleft" unicode="&#xab;" 
d="M264 200h100v-100h100v-100h-200v100h-100v100h-100v100h100v100h100v100h200v-100h100v100h200v-100h-100v-100h-100v-100h100v-100h100v-100h-200v100h-100v100h-100v100h-100v-100zM364 300h100v100h-100v-100z" />
    <glyph glyph-name="logicalnot" unicode="&#xac;" 
d="M714 0h-200v300h-400v100h600v-400z" />
    <glyph glyph-name="registered" unicode="&#xae;" 
d="M764 100h-100v500h-500v100h500v-100h100v-500zM64 100v500h100v-500h-100zM164 100h500v-100h-500v100zM502 384v-78h77v-152h-77v152h-176v-152h-77v383h330v-153h-77v77h-176v-77h176z" />
    <glyph glyph-name="macron" unicode="&#xaf;" 
d="M264 800v100h300v-100h-300z" />
    <glyph glyph-name="degree" unicode="&#xb0;" 
d="M164 500v200h99v100h300v-100h100v-200h-100v-100h-300v100h-99zM363 700v-200h100v200h-100z" />
    <glyph glyph-name="plusminus" unicode="&#xb1;" 
d="M714 300h-200v-198h-200v198h-200v100h200v200h200v-200h200v-100zM714 -100h-600v100h600v-100z" />
    <glyph glyph-name="twosuperior" unicode="&#xb2;" 
d="M164 500h100v-100h400v-100h-500v200zM564 700h-400v100h400v-100h100v-100h-100v100zM264 600h300v-100h-300v100z" />
    <glyph glyph-name="threesuperior" unicode="&#xb3;" 
d="M164 800h500v-200h-100v100h-400v100zM164 400h400v-100h-400v100zM564 500h-200v100h200v-100h100v-100h-100v100z" />
    <glyph glyph-name="acute" unicode="&#xb4;" 
d="M264 800v100h100v100h200v-100h-100v-100h-200z" />
    <glyph glyph-name="acute" unicode="&#x374;" 
d="M264 800v100h100v100h200v-100h-100v-100h-200z" />
    <glyph glyph-name="uni00B5" unicode="&#xb5;" 
d="M464 100v-100h-200v-200h-200v700h200v-400h200zM664 100h100v-100h-200v100h-100v400h200v-400z" />
    <glyph glyph-name="paragraph" unicode="&#xb6;" 
d="M764 700v-899h-100v799h-200v-799h-100v499h-200v100h-100v200h100v100h600z" />
    <glyph glyph-name="periodcentered" unicode="&#xb7;" 
d="M514 248h-200v200h200v-200z" />
    <glyph glyph-name="periodcentered" unicode="&#x22c5;" 
d="M514 248h-200v200h200v-200z" />
    <glyph glyph-name="cedilla" unicode="&#xb8;" 
d="M264 -200v100h100v100h200v-100h-100v-100h-200z" />
    <glyph glyph-name="onesuperior" unicode="&#xb9;" 
d="M164 400h200v200h-200v100h200v100h100v-400h200v-100h-500v100z" />
    <glyph glyph-name="ordmasculine" unicode="&#xba;" 
d="M614 400h-100v200h-200v100h200v-100h100v-200zM514 400v-100h-200v100h200zM314 400h-100v200h100v-200z" />
    <glyph glyph-name="guillemotright" unicode="&#xbb;" 
d="M164 100v100h100v100h-100v100h-100v100h200v-100h100v-100h100v-100h100v100h-100v100h-100v100h200v-100h100v-100h100v-100h-100v-100h-100v-100h-200v100h-100v-100h-200v100h100zM364 100h100v100h-100v-100z" />
    <glyph glyph-name="onequarter" unicode="&#xbc;" 
d="M64 500h100v100h-100v100h100v100h100v-300h100v-100h-300v100zM764 600h-100v100h100v-100zM664 500h-100v100h100v-100zM564 400h-100v100h100v-100zM464 300h-100v100h100v-100zM364 200h-100v100h100v-100zM264 100h-100v100h100v-100zM164 0h-100v100h100v-100z
M564 300h100v100h100v-500h-100v100h-200v200h100v-100h100v100h-100v100z" />
    <glyph glyph-name="onehalf" unicode="&#xbd;" 
d="M664 200h-200v100h-100v100h-300v100h100v100h-100v100h100v100h100v-300h100v-100h100v-100h200v-100h100v-100h-100v100zM464 0h100v100h100v-100h100v-100h-300v100zM164 0h-100v100h100v-100zM264 100h-100v100h100v-100zM364 200h-100v100h100v-100zM764 600h-100
v100h100v-100zM664 500h-100v100h100v-100zM564 400h-100v100h100v-100z" />
    <glyph glyph-name="threequarters" unicode="&#xbe;" 
d="M64 800h300v-200h-100v100h-200v100zM64 400h200v-100h-200v100zM264 500h-100v100h100v-100h100v-100h-100v100zM764 600h-100v100h100v-100zM664 500h-100v100h100v-100zM564 400h-100v100h100v-100zM464 300h-100v100h100v-100zM364 200h-100v100h100v-100zM264 100
h-100v100h100v-100zM164 0h-100v100h100v-100zM564 300h100v100h100v-500h-100v100h-200v200h100v-100h100v100h-100v100z" />
    <glyph glyph-name="questiondown" unicode="&#xbf;" 
d="M64 300h200v100h100v100h100v-200h-100v-100h-100v-100h300v100h200v-100h-100v-100h-500v100h-100v200zM364 700h100v-100h-100v100z" />
    <glyph glyph-name="Agrave" unicode="&#xc0;" 
d="M764 0h-200v200h-300v-200h-200v500h100v100h100v100h300v-100h100v-100h100v-500zM564 300v200h-100v100h-100v-100h-100v-200h300zM302 800v100h-100v100h200v-100h100v-100h-200z" />
    <glyph glyph-name="Agrave" unicode="&#xe0;" 
d="M764 0h-200v200h-300v-200h-200v500h100v100h100v100h300v-100h100v-100h100v-500zM564 300v200h-100v100h-100v-100h-100v-200h300zM302 800v100h-100v100h200v-100h100v-100h-200z" />
    <glyph glyph-name="Aacute" unicode="&#xc1;" 
d="M764 0h-200v200h-300v-200h-200v500h100v100h100v100h300v-100h100v-100h100v-500zM564 300v200h-100v100h-100v-100h-100v-200h300zM302 800v100h100v100h200v-100h-100v-100h-200z" />
    <glyph glyph-name="Aacute" unicode="&#xf46a;" 
d="M764 0h-200v200h-300v-200h-200v500h100v100h100v100h300v-100h100v-100h100v-500zM564 300v200h-100v100h-100v-100h-100v-200h300zM302 800v100h100v100h200v-100h-100v-100h-200z" />
    <glyph glyph-name="Aacute" unicode="&#xf460;" 
d="M764 0h-200v200h-300v-200h-200v500h100v100h100v100h300v-100h100v-100h100v-500zM564 300v200h-100v100h-100v-100h-100v-200h300zM302 800v100h100v100h200v-100h-100v-100h-200z" />
    <glyph glyph-name="Aacute" unicode="&#xe1;" 
d="M764 0h-200v200h-300v-200h-200v500h100v100h100v100h300v-100h100v-100h100v-500zM564 300v200h-100v100h-100v-100h-100v-200h300zM302 800v100h100v100h200v-100h-100v-100h-200z" />
    <glyph glyph-name="Acircumflex" unicode="&#xc2;" 
d="M764 0h-200v200h-300v-200h-200v500h100v100h100v100h300v-100h100v-100h100v-500zM564 300v200h-100v100h-100v-100h-100v-200h300zM164 800v100h100v100h300v-100h100v-100h-200v100h-100v-100h-200z" />
    <glyph glyph-name="Acircumflex" unicode="&#xe2;" 
d="M764 0h-200v200h-300v-200h-200v500h100v100h100v100h300v-100h100v-100h100v-500zM564 300v200h-100v100h-100v-100h-100v-200h300zM164 800v100h100v100h300v-100h100v-100h-200v100h-100v-100h-200z" />
    <glyph glyph-name="Atilde" unicode="&#xc3;" 
d="M764 0h-200v200h-300v-200h-200v500h100v100h100v100h300v-100h100v-100h100v-500zM564 300v200h-100v100h-100v-100h-100v-200h300zM212 800v100h100v100h100v-100h-100v-100h-100zM412 800v100h100v100h100v-100h-100v-100h-100z" />
    <glyph glyph-name="Atilde" unicode="&#xe3;" 
d="M764 0h-200v200h-300v-200h-200v500h100v100h100v100h300v-100h100v-100h100v-500zM564 300v200h-100v100h-100v-100h-100v-200h300zM212 800v100h100v100h100v-100h-100v-100h-100zM412 800v100h100v100h100v-100h-100v-100h-100z" />
    <glyph glyph-name="Adieresis" unicode="&#xc4;" 
d="M764 0h-200v200h-300v-200h-200v500h100v100h100v100h300v-100h100v-100h100v-500zM564 300v200h-100v100h-100v-100h-100v-200h300zM663 1000v-200h-200v200h200zM163 1000h200v-200h-200v200z" />
    <glyph glyph-name="Adieresis" unicode="&#x4d3;" 
d="M764 0h-200v200h-300v-200h-200v500h100v100h100v100h300v-100h100v-100h100v-500zM564 300v200h-100v100h-100v-100h-100v-200h300zM663 1000v-200h-200v200h200zM163 1000h200v-200h-200v200z" />
    <glyph glyph-name="Adieresis" unicode="&#x4d2;" 
d="M764 0h-200v200h-300v-200h-200v500h100v100h100v100h300v-100h100v-100h100v-500zM564 300v200h-100v100h-100v-100h-100v-200h300zM663 1000v-200h-200v200h200zM163 1000h200v-200h-200v200z" />
    <glyph glyph-name="Adieresis" unicode="&#xe4;" 
d="M764 0h-200v200h-300v-200h-200v500h100v100h100v100h300v-100h100v-100h100v-500zM564 300v200h-100v100h-100v-100h-100v-200h300zM663 1000v-200h-200v200h200zM163 1000h200v-200h-200v200z" />
    <glyph glyph-name="Aring" unicode="&#xc5;" 
d="M564 600h100v-100h100v-500h-200v200h-300v-200h-200v500h100v100h100v400h300v-400zM564 300v200h-100v100h-100v-100h-100v-200h300zM464 800v100h-100v-100h100z" />
    <glyph glyph-name="Aring" unicode="&#xe5;" 
d="M564 600h100v-100h100v-500h-200v200h-300v-200h-200v500h100v100h100v400h300v-400zM564 300v200h-100v100h-100v-100h-100v-200h300zM464 800v100h-100v-100h100z" />
    <glyph glyph-name="AE" unicode="&#xc6;" 
d="M814 0h-400v200h-200v-200h-200v500h100v100h99v100h601v-100h-200v-200h199v-100h-199v-198h200v-102zM414 300v300h-100v-100h-100v-200h200z" />
    <glyph glyph-name="AE" unicode="&#x4d5;" 
d="M814 0h-400v200h-200v-200h-200v500h100v100h99v100h601v-100h-200v-200h199v-100h-199v-198h200v-102zM414 300v300h-100v-100h-100v-200h200z" />
    <glyph glyph-name="AE" unicode="&#x4d4;" 
d="M814 0h-400v200h-200v-200h-200v500h100v100h99v100h601v-100h-200v-200h199v-100h-199v-198h200v-102zM414 300v300h-100v-100h-100v-200h200z" />
    <glyph glyph-name="AE" unicode="&#xe6;" 
d="M814 0h-400v200h-200v-200h-200v500h100v100h99v100h601v-100h-200v-200h199v-100h-199v-198h200v-102zM414 300v300h-100v-100h-100v-200h200z" />
    <glyph glyph-name="Ccedilla" unicode="&#xc7;" 
d="M264 -200v100h100v100h-100v100h-100v100h-100v300h100v100h100v100h400v-100h100v-100h-200v100h-200v-100h-100v-300h100v-100h200v100h200v-100h-100v-100h-100v-100h-100v-100h-200z" />
    <glyph glyph-name="Ccedilla" unicode="&#xe7;" 
d="M264 -200v100h100v100h-100v100h-100v100h-100v300h100v100h100v100h400v-100h100v-100h-200v100h-200v-100h-100v-300h100v-100h200v100h200v-100h-100v-100h-100v-100h-100v-100h-200z" />
    <glyph glyph-name="Egrave" unicode="&#xc8;" 
d="M764 0h-700v700h700v-100h-500v-200h400v-100h-400v-200h500v-100zM334 800v100h-100v100h200v-100h100v-100h-200z" />
    <glyph glyph-name="Egrave" unicode="&#x450;" 
d="M764 0h-700v700h700v-100h-500v-200h400v-100h-400v-200h500v-100zM334 800v100h-100v100h200v-100h100v-100h-200z" />
    <glyph glyph-name="Egrave" unicode="&#x400;" 
d="M764 0h-700v700h700v-100h-500v-200h400v-100h-400v-200h500v-100zM334 800v100h-100v100h200v-100h100v-100h-200z" />
    <glyph glyph-name="Egrave" unicode="&#xe8;" 
d="M764 0h-700v700h700v-100h-500v-200h400v-100h-400v-200h500v-100zM334 800v100h-100v100h200v-100h100v-100h-200z" />
    <glyph glyph-name="Eacute" unicode="&#xc9;" 
d="M764 0h-700v700h700v-100h-500v-200h400v-100h-400v-200h500v-100zM293 800v100h100v100h200v-100h-100v-100h-200z" />
    <glyph glyph-name="Eacute" unicode="&#xf46b;" 
d="M764 0h-700v700h700v-100h-500v-200h400v-100h-400v-200h500v-100zM293 800v100h100v100h200v-100h-100v-100h-200z" />
    <glyph glyph-name="Eacute" unicode="&#xf461;" 
d="M764 0h-700v700h700v-100h-500v-200h400v-100h-400v-200h500v-100zM293 800v100h100v100h200v-100h-100v-100h-200z" />
    <glyph glyph-name="Eacute" unicode="&#xe9;" 
d="M764 0h-700v700h700v-100h-500v-200h400v-100h-400v-200h500v-100zM293 800v100h100v100h200v-100h-100v-100h-200z" />
    <glyph glyph-name="Ecircumflex" unicode="&#xca;" 
d="M764 0h-700v700h700v-100h-500v-200h400v-100h-400v-200h500v-100zM164 800v100h100v100h300v-100h100v-100h-200v100h-100v-100h-200z" />
    <glyph glyph-name="Ecircumflex" unicode="&#xea;" 
d="M764 0h-700v700h700v-100h-500v-200h400v-100h-400v-200h500v-100zM164 800v100h100v100h300v-100h100v-100h-200v100h-100v-100h-200z" />
    <glyph glyph-name="Edieresis" unicode="&#xcb;" 
d="M764 0h-700v700h700v-100h-500v-200h400v-100h-400v-200h500v-100zM664 1000v-200h-200v200h200zM164 1000h200v-200h-200v200z" />
    <glyph glyph-name="Edieresis" unicode="&#x451;" 
d="M764 0h-700v700h700v-100h-500v-200h400v-100h-400v-200h500v-100zM664 1000v-200h-200v200h200zM164 1000h200v-200h-200v200z" />
    <glyph glyph-name="Edieresis" unicode="&#x401;" 
d="M764 0h-700v700h700v-100h-500v-200h400v-100h-400v-200h500v-100zM664 1000v-200h-200v200h200zM164 1000h200v-200h-200v200z" />
    <glyph glyph-name="Edieresis" unicode="&#xeb;" 
d="M764 0h-700v700h700v-100h-500v-200h400v-100h-400v-200h500v-100zM664 1000v-200h-200v200h200zM164 1000h200v-200h-200v200z" />
    <glyph glyph-name="Igrave" unicode="&#xcc;" 
d="M714 600h-200v-500h200v-100h-600v100h200v500h-200v100h600v-100zM318 800v100h-100v100h200v-100h100v-100h-200z" />
    <glyph glyph-name="Igrave" unicode="&#xec;" 
d="M714 600h-200v-500h200v-100h-600v100h200v500h-200v100h600v-100zM318 800v100h-100v100h200v-100h100v-100h-200z" />
    <glyph glyph-name="Iacute" unicode="&#xcd;" 
d="M714 600h-200v-500h200v-100h-600v100h200v500h-200v100h600v-100zM315 800v100h100v100h200v-100h-100v-100h-200z" />
    <glyph glyph-name="Iacute" unicode="&#xed;" 
d="M714 600h-200v-500h200v-100h-600v100h200v500h-200v100h600v-100zM315 800v100h100v100h200v-100h-100v-100h-200z" />
    <glyph glyph-name="Icircumflex" unicode="&#xce;" 
d="M714 600h-200v-500h200v-100h-600v100h200v500h-200v100h600v-100zM164 800v100h100v100h300v-100h100v-100h-200v100h-100v-100h-200z" />
    <glyph glyph-name="Icircumflex" unicode="&#xee;" 
d="M714 600h-200v-500h200v-100h-600v100h200v500h-200v100h600v-100zM164 800v100h100v100h300v-100h100v-100h-200v100h-100v-100h-200z" />
    <glyph glyph-name="Idieresis" unicode="&#xcf;" 
d="M714 600h-200v-500h200v-100h-600v100h200v500h-200v100h600v-100zM664 1000v-200h-200v200h200zM164 1000h200v-200h-200v200z" />
    <glyph glyph-name="Idieresis" unicode="&#x457;" 
d="M714 600h-200v-500h200v-100h-600v100h200v500h-200v100h600v-100zM664 1000v-200h-200v200h200zM164 1000h200v-200h-200v200z" />
    <glyph glyph-name="Idieresis" unicode="&#x407;" 
d="M714 600h-200v-500h200v-100h-600v100h200v500h-200v100h600v-100zM664 1000v-200h-200v200h200zM164 1000h200v-200h-200v200z" />
    <glyph glyph-name="Idieresis" unicode="&#x3ca;" 
d="M714 600h-200v-500h200v-100h-600v100h200v500h-200v100h600v-100zM664 1000v-200h-200v200h200zM164 1000h200v-200h-200v200z" />
    <glyph glyph-name="Idieresis" unicode="&#x3aa;" 
d="M714 600h-200v-500h200v-100h-600v100h200v500h-200v100h600v-100zM664 1000v-200h-200v200h200zM164 1000h200v-200h-200v200z" />
    <glyph glyph-name="Idieresis" unicode="&#xef;" 
d="M714 600h-200v-500h200v-100h-600v100h200v500h-200v100h600v-100zM664 1000v-200h-200v200h200zM164 1000h200v-200h-200v200z" />
    <glyph glyph-name="Eth" unicode="&#xd0;" 
d="M764 200h-100v-100h-100v-100h-400v300h-100v100h100v300h400v-100h100v-100h100v-300zM464 300h-100v-200h100v100h100v300h-100v100h-100v-200h100v-100z" />
    <glyph glyph-name="Eth" unicode="&#x111;" 
d="M764 200h-100v-100h-100v-100h-400v300h-100v100h100v300h400v-100h100v-100h100v-300zM464 300h-100v-200h100v100h100v300h-100v100h-100v-200h100v-100z" />
    <glyph glyph-name="Eth" unicode="&#x110;" 
d="M764 200h-100v-100h-100v-100h-400v300h-100v100h100v300h400v-100h100v-100h100v-300zM464 300h-100v-200h100v100h100v300h-100v100h-100v-200h100v-100z" />
    <glyph glyph-name="Eth" unicode="&#xf0;" 
d="M764 200h-100v-100h-100v-100h-400v300h-100v100h100v300h400v-100h100v-100h100v-300zM464 300h-100v-200h100v100h100v300h-100v100h-100v-200h100v-100z" />
    <glyph glyph-name="Ntilde" unicode="&#xd1;" 
d="M764 0h-200v100h-100v100h-100v100h-100v-300h-200v700h200v-100h100v-100h100v-100h100v300h200v-700zM214 800v100h100v100h100v-100h-100v-100h-100zM414 800v100h100v100h100v-100h-100v-100h-100z" />
    <glyph glyph-name="Ntilde" unicode="&#xf1;" 
d="M764 0h-200v100h-100v100h-100v100h-100v-300h-200v700h200v-100h100v-100h100v-100h100v300h200v-700zM214 800v100h100v100h100v-100h-100v-100h-100zM414 800v100h100v100h100v-100h-100v-100h-100z" />
    <glyph glyph-name="Ograve" unicode="&#xd2;" 
d="M764 100h-100v-100h-500v100h-100v500h100v100h500v-100h100v-500zM564 100v500h-300v-500h300zM324 800v100h-100v100h200v-100h100v-100h-200z" />
    <glyph glyph-name="Ograve" unicode="&#xf4d3;" 
d="M764 100h-100v-100h-500v100h-100v500h100v100h500v-100h100v-500zM564 100v500h-300v-500h300zM324 800v100h-100v100h200v-100h100v-100h-200z" />
    <glyph glyph-name="Ograve" unicode="&#xf4d2;" 
d="M764 100h-100v-100h-500v100h-100v500h100v100h500v-100h100v-500zM564 100v500h-300v-500h300zM324 800v100h-100v100h200v-100h100v-100h-200z" />
    <glyph glyph-name="Ograve" unicode="&#xf2;" 
d="M764 100h-100v-100h-500v100h-100v500h100v100h500v-100h100v-500zM564 100v500h-300v-500h300zM324 800v100h-100v100h200v-100h100v-100h-200z" />
    <glyph glyph-name="Oacute" unicode="&#xd3;" 
d="M764 100h-100v-100h-500v100h-100v500h100v100h500v-100h100v-500zM564 100v500h-300v-500h300zM304 800v100h100v100h200v-100h-100v-100h-200z" />
    <glyph glyph-name="Oacute" unicode="&#xf46d;" 
d="M764 100h-100v-100h-500v100h-100v500h100v100h500v-100h100v-500zM564 100v500h-300v-500h300zM304 800v100h100v100h200v-100h-100v-100h-200z" />
    <glyph glyph-name="Oacute" unicode="&#xf463;" 
d="M764 100h-100v-100h-500v100h-100v500h100v100h500v-100h100v-500zM564 100v500h-300v-500h300zM304 800v100h100v100h200v-100h-100v-100h-200z" />
    <glyph glyph-name="Oacute" unicode="&#xf3;" 
d="M764 100h-100v-100h-500v100h-100v500h100v100h500v-100h100v-500zM564 100v500h-300v-500h300zM304 800v100h100v100h200v-100h-100v-100h-200z" />
    <glyph glyph-name="Ocircumflex" unicode="&#xd4;" 
d="M764 100h-100v-100h-500v100h-100v500h100v100h500v-100h100v-500zM564 100v500h-300v-500h300zM164 800v100h100v100h300v-100h100v-100h-200v100h-100v-100h-200z" />
    <glyph glyph-name="Ocircumflex" unicode="&#xf4;" 
d="M764 100h-100v-100h-500v100h-100v500h100v100h500v-100h100v-500zM564 100v500h-300v-500h300zM164 800v100h100v100h300v-100h100v-100h-200v100h-100v-100h-200z" />
    <glyph glyph-name="Otilde" unicode="&#xd5;" 
d="M764 100h-100v-100h-500v100h-100v500h100v100h500v-100h100v-500zM564 100v500h-300v-500h300zM214 800v100h100v100h100v-100h-100v-100h-100zM414 800v100h100v100h100v-100h-100v-100h-100z" />
    <glyph glyph-name="Otilde" unicode="&#xf5;" 
d="M764 100h-100v-100h-500v100h-100v500h100v100h500v-100h100v-500zM564 100v500h-300v-500h300zM214 800v100h100v100h100v-100h-100v-100h-100zM414 800v100h100v100h100v-100h-100v-100h-100z" />
    <glyph glyph-name="Odieresis" unicode="&#xd6;" 
d="M764 100h-100v-100h-500v100h-100v500h100v100h500v-100h100v-500zM564 100v500h-300v-500h300zM663 1000v-200h-200v200h200zM163 1000h200v-200h-200v200z" />
    <glyph glyph-name="Odieresis" unicode="&#x4e7;" 
d="M764 100h-100v-100h-500v100h-100v500h100v100h500v-100h100v-500zM564 100v500h-300v-500h300zM663 1000v-200h-200v200h200zM163 1000h200v-200h-200v200z" />
    <glyph glyph-name="Odieresis" unicode="&#x4e6;" 
d="M764 100h-100v-100h-500v100h-100v500h100v100h500v-100h100v-500zM564 100v500h-300v-500h300zM663 1000v-200h-200v200h200zM163 1000h200v-200h-200v200z" />
    <glyph glyph-name="Odieresis" unicode="&#xf6;" 
d="M764 100h-100v-100h-500v100h-100v500h100v100h500v-100h100v-500zM564 100v500h-300v-500h300zM663 1000v-200h-200v200h200zM163 1000h200v-200h-200v200z" />
    <glyph glyph-name="multiply" unicode="&#xd7;" 
d="M164 300h100v100h-100v200h100v-100h100v-100h100v100h100v100h100v-200h-100v-100h100v-200h-100v100h-100v100h-100v-100h-100v-100h-100v200z" />
    <glyph glyph-name="Oslash" unicode="&#xd8;" 
d="M764 100h-100v-100h-500v100h-100v500h100v100h500v-100h100v-500zM564 100v300h-100v100h100v100h-300v-300h100v-100h-100v-100h300zM464 400h-100v-100h100v100z" />
    <glyph glyph-name="Oslash" unicode="&#xf8;" 
d="M764 100h-100v-100h-500v100h-100v500h100v100h500v-100h100v-500zM564 100v300h-100v100h100v100h-300v-300h100v-100h-100v-100h300zM464 400h-100v-100h100v100z" />
    <glyph glyph-name="Ugrave" unicode="&#xd9;" 
d="M764 100h-100v-100h-500v100h-100v600h200v-600h300v600h200v-600zM324 800v100h-100v100h200v-100h100v-100h-200z" />
    <glyph glyph-name="Ugrave" unicode="&#xf9;" 
d="M764 100h-100v-100h-500v100h-100v600h200v-600h300v600h200v-600zM324 800v100h-100v100h200v-100h100v-100h-200z" />
    <glyph glyph-name="Uacute" unicode="&#xda;" 
d="M764 100h-100v-100h-500v100h-100v600h200v-600h300v600h200v-600zM304 800v100h100v100h200v-100h-100v-100h-200z" />
    <glyph glyph-name="Uacute" unicode="&#xfa;" 
d="M764 100h-100v-100h-500v100h-100v600h200v-600h300v600h200v-600zM304 800v100h100v100h200v-100h-100v-100h-200z" />
    <glyph glyph-name="Ucircumflex" unicode="&#xdb;" 
d="M764 100h-100v-100h-500v100h-100v600h200v-600h300v600h200v-600zM164 800v100h100v100h300v-100h100v-100h-200v100h-100v-100h-200z" />
    <glyph glyph-name="Ucircumflex" unicode="&#xfb;" 
d="M764 100h-100v-100h-500v100h-100v600h200v-600h300v600h200v-600zM164 800v100h100v100h300v-100h100v-100h-200v100h-100v-100h-200z" />
    <glyph glyph-name="Udieresis" unicode="&#xdc;" 
d="M764 100h-100v-100h-500v100h-100v600h200v-600h300v600h200v-600zM663 1000v-200h-200v200h200zM163 1000h200v-200h-200v200z" />
    <glyph glyph-name="Udieresis" unicode="&#xfc;" 
d="M764 100h-100v-100h-500v100h-100v600h200v-600h300v600h200v-600zM663 1000v-200h-200v200h200zM163 1000h200v-200h-200v200z" />
    <glyph glyph-name="Yacute" unicode="&#xdd;" 
d="M714 400h-100v-100h-100v-300h-200v300h-101v100h-99v300h200v-300h200v300h200v-300zM298 800v100h100v100h200v-100h-100v-100h-200z" />
    <glyph glyph-name="Yacute" unicode="&#xfd;" 
d="M714 400h-100v-100h-100v-300h-200v300h-101v100h-99v300h200v-300h200v300h200v-300zM298 800v100h100v100h200v-100h-100v-100h-200z" />
    <glyph glyph-name="Thorn" unicode="&#xde;" 
d="M764 259h-100v-101h-400v-158h-200v700h200v-141h400v-100h100v-200zM564 259v200h-300v-200h300z" />
    <glyph glyph-name="Thorn" unicode="&#xfe;" 
d="M764 259h-100v-101h-400v-158h-200v700h200v-141h400v-100h100v-200zM564 259v200h-300v-200h300z" />
    <glyph glyph-name="divide" unicode="&#xf7;" 
d="M714 300h-600v100h600v-100zM514 500h-200v100h200v-100zM314 100v100h200v-100h-200z" />
    <glyph glyph-name="Ydieresis" unicode="&#xff;" 
d="M714 400h-100v-100h-100v-300h-200v300h-101v100h-99v300h200v-300h200v300h200v-300zM649 1000v-200h-200v200h200zM149 1000h200v-200h-200v200z" />
    <glyph glyph-name="Ydieresis" unicode="&#x3cb;" 
d="M714 400h-100v-100h-100v-300h-200v300h-101v100h-99v300h200v-300h200v300h200v-300zM649 1000v-200h-200v200h200zM149 1000h200v-200h-200v200z" />
    <glyph glyph-name="Ydieresis" unicode="&#x3ab;" 
d="M714 400h-100v-100h-100v-300h-200v300h-101v100h-99v300h200v-300h200v300h200v-300zM649 1000v-200h-200v200h200zM149 1000h200v-200h-200v200z" />
    <glyph glyph-name="Ydieresis" unicode="&#x178;" 
d="M714 400h-100v-100h-100v-300h-200v300h-101v100h-99v300h200v-300h200v300h200v-300zM649 1000v-200h-200v200h200zM149 1000h200v-200h-200v200z" />
    <glyph glyph-name="Amacron" unicode="&#x100;" 
d="M764 0h-200v200h-300v-200h-200v500h100v100h100v100h300v-100h100v-100h100v-500zM564 300v200h-100v100h-100v-100h-100v-200h300zM264 800v100h300v-100h-300z" />
    <glyph glyph-name="Amacron" unicode="&#xf50f;" 
d="M764 0h-200v200h-300v-200h-200v500h100v100h100v100h300v-100h100v-100h100v-500zM564 300v200h-100v100h-100v-100h-100v-200h300zM264 800v100h300v-100h-300z" />
    <glyph glyph-name="Amacron" unicode="&#xf50e;" 
d="M764 0h-200v200h-300v-200h-200v500h100v100h100v100h300v-100h100v-100h100v-500zM564 300v200h-100v100h-100v-100h-100v-200h300zM264 800v100h300v-100h-300z" />
    <glyph glyph-name="Amacron" unicode="&#x101;" 
d="M764 0h-200v200h-300v-200h-200v500h100v100h100v100h300v-100h100v-100h100v-500zM564 300v200h-100v100h-100v-100h-100v-200h300zM264 800v100h300v-100h-300z" />
    <glyph glyph-name="Abreve" unicode="&#x102;" 
d="M764 0h-200v200h-300v-200h-200v500h100v100h100v100h300v-100h100v-100h100v-500zM564 300v200h-100v100h-100v-100h-100v-200h300zM612 1000v-200h-400v200h100v-100h200v100h100z" />
    <glyph glyph-name="Abreve" unicode="&#x4d1;" 
d="M764 0h-200v200h-300v-200h-200v500h100v100h100v100h300v-100h100v-100h100v-500zM564 300v200h-100v100h-100v-100h-100v-200h300zM612 1000v-200h-400v200h100v-100h200v100h100z" />
    <glyph glyph-name="Abreve" unicode="&#x4d0;" 
d="M764 0h-200v200h-300v-200h-200v500h100v100h100v100h300v-100h100v-100h100v-500zM564 300v200h-100v100h-100v-100h-100v-200h300zM612 1000v-200h-400v200h100v-100h200v100h100z" />
    <glyph glyph-name="Abreve" unicode="&#x103;" 
d="M764 0h-200v200h-300v-200h-200v500h100v100h100v100h300v-100h100v-100h100v-500zM564 300v200h-100v100h-100v-100h-100v-200h300zM612 1000v-200h-400v200h100v-100h200v100h100z" />
    <glyph glyph-name="Aogonek" unicode="&#x104;" 
d="M564 0v200h-300v-200h-200v500h100v100h100v100h300v-100h100v-100h100v-500h-200zM564 300v200h-100v100h-100v-100h-100v-200h300zM464 -200v200h100v-100h200v-100h-300z" />
    <glyph glyph-name="Aogonek" unicode="&#x105;" 
d="M564 0v200h-300v-200h-200v500h100v100h100v100h300v-100h100v-100h100v-500h-200zM564 300v200h-100v100h-100v-100h-100v-200h300zM464 -200v200h100v-100h200v-100h-300z" />
    <glyph glyph-name="Cacute" unicode="&#x106;" 
d="M764 100h-100v-100h-400v100h-100v100h-100v300h100v100h100v100h400v-100h100v-100h-200v100h-200v-100h-100v-300h100v-100h200v100h200v-100zM351 800v100h100v100h200v-100h-100v-100h-200z" />
    <glyph glyph-name="Cacute" unicode="&#x107;" 
d="M764 100h-100v-100h-400v100h-100v100h-100v300h100v100h100v100h400v-100h100v-100h-200v100h-200v-100h-100v-300h100v-100h200v100h200v-100zM351 800v100h100v100h200v-100h-100v-100h-200z" />
    <glyph glyph-name="uni0108" unicode="&#x108;" 
d="M764 100h-100v-100h-400v100h-100v100h-100v300h100v100h100v100h400v-100h100v-100h-200v100h-200v-100h-100v-300h100v-100h200v100h200v-100zM220 800v100h100v100h300v-100h100v-100h-200v100h-100v-100h-200z" />
    <glyph glyph-name="uni0108" unicode="&#x109;" 
d="M764 100h-100v-100h-400v100h-100v100h-100v300h100v100h100v100h400v-100h100v-100h-200v100h-200v-100h-100v-300h100v-100h200v100h200v-100zM220 800v100h100v100h300v-100h100v-100h-200v100h-100v-100h-200z" />
    <glyph glyph-name="Cdotaccent" unicode="&#x10a;" 
d="M764 100h-100v-100h-400v100h-100v100h-100v300h100v100h100v100h400v-100h100v-100h-200v100h-200v-100h-100v-300h100v-100h200v100h200v-100zM364 1000h200v-200h-200v200z" />
    <glyph glyph-name="Cdotaccent" unicode="&#x10b;" 
d="M764 100h-100v-100h-400v100h-100v100h-100v300h100v100h100v100h400v-100h100v-100h-200v100h-200v-100h-100v-300h100v-100h200v100h200v-100zM364 1000h200v-200h-200v200z" />
    <glyph glyph-name="Ccaron" unicode="&#x10c;" 
d="M764 100h-100v-100h-400v100h-100v100h-100v300h100v100h100v100h400v-100h100v-100h-200v100h-200v-100h-100v-300h100v-100h200v100h200v-100zM712 1000v-100h-100v-100h-300v100h-100v100h200v-100h100v100h200z" />
    <glyph glyph-name="Ccaron" unicode="&#x10d;" 
d="M764 100h-100v-100h-400v100h-100v100h-100v300h100v100h100v100h400v-100h100v-100h-200v100h-200v-100h-100v-300h100v-100h200v100h200v-100zM712 1000v-100h-100v-100h-300v100h-100v100h200v-100h100v100h200z" />
    <glyph glyph-name="Dcaron" unicode="&#x10e;" 
d="M764 200h-100v-100h-100v-100h-500v700h500v-100h100v-100h100v-300zM564 200v300h-100v100h-200v-500h200v100h100zM612 1000v-100h-100v-100h-300v100h-100v100h200v-100h100v100h200z" />
    <glyph glyph-name="Dcaron" unicode="&#x10f;" 
d="M764 200h-100v-100h-100v-100h-500v700h500v-100h100v-100h100v-300zM564 200v300h-100v100h-200v-500h200v100h100zM612 1000v-100h-100v-100h-300v100h-100v100h200v-100h100v100h200z" />
    <glyph glyph-name="Emacron" unicode="&#x112;" 
d="M764 0h-700v700h700v-100h-500v-200h400v-100h-400v-200h500v-100zM264 800v100h300v-100h-300z" />
    <glyph glyph-name="Emacron" unicode="&#xf511;" 
d="M764 0h-700v700h700v-100h-500v-200h400v-100h-400v-200h500v-100zM264 800v100h300v-100h-300z" />
    <glyph glyph-name="Emacron" unicode="&#xf510;" 
d="M764 0h-700v700h700v-100h-500v-200h400v-100h-400v-200h500v-100zM264 800v100h300v-100h-300z" />
    <glyph glyph-name="Emacron" unicode="&#x113;" 
d="M764 0h-700v700h700v-100h-500v-200h400v-100h-400v-200h500v-100zM264 800v100h300v-100h-300z" />
    <glyph glyph-name="Ebreve" unicode="&#x114;" 
d="M764 0h-700v700h700v-100h-500v-200h400v-100h-400v-200h500v-100zM623 1000v-200h-400v200h100v-100h200v100h100z" />
    <glyph glyph-name="Ebreve" unicode="&#x4d7;" 
d="M764 0h-700v700h700v-100h-500v-200h400v-100h-400v-200h500v-100zM623 1000v-200h-400v200h100v-100h200v100h100z" />
    <glyph glyph-name="Ebreve" unicode="&#x4d6;" 
d="M764 0h-700v700h700v-100h-500v-200h400v-100h-400v-200h500v-100zM623 1000v-200h-400v200h100v-100h200v100h100z" />
    <glyph glyph-name="Ebreve" unicode="&#x115;" 
d="M764 0h-700v700h700v-100h-500v-200h400v-100h-400v-200h500v-100zM623 1000v-200h-400v200h100v-100h200v100h100z" />
    <glyph glyph-name="Edotaccent" unicode="&#x116;" 
d="M764 0h-700v700h700v-100h-500v-200h400v-100h-400v-200h500v-100zM323 1000h200v-200h-200v200z" />
    <glyph glyph-name="Edotaccent" unicode="&#x117;" 
d="M764 0h-700v700h700v-100h-500v-200h400v-100h-400v-200h500v-100zM323 1000h200v-200h-200v200z" />
    <glyph glyph-name="Eogonek" unicode="&#x118;" 
d="M464 -200v200h-400v700h700v-100h-500v-200h400v-100h-400v-200h500v-100h-200v-100h200v-100h-300z" />
    <glyph glyph-name="Eogonek" unicode="&#x119;" 
d="M464 -200v200h-400v700h700v-100h-500v-200h400v-100h-400v-200h500v-100h-200v-100h200v-100h-300z" />
    <glyph glyph-name="Ecaron" unicode="&#x11a;" 
d="M764 0h-700v700h700v-100h-500v-200h400v-100h-400v-200h500v-100zM664 1000v-100h-100v-100h-300v100h-100v100h200v-100h100v100h200z" />
    <glyph glyph-name="Ecaron" unicode="&#x11b;" 
d="M764 0h-700v700h700v-100h-500v-200h400v-100h-400v-200h500v-100zM664 1000v-100h-100v-100h-300v100h-100v100h200v-100h100v100h200z" />
    <glyph glyph-name="uni011C" unicode="&#x11c;" 
d="M764 0h-500v102h-100v98h-100v300h100v100h100v100h500v-100h-400v-100h-100v-300h100v-100h200v200h-100v100h300v-400zM164 800v100h100v100h300v-100h100v-100h-200v100h-100v-100h-200z" />
    <glyph glyph-name="uni011C" unicode="&#x11d;" 
d="M764 0h-500v102h-100v98h-100v300h100v100h100v100h500v-100h-400v-100h-100v-300h100v-100h200v200h-100v100h300v-400zM164 800v100h100v100h300v-100h100v-100h-200v100h-100v-100h-200z" />
    <glyph glyph-name="Gbreve" unicode="&#x11e;" 
d="M764 0h-500v102h-100v98h-100v300h100v100h100v100h500v-100h-400v-100h-100v-300h100v-100h200v200h-100v100h300v-400zM663 1000v-200h-400v200h100v-100h200v100h100z" />
    <glyph glyph-name="Gbreve" unicode="&#x11f;" 
d="M764 0h-500v102h-100v98h-100v300h100v100h100v100h500v-100h-400v-100h-100v-300h100v-100h200v200h-100v100h300v-400zM663 1000v-200h-400v200h100v-100h200v100h100z" />
    <glyph glyph-name="Gdotaccent" unicode="&#x120;" 
d="M764 0h-500v102h-100v98h-100v300h100v100h100v100h500v-100h-400v-100h-100v-300h100v-100h200v200h-100v100h300v-400zM364 1000h200v-200h-200v200z" />
    <glyph glyph-name="Gdotaccent" unicode="&#x121;" 
d="M764 0h-500v102h-100v98h-100v300h100v100h100v100h500v-100h-400v-100h-100v-300h100v-100h200v200h-100v100h300v-400zM364 1000h200v-200h-200v200z" />
    <glyph glyph-name="Gcommaaccent" unicode="&#x122;" 
d="M764 0h-200v-100h-100v-100h-200v100h100v100h-100v102h-100v98h-100v300h100v100h100v100h500v-100h-400v-100h-100v-300h100v-100h200v200h-100v100h300v-400z" />
    <glyph glyph-name="Gcommaaccent" unicode="&#x123;" 
d="M764 0h-200v-100h-100v-100h-200v100h100v100h-100v102h-100v98h-100v300h100v100h100v100h500v-100h-400v-100h-100v-300h100v-100h200v200h-100v100h300v-400z" />
    <glyph glyph-name="uni0124" unicode="&#x124;" 
d="M764 0h-200v300h-300v-300h-200v700h200v-300h300v300h200v-700zM164 800v100h100v100h300v-100h100v-100h-200v100h-100v-100h-200z" />
    <glyph glyph-name="uni0124" unicode="&#x125;" 
d="M764 0h-200v300h-300v-300h-200v700h200v-300h300v300h200v-700zM164 800v100h100v100h300v-100h100v-100h-200v100h-100v-100h-200z" />
    <glyph glyph-name="Hbar" unicode="&#x126;" 
d="M764 500v-500h-200v300h-300v-300h-200v500h-64v100h64v100h200v-100h300v100h200v-100h64v-100h-64zM564 400v100h-300v-100h300z" />
    <glyph glyph-name="Hbar" unicode="&#x127;" 
d="M764 500v-500h-200v300h-300v-300h-200v500h-64v100h64v100h200v-100h300v100h200v-100h64v-100h-64zM564 400v100h-300v-100h300z" />
    <glyph glyph-name="Itilde" unicode="&#x128;" 
d="M714 600h-200v-500h200v-100h-600v100h200v500h-200v100h600v-100zM214 800v100h100v100h100v-100h-100v-100h-100zM414 800v100h100v100h100v-100h-100v-100h-100z" />
    <glyph glyph-name="Itilde" unicode="&#x129;" 
d="M714 600h-200v-500h200v-100h-600v100h200v500h-200v100h600v-100zM214 800v100h100v100h100v-100h-100v-100h-100zM414 800v100h100v100h100v-100h-100v-100h-100z" />
    <glyph glyph-name="Imacron" unicode="&#x12a;" 
d="M714 600h-200v-500h200v-100h-600v100h200v500h-200v100h600v-100zM264 800v100h300v-100h-300z" />
    <glyph glyph-name="Imacron" unicode="&#x12b;" 
d="M714 600h-200v-500h200v-100h-600v100h200v500h-200v100h600v-100zM264 800v100h300v-100h-300z" />
    <glyph glyph-name="Ibreve" unicode="&#x12c;" 
d="M714 600h-200v-500h200v-100h-600v100h200v500h-200v100h600v-100zM615 1000v-200h-400v200h100v-100h200v100h100z" />
    <glyph glyph-name="Ibreve" unicode="&#x12d;" 
d="M714 600h-200v-500h200v-100h-600v100h200v500h-200v100h600v-100zM615 1000v-200h-400v200h100v-100h200v100h100z" />
    <glyph glyph-name="Iogonek" unicode="&#x12e;" 
d="M414 -200v200h-300v100h200v500h-200v100h600v-100h-200v-500h200v-100h-200v-100h200v-100h-300z" />
    <glyph glyph-name="Iogonek" unicode="&#x12f;" 
d="M414 -200v200h-300v100h200v500h-200v100h600v-100h-200v-500h200v-100h-200v-100h200v-100h-300z" />
    <glyph glyph-name="Idotaccent" unicode="&#x130;" 
d="M714 600h-200v-500h200v-100h-600v100h200v500h-200v100h600v-100zM314 1000h200v-200h-200v200z" />
    <glyph glyph-name="IJ" unicode="&#x132;" 
d="M238 700v-700h-200v700h200zM796 102h-101v-102h-319v100h-98v100h199v-100h118v600h201v-598z" />
    <glyph glyph-name="IJ" unicode="&#x133;" 
d="M238 700v-700h-200v700h200zM796 102h-101v-102h-319v100h-98v100h199v-100h118v600h201v-598z" />
    <glyph glyph-name="uni0134" unicode="&#x134;" 
d="M764 100h-100v-100h-500v100h-100v100h200v-100h300v600h200v-600zM264 800v100h100v100h300v-100h100v-100h-200v100h-100v-100h-200z" />
    <glyph glyph-name="uni0134" unicode="&#x135;" 
d="M764 100h-100v-100h-500v100h-100v100h200v-100h300v600h200v-600zM264 800v100h100v100h300v-100h100v-100h-200v100h-100v-100h-200z" />
    <glyph glyph-name="Kcommaaccent" unicode="&#x136;" 
d="M764 0h-300v100h-100v100h-100v-200h-200v700h200v-300h100v100h100v100h100v100h200v-100h-100v-100h-100v-100h-100v-100h100v-100h100v-100h100v-100zM164 -200v100h100v100h200v-100h-100v-100h-200z" />
    <glyph glyph-name="Kcommaaccent" unicode="&#x137;" 
d="M764 0h-300v100h-100v100h-100v-200h-200v700h200v-300h100v100h100v100h100v100h200v-100h-100v-100h-100v-100h-100v-100h100v-100h100v-100h100v-100zM164 -200v100h100v100h200v-100h-100v-100h-200z" />
    <glyph glyph-name="Lacute" unicode="&#x139;" 
d="M764 0h-700v700h200v-600h500v-100zM64 800v100h100v100h200v-100h-100v-100h-200z" />
    <glyph glyph-name="Lacute" unicode="&#x13a;" 
d="M764 0h-700v700h200v-600h500v-100zM64 800v100h100v100h200v-100h-100v-100h-200z" />
    <glyph glyph-name="Lcommaaccent" unicode="&#x13b;" 
d="M264 -200v100h100v100h-300v700h200v-600h500v-100h-200v-100h-100v-100h-200z" />
    <glyph glyph-name="Lcommaaccent" unicode="&#x13c;" 
d="M264 -200v100h100v100h-300v700h200v-600h500v-100h-200v-100h-100v-100h-200z" />
    <glyph glyph-name="Lcaron" unicode="&#x13d;" 
d="M764 0h-700v700h200v-600h500v-100zM664 400h-100v100h-100v200h200v-300zM564 300h-100v100h100v-100z" />
    <glyph glyph-name="Lcaron" unicode="&#x13e;" 
d="M764 0h-700v700h200v-600h500v-100zM664 400h-100v100h-100v200h200v-300zM564 300h-100v100h100v-100z" />
    <glyph glyph-name="Lslash" unicode="&#x141;" 
d="M764 0h-600v200h-100v100h100v400h200v-200h100v-100h-100v-300h400v-100z" />
    <glyph glyph-name="Lslash" unicode="&#x142;" 
d="M764 0h-600v200h-100v100h100v400h200v-200h100v-100h-100v-300h400v-100z" />
    <glyph glyph-name="Nacute" unicode="&#x143;" 
d="M764 0h-200v100h-100v100h-100v100h-100v-300h-200v700h200v-100h100v-100h100v-100h100v300h200v-700zM304 800v100h100v100h200v-100h-100v-100h-200z" />
    <glyph glyph-name="Nacute" unicode="&#x144;" 
d="M764 0h-200v100h-100v100h-100v100h-100v-300h-200v700h200v-100h100v-100h100v-100h100v300h200v-700zM304 800v100h100v100h200v-100h-100v-100h-200z" />
    <glyph glyph-name="Ncommaaccent" unicode="&#x145;" 
d="M764 0h-200v100h-100v100h-100v100h-100v-300h-200v700h200v-100h100v-100h100v-100h100v300h200v-700zM214 -200v100h100v100h200v-100h-100v-100h-200z" />
    <glyph glyph-name="Ncommaaccent" unicode="&#x146;" 
d="M764 0h-200v100h-100v100h-100v100h-100v-300h-200v700h200v-100h100v-100h100v-100h100v300h200v-700zM214 -200v100h100v100h200v-100h-100v-100h-200z" />
    <glyph glyph-name="Ncaron" unicode="&#x147;" 
d="M764 0h-200v100h-100v100h-100v100h-100v-300h-200v700h200v-100h100v-100h100v-100h100v300h200v-700zM664 1000v-100h-100v-100h-300v100h-100v100h200v-100h100v100h200z" />
    <glyph glyph-name="Ncaron" unicode="&#x148;" 
d="M764 0h-200v100h-100v100h-100v100h-100v-300h-200v700h200v-100h100v-100h100v-100h100v300h200v-700zM664 1000v-100h-100v-100h-300v100h-100v100h200v-100h100v100h200z" />
    <glyph glyph-name="Eng" unicode="&#x14a;" 
d="M764 -100h-100v-100h-300v100h200v700h-300v-600h-200v700h600v-100h100v-700z" />
    <glyph glyph-name="Eng" unicode="&#x14b;" 
d="M764 -100h-100v-100h-300v100h200v700h-300v-600h-200v700h600v-100h100v-700z" />
    <glyph glyph-name="Omacron" unicode="&#x14c;" 
d="M764 100h-100v-100h-500v100h-100v500h100v100h500v-100h100v-500zM564 100v500h-300v-500h300zM264 800v100h300v-100h-300z" />
    <glyph glyph-name="Omacron" unicode="&#xf519;" 
d="M764 100h-100v-100h-500v100h-100v500h100v100h500v-100h100v-500zM564 100v500h-300v-500h300zM264 800v100h300v-100h-300z" />
    <glyph glyph-name="Omacron" unicode="&#xf518;" 
d="M764 100h-100v-100h-500v100h-100v500h100v100h500v-100h100v-500zM564 100v500h-300v-500h300zM264 800v100h300v-100h-300z" />
    <glyph glyph-name="Omacron" unicode="&#x14d;" 
d="M764 100h-100v-100h-500v100h-100v500h100v100h500v-100h100v-500zM564 100v500h-300v-500h300zM264 800v100h300v-100h-300z" />
    <glyph glyph-name="Obreve" unicode="&#x14e;" 
d="M764 100h-100v-100h-500v100h-100v500h100v100h500v-100h100v-500zM564 100v500h-300v-500h300zM614 1000v-200h-400v200h100v-100h200v100h100z" />
    <glyph glyph-name="Obreve" unicode="&#xf51b;" 
d="M764 100h-100v-100h-500v100h-100v500h100v100h500v-100h100v-500zM564 100v500h-300v-500h300zM614 1000v-200h-400v200h100v-100h200v100h100z" />
    <glyph glyph-name="Obreve" unicode="&#xf51a;" 
d="M764 100h-100v-100h-500v100h-100v500h100v100h500v-100h100v-500zM564 100v500h-300v-500h300zM614 1000v-200h-400v200h100v-100h200v100h100z" />
    <glyph glyph-name="Obreve" unicode="&#x14f;" 
d="M764 100h-100v-100h-500v100h-100v500h100v100h500v-100h100v-500zM564 100v500h-300v-500h300zM614 1000v-200h-400v200h100v-100h200v100h100z" />
    <glyph glyph-name="Ohungarumlaut" unicode="&#x150;" 
d="M764 100h-100v-100h-500v100h-100v500h100v100h500v-100h100v-500zM564 100v500h-300v-500h300zM164 800v100h100v100h200v-100h-100v-100h-200zM464 800v100h100v100h200v-100h-100v-100h-200z" />
    <glyph glyph-name="Ohungarumlaut" unicode="&#x151;" 
d="M764 100h-100v-100h-500v100h-100v500h100v100h500v-100h100v-500zM564 100v500h-300v-500h300zM164 800v100h100v100h200v-100h-100v-100h-200zM464 800v100h100v100h200v-100h-100v-100h-200z" />
    <glyph glyph-name="OE" unicode="&#x152;" 
d="M805 0h-687v100h-100v500h100v100h687v-100h-244v-200h194v-100h-194v-200h244v-100zM360 100v500h-142v-500h142z" />
    <glyph glyph-name="OE" unicode="&#x153;" 
d="M805 0h-687v100h-100v500h100v100h687v-100h-244v-200h194v-100h-194v-200h244v-100zM360 100v500h-142v-500h142z" />
    <glyph glyph-name="Racute" unicode="&#x154;" 
d="M764 0h-300v100h-100v100h-100v-200h-200v700h600v-100h100v-300h-200v-100h100v-100h100v-100zM564 400v200h-300v-300h200v100h100zM264 800v100h100v100h200v-100h-100v-100h-200z" />
    <glyph glyph-name="Racute" unicode="&#x155;" 
d="M764 0h-300v100h-100v100h-100v-200h-200v700h600v-100h100v-300h-200v-100h100v-100h100v-100zM564 400v200h-300v-300h200v100h100zM264 800v100h100v100h200v-100h-100v-100h-200z" />
    <glyph glyph-name="Rcommaaccent" unicode="&#x156;" 
d="M764 0h-300v100h-100v100h-100v-200h-200v700h600v-100h100v-300h-200v-100h100v-100h100v-100zM564 400v200h-300v-300h200v100h100zM164 -200v100h100v100h200v-100h-100v-100h-200z" />
    <glyph glyph-name="Rcommaaccent" unicode="&#x157;" 
d="M764 0h-300v100h-100v100h-100v-200h-200v700h600v-100h100v-300h-200v-100h100v-100h100v-100zM564 400v200h-300v-300h200v100h100zM164 -200v100h100v100h200v-100h-100v-100h-200z" />
    <glyph glyph-name="Rcaron" unicode="&#x158;" 
d="M764 0h-300v100h-100v100h-100v-200h-200v700h600v-100h100v-300h-200v-100h100v-100h100v-100zM564 400v200h-300v-300h200v100h100zM633 1000v-100h-100v-100h-300v100h-100v100h200v-100h100v100h200z" />
    <glyph glyph-name="Rcaron" unicode="&#x159;" 
d="M764 0h-300v100h-100v100h-100v-200h-200v700h600v-100h100v-300h-200v-100h100v-100h100v-100zM564 400v200h-300v-300h200v100h100zM633 1000v-100h-100v-100h-300v100h-100v100h200v-100h100v100h200z" />
    <glyph glyph-name="Sacute" unicode="&#x15a;" 
d="M764 100h-100v-100h-500v100h-100v100h200v-100h300v200h-400v100h-100v200h100v100h400v-100h100v-100h-200v100h-200v-200h400v-100h100v-200zM264 800v100h100v100h200v-100h-100v-100h-200z" />
    <glyph glyph-name="Sacute" unicode="&#x15b;" 
d="M764 100h-100v-100h-500v100h-100v100h200v-100h300v200h-400v100h-100v200h100v100h400v-100h100v-100h-200v100h-200v-200h400v-100h100v-200zM264 800v100h100v100h200v-100h-100v-100h-200z" />
    <glyph glyph-name="Scircumflex" unicode="&#x15c;" 
d="M764 100h-100v-100h-500v100h-100v100h200v-100h300v200h-400v100h-100v200h100v100h400v-100h100v-100h-200v100h-200v-200h400v-100h100v-200zM164 800v100h100v100h300v-100h100v-100h-200v100h-100v-100h-200z" />
    <glyph glyph-name="Scircumflex" unicode="&#x15d;" 
d="M764 100h-100v-100h-500v100h-100v100h200v-100h300v200h-400v100h-100v200h100v100h400v-100h100v-100h-200v100h-200v-200h400v-100h100v-200zM164 800v100h100v100h300v-100h100v-100h-200v100h-100v-100h-200z" />
    <glyph glyph-name="Scedilla" unicode="&#x15e;" 
d="M764 100h-100v-100h-100v-100h-101v-100h-199v100h100v100h-200v100h-100v100h200v-100h300v200h-400v100h-100v200h100v100h400v-100h100v-100h-200v100h-200v-200h400v-100h100v-200z" />
    <glyph glyph-name="Scedilla" unicode="&#x219;" 
d="M764 100h-100v-100h-100v-100h-101v-100h-199v100h100v100h-200v100h-100v100h200v-100h300v200h-400v100h-100v200h100v100h400v-100h100v-100h-200v100h-200v-200h400v-100h100v-200z" />
    <glyph glyph-name="Scedilla" unicode="&#x218;" 
d="M764 100h-100v-100h-100v-100h-101v-100h-199v100h100v100h-200v100h-100v100h200v-100h300v200h-400v100h-100v200h100v100h400v-100h100v-100h-200v100h-200v-200h400v-100h100v-200z" />
    <glyph glyph-name="Scedilla" unicode="&#x15f;" 
d="M764 100h-100v-100h-100v-100h-101v-100h-199v100h100v100h-200v100h-100v100h200v-100h300v200h-400v100h-100v200h100v100h400v-100h100v-100h-200v100h-200v-200h400v-100h100v-200z" />
    <glyph glyph-name="Scaron" unicode="&#x160;" 
d="M764 100h-100v-100h-500v100h-100v100h200v-100h300v200h-400v100h-100v200h100v100h400v-100h100v-100h-200v100h-200v-200h400v-100h100v-200zM650 1000v-100h-100v-100h-300v100h-100v100h200v-100h100v100h200z" />
    <glyph glyph-name="Scaron" unicode="&#x161;" 
d="M764 100h-100v-100h-500v100h-100v100h200v-100h300v200h-400v100h-100v200h100v100h400v-100h100v-100h-200v100h-200v-200h400v-100h100v-200zM650 1000v-100h-100v-100h-300v100h-100v100h200v-100h100v100h200z" />
    <glyph glyph-name="Tcommaaccent" unicode="&#x162;" 
d="M714 600h-200v-700h-100v-100h-200v100h100v700h-200v100h600v-100z" />
    <glyph glyph-name="Tcommaaccent" unicode="&#x21b;" 
d="M714 600h-200v-700h-100v-100h-200v100h100v700h-200v100h600v-100z" />
    <glyph glyph-name="Tcommaaccent" unicode="&#x21a;" 
d="M714 600h-200v-700h-100v-100h-200v100h100v700h-200v100h600v-100z" />
    <glyph glyph-name="Tcommaaccent" unicode="&#x163;" 
d="M714 600h-200v-700h-100v-100h-200v100h100v700h-200v100h600v-100z" />
    <glyph glyph-name="Tcaron" unicode="&#x164;" 
d="M714 600h-200v-600h-200v600h-200v100h600v-100zM665 1000v-100h-100v-100h-300v100h-100v100h200v-100h100v100h200z" />
    <glyph glyph-name="Tcaron" unicode="&#x165;" 
d="M714 600h-200v-600h-200v600h-200v100h600v-100zM665 1000v-100h-100v-100h-300v100h-100v100h200v-100h100v100h200z" />
    <glyph glyph-name="Tbar" unicode="&#x166;" 
d="M714 300h-200v-300h-200v300h-200v100h200v200h-200v100h600v-100h-200v-200h200v-100z" />
    <glyph glyph-name="Tbar" unicode="&#x167;" 
d="M714 300h-200v-300h-200v300h-200v100h200v200h-200v100h600v-100h-200v-200h200v-100z" />
    <glyph glyph-name="Utilde" unicode="&#x168;" 
d="M764 100h-100v-100h-500v100h-100v600h200v-600h300v600h200v-600zM214 800v100h100v100h100v-100h-100v-100h-100zM414 800v100h100v100h100v-100h-100v-100h-100z" />
    <glyph glyph-name="Utilde" unicode="&#x169;" 
d="M764 100h-100v-100h-500v100h-100v600h200v-600h300v600h200v-600zM214 800v100h100v100h100v-100h-100v-100h-100zM414 800v100h100v100h100v-100h-100v-100h-100z" />
    <glyph glyph-name="Umacron" unicode="&#x16a;" 
d="M764 100h-100v-100h-500v100h-100v600h200v-600h300v600h200v-600zM264 800v100h300v-100h-300z" />
    <glyph glyph-name="Umacron" unicode="&#x16b;" 
d="M764 100h-100v-100h-500v100h-100v600h200v-600h300v600h200v-600zM264 800v100h300v-100h-300z" />
    <glyph glyph-name="Ubreve" unicode="&#x16c;" 
d="M764 100h-100v-100h-500v100h-100v600h200v-600h300v600h200v-600zM614 1000v-200h-400v200h100v-100h200v100h100z" />
    <glyph glyph-name="Ubreve" unicode="&#x16d;" 
d="M764 100h-100v-100h-500v100h-100v600h200v-600h300v600h200v-600zM614 1000v-200h-400v200h100v-100h200v100h100z" />
    <glyph glyph-name="Uring" unicode="&#x16e;" 
d="M764 100h-100v-100h-500v100h-100v600h200v-600h300v600h200v-600zM563 700h-300v300h300v-300zM463 800v100h-100v-100h100z" />
    <glyph glyph-name="Uring" unicode="&#x16f;" 
d="M764 100h-100v-100h-500v100h-100v600h200v-600h300v600h200v-600zM563 700h-300v300h300v-300zM463 800v100h-100v-100h100z" />
    <glyph glyph-name="Uhungarumlaut" unicode="&#x170;" 
d="M764 100h-100v-100h-500v100h-100v600h200v-600h300v600h200v-600zM154 800v100h100v100h200v-100h-100v-100h-200zM454 800v100h100v100h200v-100h-100v-100h-200z" />
    <glyph glyph-name="Uhungarumlaut" unicode="&#x171;" 
d="M764 100h-100v-100h-500v100h-100v600h200v-600h300v600h200v-600zM154 800v100h100v100h200v-100h-100v-100h-200zM454 800v100h100v100h200v-100h-100v-100h-200z" />
    <glyph glyph-name="Uogonek" unicode="&#x172;" 
d="M364 -200v200h-200v100h-100v600h200v-600h300v600h200v-600h-100v-100h-200v-100h200v-100h-300z" />
    <glyph glyph-name="Uogonek" unicode="&#x173;" 
d="M364 -200v200h-200v100h-100v600h200v-600h300v600h200v-600h-100v-100h-200v-100h200v-100h-300z" />
    <glyph glyph-name="Wcircumflex" unicode="&#x174;" 
d="M764 0h-200v100h-100v100h-100v-100h-100v-100h-200v700h200v-300h100v100h100v-100h100v300h200v-700zM164 800v100h100v100h300v-100h100v-100h-200v100h-100v-100h-200z" />
    <glyph glyph-name="Wcircumflex" unicode="&#x175;" 
d="M764 0h-200v100h-100v100h-100v-100h-100v-100h-200v700h200v-300h100v100h100v-100h100v300h200v-700zM164 800v100h100v100h300v-100h100v-100h-200v100h-100v-100h-200z" />
    <glyph glyph-name="Ycircumflex" unicode="&#x176;" 
d="M714 400h-100v-100h-100v-300h-200v300h-101v100h-99v300h200v-300h200v300h200v-300zM150 800v100h100v100h300v-100h100v-100h-200v100h-100v-100h-200z" />
    <glyph glyph-name="Ycircumflex" unicode="&#x177;" 
d="M714 400h-100v-100h-100v-300h-200v300h-101v100h-99v300h200v-300h200v300h200v-300zM150 800v100h100v100h300v-100h100v-100h-200v100h-100v-100h-200z" />
    <glyph glyph-name="Zacute" unicode="&#x179;" 
d="M764 0h-700v200h100v100h100v100h100v100h100v100h-400v100h700v-200h-100v-100h-100v-100h-100v-100h-100v-100h400v-100zM297 800v100h100v100h200v-100h-100v-100h-200z" />
    <glyph glyph-name="Zacute" unicode="&#x17a;" 
d="M764 0h-700v200h100v100h100v100h100v100h100v100h-400v100h700v-200h-100v-100h-100v-100h-100v-100h-100v-100h400v-100zM297 800v100h100v100h200v-100h-100v-100h-200z" />
    <glyph glyph-name="Zdotaccent" unicode="&#x17b;" 
d="M764 0h-700v200h100v100h100v100h100v100h100v100h-400v100h700v-200h-100v-100h-100v-100h-100v-100h-100v-100h400v-100zM307 1000h200v-200h-200v200z" />
    <glyph glyph-name="Zdotaccent" unicode="&#x17c;" 
d="M764 0h-700v200h100v100h100v100h100v100h100v100h-400v100h700v-200h-100v-100h-100v-100h-100v-100h-100v-100h400v-100zM307 1000h200v-200h-200v200z" />
    <glyph glyph-name="Zcaron" unicode="&#x17d;" 
d="M764 0h-700v200h100v100h100v100h100v100h100v100h-400v100h700v-200h-100v-100h-100v-100h-100v-100h-100v-100h400v-100zM648 1000v-100h-100v-100h-300v100h-100v100h200v-100h100v100h200z" />
    <glyph glyph-name="Zcaron" unicode="&#x17e;" 
d="M764 0h-700v200h100v100h100v100h100v100h100v100h-400v100h700v-200h-100v-100h-100v-100h-100v-100h-100v-100h400v-100zM648 1000v-100h-100v-100h-300v100h-100v100h200v-100h100v100h200z" />
    <glyph glyph-name="uni0181" unicode="&#x181;" 
d="M164 700h500v-100h100v-200h-100v-100h100v-200h-100v-100h-400v600h-100v100zM64 600h100v-200h-100v200zM564 400v200h-100v-200h100zM564 100v200h-100v-200h100z" />
    <glyph glyph-name="uni0181" unicode="&#x253;" 
d="M164 700h500v-100h100v-200h-100v-100h100v-200h-100v-100h-400v600h-100v100zM64 600h100v-200h-100v200zM564 400v200h-100v-200h100zM564 100v200h-100v-200h100z" />
    <glyph glyph-name="uni0187" unicode="&#x187;" 
d="M365 500h-101v-300h100v-100h200v100h200v-100h-100v-100h-400v100h-100v100h-100v300h100v100h100v100h300v100h200v-100h-100v-100h-299v-100z" />
    <glyph glyph-name="uni0187" unicode="&#x188;" 
d="M365 500h-101v-300h100v-100h200v100h200v-100h-100v-100h-400v100h-100v100h-100v300h100v100h100v100h300v100h200v-100h-100v-100h-299v-100z" />
    <glyph glyph-name="uni018A" unicode="&#x18a;" 
d="M464 600v-500h100v-100h-300v600h-100v100h400v-100h100v-100h100v-300h-100v300h-100v100h-100zM64 600h100v-200h-100v200zM564 100v100h100v-100h-100z" />
    <glyph glyph-name="uni018A" unicode="&#x257;" 
d="M464 600v-500h100v-100h-300v600h-100v100h400v-100h100v-100h100v-300h-100v300h-100v100h-100zM64 600h100v-200h-100v200zM564 100v100h100v-100h-100z" />
    <glyph glyph-name="uni018E" unicode="&#x18e;" 
d="M64 700h700v-700h-700v100h500v200h-400v100h400v200h-500v100z" />
    <glyph glyph-name="uni018E" unicode="&#x1dd;" 
d="M64 700h700v-700h-700v100h500v200h-400v100h400v200h-500v100z" />
    <glyph glyph-name="uni018F" unicode="&#x18f;" 
d="M64 600h100v100h500v-100h100v-500h-100v-100h-500v100h-100v300h500v200h-300v-100h-200v100zM264 300v-200h300v200h-300z" />
    <glyph glyph-name="uni018F" unicode="&#x4d9;" 
d="M64 600h100v100h500v-100h100v-500h-100v-100h-500v100h-100v300h500v200h-300v-100h-200v100zM264 300v-200h300v200h-300z" />
    <glyph glyph-name="uni018F" unicode="&#x4d8;" 
d="M64 600h100v100h500v-100h100v-500h-100v-100h-500v100h-100v300h500v200h-300v-100h-200v100zM264 300v-200h300v200h-300z" />
    <glyph glyph-name="uni018F" unicode="&#x259;" 
d="M64 600h100v100h500v-100h100v-500h-100v-100h-500v100h-100v300h500v200h-300v-100h-200v100zM264 300v-200h300v200h-300z" />
    <glyph glyph-name="florin" unicode="&#x192;" 
d="M613 300h-99v-400h-100v-100h-200v100h100v400h-100v100h100v300h100v100h200v-100h-100v-300h99v-100z" />
    <glyph glyph-name="uni0194" unicode="&#x194;" 
d="M264 -100h-100v100h100v100h100v100h-100v100h-100v100h-100v300h200v-200h100v-100h100v100h100v200h200v-300h-100v-100h-100v-100h-100v-100h100v-100h100v-100h-100v-100h-300v100zM464 0h-100v-100h100v100z" />
    <glyph glyph-name="uni0194" unicode="&#x263;" 
d="M264 -100h-100v100h100v100h100v100h-100v100h-100v100h-100v300h200v-200h100v-100h100v100h100v200h200v-300h-100v-100h-100v-100h-100v-100h100v-100h100v-100h-100v-100h-300v100zM464 0h-100v-100h100v100z" />
    <glyph glyph-name="uni0198" unicode="&#x198;" 
d="M664 600h-100v-100h-100v-100h-100v-100h100v-100h100v-100h100v-100h-300v100h-100v100h-100v-200h-100v700h100v-300h100v100h100v100h100v100h300v-200h-100v100z" />
    <glyph glyph-name="uni0198" unicode="&#x199;" 
d="M664 600h-100v-100h-100v-100h-100v-100h100v-100h100v-100h100v-100h-300v100h-100v100h-100v-200h-100v700h100v-300h100v100h100v100h100v100h300v-200h-100v100z" />
    <glyph glyph-name="uni019D" unicode="&#x19d;" 
d="M64 -100h100v800h200v-100h100v-200h100v300h200v-700h-200v100h-100v200h-100v-400h-100v-100h-200v100z" />
    <glyph glyph-name="uni019D" unicode="&#x272;" 
d="M64 -100h100v800h200v-100h100v-200h100v300h200v-700h-200v100h-100v200h-100v-400h-100v-100h-200v100z" />
    <glyph glyph-name="uni01A0" unicode="&#x1a0;" 
d="M664 100h-100v-100h-400v100h-100v500h100v100h500v100h100v-200h-100v-500zM464 100v500h-200v-500h200z" />
    <glyph glyph-name="uni01A0" unicode="&#x1a1;" 
d="M664 100h-100v-100h-400v100h-100v500h100v100h500v100h100v-200h-100v-500zM464 100v500h-200v-500h200z" />
    <glyph glyph-name="uni01AF" unicode="&#x1af;" 
d="M564 100h-100v-100h-300v100h-100v600h200v-600h100v600h300v100h100v-200h-200v-500z" />
    <glyph glyph-name="uni01AF" unicode="&#x1b0;" 
d="M564 100h-100v-100h-300v100h-100v600h200v-600h100v600h300v100h100v-200h-200v-500z" />
    <glyph glyph-name="uni01B3" unicode="&#x1b3;" 
d="M664 600h-100v-200h-100v-100h-100v-300h-100v300h-101v100h-99v300h200v-300h100v300h300v-100h100v-200h-100v200z" />
    <glyph glyph-name="uni01B3" unicode="&#x1b4;" 
d="M664 600h-100v-200h-100v-100h-100v-300h-100v300h-101v100h-99v300h200v-300h100v300h300v-100h100v-200h-100v200z" />
    <glyph glyph-name="uni01F4" unicode="&#x1f4;" 
d="M764 0h-500v102h-100v98h-100v300h100v100h100v100h500v-100h-400v-100h-100v-300h100v-100h200v200h-100v100h300v-400zM367 800v100h100v100h200v-100h-100v-100h-200z" />
    <glyph glyph-name="uni01F4" unicode="&#x1f5;" 
d="M764 0h-500v102h-100v98h-100v300h100v100h100v100h500v-100h-400v-100h-100v-300h100v-100h200v200h-100v100h300v-400zM367 800v100h100v100h200v-100h-100v-100h-200z" />
    <glyph glyph-name="uni01F8" unicode="&#x1f8;" 
d="M764 0h-200v100h-100v100h-100v100h-100v-300h-200v700h200v-100h100v-100h100v-100h100v300h200v-700zM364 800v100h-100v100h200v-100h100v-100h-200z" />
    <glyph glyph-name="uni01F8" unicode="&#x1f9;" 
d="M764 0h-200v100h-100v100h-100v100h-100v-300h-200v700h200v-100h100v-100h100v-100h100v300h200v-700zM364 800v100h-100v100h200v-100h100v-100h-200z" />
    <glyph glyph-name="uni0241" unicode="&#x241;" 
d="M764 300h-200v-100h-100v-200h-169v300h169v100h100v200h-300v-100h-200v100h100v100h500v-100h100v-300z" />
    <glyph glyph-name="uni0241" unicode="&#x242;" 
d="M764 300h-200v-100h-100v-200h-169v300h169v100h100v200h-300v-100h-200v100h100v100h500v-100h100v-300z" />
    <glyph glyph-name="uni024C" unicode="&#x24c;" 
d="M764 0h-300v100h-100v-100h-200v200h-100v100h100v400h500v-100h100v-300h-200v-100h100v-100h100v-100zM564 400v200h-200v-300h100v100h100z" />
    <glyph glyph-name="uni024C" unicode="&#x24d;" 
d="M764 0h-300v100h-100v-100h-200v200h-100v100h100v400h500v-100h100v-300h-200v-100h100v-100h100v-100zM564 400v200h-200v-300h100v100h100z" />
    <glyph glyph-name="circumflex" unicode="&#x2c6;" 
d="M164 800v100h100v100h300v-100h100v-100h-200v100h-100v-100h-200z" />
    <glyph glyph-name="caron" unicode="&#x2c7;" 
d="M664 1000v-100h-100v-100h-300v100h-100v100h200v-100h100v100h200z" />
    <glyph glyph-name="breve" unicode="&#x2d8;" 
d="M614 1000v-200h-400v200h100v-100h200v100h100z" />
    <glyph glyph-name="dotaccent" unicode="&#x2d9;" 
d="M314 1000h200v-200h-200v200z" />
    <glyph glyph-name="ring" unicode="&#x2da;" 
d="M564 700h-300v300h300v-300zM464 800v100h-100v-100h100z" />
    <glyph glyph-name="ogonek" unicode="&#x2db;" 
d="M264 -200v200h100v-100h200v-100h-300z" />
    <glyph glyph-name="tilde" unicode="&#x2dc;" 
d="M214 800v100h100v100h100v-100h-100v-100h-100zM414 800v100h100v100h100v-100h-100v-100h-100z" />
    <glyph glyph-name="hungarumlaut" unicode="&#x2dd;" 
d="M114 800v100h100v100h200v-100h-100v-100h-200zM414 800v100h100v100h200v-100h-100v-100h-200z" />
    <glyph glyph-name="gravecomb" unicode="&#x300;" horiz-adv-x="0" 
d="M-464 800v100h-100v100h200v-100h100v-100h-200z" />
    <glyph glyph-name="acutecomb" unicode="&#x301;" horiz-adv-x="0" 
d="M-564 800v100h100v100h200v-100h-100v-100h-200z" />
    <glyph glyph-name="uni0302" unicode="&#x302;" horiz-adv-x="0" 
d="M-664 800v100h100v100h300v-100h100v-100h-200v100h-100v-100h-200z" />
    <glyph glyph-name="tildecomb" unicode="&#x303;" horiz-adv-x="0" 
d="M-614 800v100h100v100h100v-100h-100v-100h-100zM-414 800v100h100v100h100v-100h-100v-100h-100z" />
    <glyph glyph-name="uni0304" unicode="&#x304;" horiz-adv-x="0" 
d="M-564 800v100h300v-100h-300z" />
    <glyph glyph-name="uni0306" unicode="&#x306;" horiz-adv-x="0" 
d="M-214 1000v-200h-400v200h100v-100h200v100h100z" />
    <glyph glyph-name="uni0307" unicode="&#x307;" horiz-adv-x="0" 
d="M-514 1000h200v-200h-200v200z" />
    <glyph glyph-name="uni0308" unicode="&#x308;" horiz-adv-x="0" 
d="M-164 1000v-200h-200v200h200zM-664 1000h200v-200h-200v200z" />
    <glyph glyph-name="hookabovecomb" unicode="&#x309;" horiz-adv-x="0" 
d="M-564 1000h300v-200h-100v100h-200v100zM-464 800h100v-100h-100v100z" />
    <glyph glyph-name="uni030A" unicode="&#x30a;" horiz-adv-x="0" 
d="M-264 700h-300v300h300v-300zM-364 800v100h-100v-100h100z" />
    <glyph glyph-name="uni030B" unicode="&#x30b;" horiz-adv-x="0" 
d="M-714 800v100h100v100h200v-100h-100v-100h-200zM-414 800v100h100v100h200v-100h-100v-100h-200z" />
    <glyph glyph-name="uni030C" unicode="&#x30c;" horiz-adv-x="0" 
d="M-164 1000v-100h-100v-100h-300v100h-100v100h200v-100h100v100h200z" />
    <glyph glyph-name="uni0313" unicode="&#x313;" horiz-adv-x="0" 
d="M-514 900h100v-100h-100v100zM-414 1000h100v-100h-100v100z" />
    <glyph glyph-name="uni031B" unicode="&#x31b;" horiz-adv-x="0" 
d="M-514 700h100v100h100v-200h-200v100z" />
    <glyph glyph-name="dotbelowcomb" unicode="&#x323;" horiz-adv-x="0" 
d="M-514 0h200v-200h-200v200z" />
    <glyph glyph-name="uni0326" unicode="&#x326;" horiz-adv-x="0" 
d="M-564 -200v100h100v100h200v-100h-100v-100h-200z" />
    <glyph glyph-name="uni0328" unicode="&#x328;" horiz-adv-x="0" 
d="M-564 -200v200h100v-100h200v-100h-300z" />
    <glyph glyph-name="uni032D" unicode="&#x32d;" horiz-adv-x="0" 
d="M-664 -200v100h100v100h300v-100h100v-100h-200v100h-100v-100h-200z" />
    <glyph glyph-name="uni0375" unicode="&#x375;" horiz-adv-x="0" 
d="M-564 -100v100h100v100h200v-100h-100v-100h-200z" />
    <glyph glyph-name="tonos" unicode="&#x384;" 
d="M364 500v300h100v-300h-100z" />
    <glyph glyph-name="dieresistonos" unicode="&#x385;" 
d="M64 700h200v-200h-200v200zM364 500v300h100v-300h-100zM564 700h200v-200h-200v200z" />
    <glyph glyph-name="Alphatonos" unicode="&#x386;" 
d="M764 0h-200v200h-200v-200h-200v500h100v100h100v100h200v-100h100v-100h100v-500zM564 300v200h-200v-200h200zM64 500v300h100v-300h-100z" />
    <glyph glyph-name="Alphatonos" unicode="&#x3ac;" 
d="M764 0h-200v200h-200v-200h-200v500h100v100h100v100h200v-100h100v-100h100v-500zM564 300v200h-200v-200h200zM64 500v300h100v-300h-100z" />
    <glyph glyph-name="anoteleia" unicode="&#x387;" 
d="M514 400h-200v200h200v-200z" />
    <glyph glyph-name="Epsilontonos" unicode="&#x388;" 
d="M64 500v300h100v-300h-100zM764 0h-500v700h500v-100h-300v-200h200v-100h-200v-200h300v-100z" />
    <glyph glyph-name="Epsilontonos" unicode="&#x3ad;" 
d="M64 500v300h100v-300h-100zM764 0h-500v700h500v-100h-300v-200h200v-100h-200v-200h300v-100z" />
    <glyph glyph-name="Etatonos" unicode="&#x389;" 
d="M64 500v300h100v-300h-100zM764 0h-200v300h-100v-300h-200v700h200v-300h100v300h200v-700z" />
    <glyph glyph-name="Etatonos" unicode="&#x3ae;" 
d="M64 500v300h100v-300h-100zM764 0h-200v300h-100v-300h-200v700h200v-300h100v300h200v-700z" />
    <glyph glyph-name="Iotatonos" unicode="&#x38a;" 
d="M64 500v300h100v-300h-100zM764 600h-200v-500h200v-100h-600v100h200v500h-100v100h500v-100z" />
    <glyph glyph-name="Iotatonos" unicode="&#x3af;" 
d="M64 500v300h100v-300h-100zM764 600h-200v-500h200v-100h-600v100h200v500h-100v100h500v-100z" />
    <glyph glyph-name="Omicrontonos" unicode="&#x38c;" 
d="M64 500v300h100v-300h-100zM764 100h-100v-100h-300v100h-100v500h100v100h300v-100h100v-500zM564 100v500h-100v-500h100z" />
    <glyph glyph-name="Omicrontonos" unicode="&#x3cc;" 
d="M64 500v300h100v-300h-100zM764 100h-100v-100h-300v100h-100v500h100v100h300v-100h100v-500zM564 100v500h-100v-500h100z" />
    <glyph glyph-name="Upsilontonos" unicode="&#x38e;" 
d="M64 500v300h100v-300h-100zM764 400h-100v-100h-100v-300h-100v300h-101v100h-99v300h200v-300h100v300h200v-300z" />
    <glyph glyph-name="Upsilontonos" unicode="&#x3cd;" 
d="M64 500v300h100v-300h-100zM764 400h-100v-100h-100v-300h-100v300h-101v100h-99v300h200v-300h100v300h200v-300z" />
    <glyph glyph-name="Omegatonos" unicode="&#x38f;" 
d="M464 600v-600h-200v100h100v100h-100v400h100v100h300v-100h100v-400h-100v-100h100v-100h-200v600h-100zM64 500v300h100v-300h-100z" />
    <glyph glyph-name="Omegatonos" unicode="&#x3ce;" 
d="M464 600v-600h-200v100h100v100h-100v400h100v100h300v-100h100v-400h-100v-100h100v-100h-200v600h-100zM64 500v300h100v-300h-100z" />
    <glyph glyph-name="iotadieresistonos" unicode="&#x390;" 
d="M64 500v300h100v-300h-100zM764 600h-200v-500h200v-100h-600v100h200v500h-100v100h500v-100zM764 1000v-200h-200v200h200zM264 1000h200v-200h-200v200z" />
    <glyph glyph-name="uni0413" unicode="&#x393;" 
d="M764 600h-500v-600h-200v700h700v-100z" />
    <glyph glyph-name="uni0413" unicode="&#x433;" 
d="M764 600h-500v-600h-200v700h700v-100z" />
    <glyph glyph-name="uni0413" unicode="&#x413;" 
d="M764 600h-500v-600h-200v700h700v-100z" />
    <glyph glyph-name="uni0413" unicode="&#x3b3;" 
d="M764 600h-500v-600h-200v700h700v-100z" />
    <glyph glyph-name="Delta" unicode="&#x394;" 
d="M764 0h-700v500h100v100h100v100h300v-100h100v-100h100v-500zM564 100v400h-100v100h-100v-100h-100v-400h300z" />
    <glyph glyph-name="Delta" unicode="&#x3b4;" 
d="M764 0h-700v500h100v100h100v100h300v-100h100v-100h100v-500zM564 100v400h-100v100h-100v-100h-100v-400h300z" />
    <glyph glyph-name="Lambda" unicode="&#x39b;" 
d="M764 0h-200v500h-100v100h-100v-100h-100v-500h-200v500h100v100h100v100h300v-100h100v-100h100v-500z" />
    <glyph glyph-name="Lambda" unicode="&#x3bb;" 
d="M764 0h-200v500h-100v100h-100v-100h-100v-500h-200v500h100v100h100v100h300v-100h100v-100h100v-500z" />
    <glyph glyph-name="Xi" unicode="&#x39e;" 
d="M564 600h-300v-100h-200v200h700v-200h-200v100zM764 0h-700v200h200v-100h300v100h200v-200zM164 300v100h500v-100h-500z" />
    <glyph glyph-name="Xi" unicode="&#x3be;" 
d="M564 600h-300v-100h-200v200h700v-200h-200v100zM764 0h-700v200h200v-100h300v100h200v-200zM164 300v100h500v-100h-500z" />
    <glyph glyph-name="uni041F" unicode="&#x3a0;" 
d="M764 0h-200v600h-300v-600h-200v700h700v-700z" />
    <glyph glyph-name="uni041F" unicode="&#x43f;" 
d="M764 0h-200v600h-300v-600h-200v700h700v-700z" />
    <glyph glyph-name="uni041F" unicode="&#x41f;" 
d="M764 0h-200v600h-300v-600h-200v700h700v-700z" />
    <glyph glyph-name="Sigma" unicode="&#x3a3;" 
d="M64 100h100v100h100v100h100v100h-100v100h-100v100h-100v100h700v-100h-400v-100h100v-100h100v-100h-100v-100h-100v-100h400v-100h-700v100z" />
    <glyph glyph-name="Sigma" unicode="&#x3c3;" 
d="M64 100h100v100h100v100h100v100h-100v100h-100v100h-100v100h700v-100h-400v-100h100v-100h100v-100h-100v-100h-100v-100h400v-100h-700v100z" />
    <glyph glyph-name="Sigma" unicode="&#x3c2;" 
d="M64 100h100v100h100v100h100v100h-100v100h-100v100h-100v100h700v-100h-400v-100h100v-100h100v-100h-100v-100h-100v-100h400v-100h-700v100z" />
    <glyph glyph-name="uni0424" unicode="&#x3a6;" 
d="M164 200h-100v300h100v100h200v100h100v-100h200v-100h100v-300h-100v-100h-200v-100h-100v100h-200v100zM564 500h-100v-300h100v300zM264 200h100v300h-100v-300z" />
    <glyph glyph-name="uni0424" unicode="&#x444;" 
d="M164 200h-100v300h100v100h200v100h100v-100h200v-100h100v-300h-100v-100h-200v-100h-100v100h-200v100zM564 500h-100v-300h100v300zM264 200h100v300h-100v-300z" />
    <glyph glyph-name="uni0424" unicode="&#x424;" 
d="M164 200h-100v300h100v100h200v100h100v-100h200v-100h100v-300h-100v-100h-200v-100h-100v100h-200v100zM564 500h-100v-300h100v300zM264 200h100v300h-100v-300z" />
    <glyph glyph-name="uni0424" unicode="&#x3c6;" 
d="M164 200h-100v300h100v100h200v100h100v-100h200v-100h100v-300h-100v-100h-200v-100h-100v100h-200v100zM564 500h-100v-300h100v300zM264 200h100v300h-100v-300z" />
    <glyph glyph-name="Psi" unicode="&#x3a8;" 
d="M364 200h-200v100h-100v400h200v-400h100v400h100v-400h100v400h200v-400h-100v-100h-200v-200h-100v200z" />
    <glyph glyph-name="Psi" unicode="&#x3c8;" 
d="M364 200h-200v100h-100v400h200v-400h100v400h100v-400h100v400h200v-400h-100v-100h-200v-200h-100v200z" />
    <glyph glyph-name="Omega" unicode="&#x3a9;" 
d="M264 600v-400h100v-200h-300v100h100v100h-100v400h100v100h500v-100h100v-400h-100v-100h100v-100h-300v200h100v400h-300z" />
    <glyph glyph-name="Omega" unicode="&#x2126;" 
d="M264 600v-400h100v-200h-300v100h100v100h-100v400h100v100h500v-100h100v-400h-100v-100h100v-100h-300v200h100v400h-300z" />
    <glyph glyph-name="Omega" unicode="&#x3c9;" 
d="M264 600v-400h100v-200h-300v100h100v100h-100v400h100v100h500v-100h100v-400h-100v-100h100v-100h-300v200h100v400h-300z" />
    <glyph glyph-name="upsilondieresistonos" unicode="&#x3b0;" 
d="M764 1000v-200h-200v200h200zM264 1000h200v-200h-200v200zM64 500v300h100v-300h-100zM764 400h-100v-100h-100v-300h-100v300h-101v100h-99v300h200v-300h100v300h200v-300z" />
    <glyph glyph-name="pi" unicode="&#x3c0;" 
d="M664 100h100v-100h-200v100h-100v300h-100v-400h-200v400h-100v100h700v-100h-100v-300z" />
    <glyph glyph-name="uni0402" unicode="&#x402;" 
d="M364 -100h200v400h-200v-300h-200v600h-100v100h500v-100h-200v-200h300v-100h100v-400h-100v-100h-300v100z" />
    <glyph glyph-name="uni0402" unicode="&#x452;" 
d="M364 -100h200v400h-200v-300h-200v600h-100v100h500v-100h-200v-200h300v-100h100v-400h-100v-100h-300v100z" />
    <glyph glyph-name="uni0403" unicode="&#x403;" 
d="M764 600h-500v-600h-200v700h700v-100zM364 800v100h100v100h200v-100h-100v-100h-200z" />
    <glyph glyph-name="uni0403" unicode="&#x453;" 
d="M764 600h-500v-600h-200v700h700v-100zM364 800v100h100v100h200v-100h-100v-100h-200z" />
    <glyph glyph-name="uni0404" unicode="&#x404;" 
d="M764 100h-100v-100h-400v100h-100v100h-100v300h100v100h100v100h400v-100h100v-100h-200v100h-200v-100h-100v-100h300v-100h-300v-100h100v-100h200v100h200v-100z" />
    <glyph glyph-name="uni0404" unicode="&#x454;" 
d="M764 100h-100v-100h-400v100h-100v100h-100v300h100v100h100v100h400v-100h100v-100h-200v100h-200v-100h-100v-100h300v-100h-300v-100h100v-100h200v100h200v-100z" />
    <glyph glyph-name="uni0409" unicode="&#x409;" 
d="M764 100h-100v-100h-300v600h-100v-600h-200v100h100v600h300v-300h200v-100h100v-200zM464 300v-200h100v200h-100z" />
    <glyph glyph-name="uni0409" unicode="&#x459;" 
d="M764 100h-100v-100h-300v600h-100v-600h-200v100h100v600h300v-300h200v-100h100v-200zM464 300v-200h100v200h-100z" />
    <glyph glyph-name="uni040A" unicode="&#x40a;" 
d="M364 300h-100v-292h-200v692h200v-300h100v300h100v-300h200v-100h100v-200h-100v-100h-300v300zM464 100h100v200h-100v-200z" />
    <glyph glyph-name="uni040A" unicode="&#x45a;" 
d="M364 300h-100v-292h-200v692h200v-300h100v300h100v-300h200v-100h100v-200h-100v-100h-300v300zM464 100h100v200h-100v-200z" />
    <glyph glyph-name="uni040B" unicode="&#x40b;" 
d="M764 0h-200v300h-200v-300h-200v600h-100v100h500v-100h-200v-200h300v-100h100v-300z" />
    <glyph glyph-name="uni040B" unicode="&#x45b;" 
d="M764 0h-200v300h-200v-300h-200v600h-100v100h500v-100h-200v-200h300v-100h100v-300z" />
    <glyph glyph-name="uni040C" unicode="&#x40c;" 
d="M764 0h-300v100h-100v100h-100v-200h-200v700h200v-300h100v100h100v100h100v100h200v-100h-100v-100h-100v-100h-100v-100h100v-100h100v-100h100v-100zM264 800v100h100v100h200v-100h-100v-100h-200z" />
    <glyph glyph-name="uni040C" unicode="&#x45c;" 
d="M764 0h-300v100h-100v100h-100v-200h-200v700h200v-300h100v100h100v100h100v100h200v-100h-100v-100h-100v-100h-100v-100h100v-100h100v-100h100v-100zM264 800v100h100v100h200v-100h-100v-100h-200z" />
    <glyph glyph-name="uni040D" unicode="&#x40d;" 
d="M64 700h200v-300h100v100h100v100h100v100h200v-700h-200v300h-100v-100h-100v-100h-100v-100h-200v700zM264 800v100h-100v100h200v-100h100v-100h-200z" />
    <glyph glyph-name="uni040D" unicode="&#x45d;" 
d="M64 700h200v-300h100v100h100v100h100v100h200v-700h-200v300h-100v-100h-100v-100h-100v-100h-200v700zM264 800v100h-100v100h200v-100h100v-100h-200z" />
    <glyph glyph-name="uni040E" unicode="&#x40e;" 
d="M64 200h200v-100h300v200h-400v100h-100v300h200v-300h300v300h200v-600h-100v-100h-500v100h-100v100zM614 1000v-200h-400v200h100v-100h200v100h100z" />
    <glyph glyph-name="uni040E" unicode="&#x45e;" 
d="M64 200h200v-100h300v200h-400v100h-100v300h200v-300h300v300h200v-600h-100v-100h-500v100h-100v100zM614 1000v-200h-400v200h100v-100h200v100h100z" />
    <glyph glyph-name="uni040F" unicode="&#x40f;" 
d="M364 0h-300v700h200v-600h300v600h200v-700h-300v-200h-100v200z" />
    <glyph glyph-name="uni040F" unicode="&#x45f;" 
d="M364 0h-300v700h200v-600h300v600h200v-700h-300v-200h-100v200z" />
    <glyph glyph-name="uni0411" unicode="&#x411;" 
d="M764 100h-100v-100h-600v700h500v-100h-300v-200h400v-100h100v-200zM264 300v-200h300v200h-300z" />
    <glyph glyph-name="uni0411" unicode="&#x431;" 
d="M764 100h-100v-100h-600v700h500v-100h-300v-200h400v-100h100v-200zM264 300v-200h300v200h-300z" />
    <glyph glyph-name="uni0414" unicode="&#x414;" 
d="M164 -200h-100v300h100v100h100v500h400v-600h100v-300h-100v200h-500v-200zM364 100h100v500h-100v-500z" />
    <glyph glyph-name="uni0414" unicode="&#x434;" 
d="M164 -200h-100v300h100v100h100v500h400v-600h100v-300h-100v200h-500v-200zM364 100h100v500h-100v-500z" />
    <glyph glyph-name="uni0416" unicode="&#x416;" 
d="M564 400v-100h100v-100h100v-200h-100v100h-100v100h-100v-200h-100v200h-100v-100h-100v-100h-100v200h100v100h100v100h-100v100h-100v200h100v-100h100v-100h100v200h100v-200h100v100h100v100h100v-200h-100v-100h-100z" />
    <glyph glyph-name="uni0416" unicode="&#x436;" 
d="M564 400v-100h100v-100h100v-200h-100v100h-100v100h-100v-200h-100v200h-100v-100h-100v-100h-100v200h100v100h100v100h-100v100h-100v200h100v-100h100v-100h100v200h100v-200h100v100h100v100h100v-200h-100v-100h-100z" />
    <glyph glyph-name="uni0417" unicode="&#x417;" 
d="M564 600h-300v-100h-200v100h100v100h500v-100h100v-200h-100v-100h100v-200h-100v-100h-500v100h-100v100h200v-100h300v200h-300v100h300v200z" />
    <glyph glyph-name="uni0417" unicode="&#x437;" 
d="M564 600h-300v-100h-200v100h100v100h500v-100h100v-200h-100v-100h100v-200h-100v-100h-500v100h-100v100h200v-100h300v200h-300v100h300v200z" />
    <glyph glyph-name="uni0418" unicode="&#x418;" 
d="M64 700h200v-300h100v100h100v100h100v100h200v-700h-200v300h-100v-100h-100v-100h-100v-100h-200v700z" />
    <glyph glyph-name="uni0418" unicode="&#x438;" 
d="M64 700h200v-300h100v100h100v100h100v100h200v-700h-200v300h-100v-100h-100v-100h-100v-100h-200v700z" />
    <glyph glyph-name="uni0419" unicode="&#x419;" 
d="M64 700h200v-300h100v100h100v100h100v100h200v-700h-200v300h-100v-100h-100v-100h-100v-100h-200v700zM614 1000v-200h-400v200h100v-100h200v100h100z" />
    <glyph glyph-name="uni0419" unicode="&#x439;" 
d="M64 700h200v-300h100v100h100v100h100v100h200v-700h-200v300h-100v-100h-100v-100h-100v-100h-200v700zM614 1000v-200h-400v200h100v-100h200v100h100z" />
    <glyph glyph-name="uni041B" unicode="&#x41b;" 
d="M364 100h-100v-100h-200v100h100v100h100v500h500v-700h-200v600h-200v-500z" />
    <glyph glyph-name="uni041B" unicode="&#x43b;" 
d="M364 100h-100v-100h-200v100h100v100h100v500h500v-700h-200v600h-200v-500z" />
    <glyph glyph-name="uni0423" unicode="&#x423;" 
d="M64 200h200v-100h300v200h-400v100h-100v300h200v-300h300v300h200v-600h-100v-100h-500v100h-100v100z" />
    <glyph glyph-name="uni0423" unicode="&#x443;" 
d="M64 200h200v-100h300v200h-400v100h-100v300h200v-300h300v300h200v-600h-100v-100h-500v100h-100v100z" />
    <glyph glyph-name="uni0426" unicode="&#x426;" 
d="M664 0h-600v700h200v-600h200v600h200v-600h100v-300h-100v200z" />
    <glyph glyph-name="uni0426" unicode="&#x446;" 
d="M664 0h-600v700h200v-600h200v600h200v-600h100v-300h-100v200z" />
    <glyph glyph-name="uni0427" unicode="&#x427;" 
d="M64 700h200v-300h300v300h200v-700h-200v300h-400v100h-100v300z" />
    <glyph glyph-name="uni0427" unicode="&#x447;" 
d="M64 700h200v-300h300v300h200v-700h-200v300h-400v100h-100v300z" />
    <glyph glyph-name="uni0428" unicode="&#x428;" 
d="M464 100h100v600h200v-700h-700v700h200v-600h100v600h100v-600z" />
    <glyph glyph-name="uni0428" unicode="&#x448;" 
d="M464 100h100v600h200v-700h-700v700h200v-600h100v600h100v-600z" />
    <glyph glyph-name="uni0429" unicode="&#x429;" 
d="M664 0h-600v700h200v-600h100v600h100v-600h100v600h100v-600h100v-300h-100v200z" />
    <glyph glyph-name="uni0429" unicode="&#x449;" 
d="M664 0h-600v700h200v-600h100v600h100v-600h100v600h100v-600h100v-300h-100v200z" />
    <glyph glyph-name="uni042A" unicode="&#x42a;" 
d="M764 100h-100v-100h-500v600h-100v100h300v-300h300v-100h100v-200zM364 300v-200h200v200h-200z" />
    <glyph glyph-name="uni042A" unicode="&#x44a;" 
d="M764 100h-100v-100h-500v600h-100v100h300v-300h300v-100h100v-200zM364 300v-200h200v200h-200z" />
    <glyph glyph-name="uni042B" unicode="&#x42b;" 
d="M236 300v-200h100v200h-100zM536 100h-100v-100h-400v700h200v-300h200v-100h100v-200zM786 700v-700h-200v700h200z" />
    <glyph glyph-name="uni042B" unicode="&#x44b;" 
d="M236 300v-200h100v200h-100zM536 100h-100v-100h-400v700h200v-300h200v-100h100v-200zM786 700v-700h-200v700h200z" />
    <glyph glyph-name="uni042C" unicode="&#x42c;" 
d="M264 300v-200h300v200h-300zM764 100h-100v-100h-600v700h200v-300h400v-100h100v-200z" />
    <glyph glyph-name="uni042C" unicode="&#x44c;" 
d="M264 300v-200h300v200h-300zM764 100h-100v-100h-600v700h200v-300h400v-100h100v-200z" />
    <glyph glyph-name="uni042D" unicode="&#x42d;" 
d="M64 200h200v-100h200v100h100v100h-300v100h300v100h-100v100h-200v-100h-200v100h100v100h400v-100h100v-100h100v-300h-100v-100h-100v-100h-400v100h-100v100z" />
    <glyph glyph-name="uni042D" unicode="&#x44d;" 
d="M64 200h200v-100h200v100h100v100h-300v100h300v100h-100v100h-200v-100h-200v100h100v100h400v-100h100v-100h100v-300h-100v-100h-100v-100h-400v100h-100v100z" />
    <glyph glyph-name="uni042E" unicode="&#x42e;" 
d="M364 700h300v-100h100v-500h-100v-100h-300v100h-100v200h-100v-300h-100v700h100v-300h100v200h100v100zM564 600h-100v-500h100v500z" />
    <glyph glyph-name="uni042E" unicode="&#x44e;" 
d="M364 700h300v-100h100v-500h-100v-100h-300v100h-100v200h-100v-300h-100v700h100v-300h100v200h100v100zM564 600h-100v-500h100v500z" />
    <glyph glyph-name="uni042F" unicode="&#x42f;" 
d="M64 100h100v100h100v100h-200v300h100v100h600v-700h-200v200h-100v-100h-100v-100h-300v100zM364 400v-100h200v300h-300v-200h100z" />
    <glyph glyph-name="uni042F" unicode="&#x44f;" 
d="M64 100h100v100h100v100h-200v300h100v100h600v-700h-200v200h-100v-100h-100v-100h-300v100zM364 400v-100h200v300h-300v-200h100z" />
    <glyph glyph-name="uni0474" unicode="&#x474;" 
d="M64 700h200v-500h100v500h400v-100h-200v-400h-100v-100h-100v-100h-100v100h-100v100h-100v500z" />
    <glyph glyph-name="uni0474" unicode="&#x475;" 
d="M64 700h200v-500h100v500h400v-100h-200v-400h-100v-100h-100v-100h-100v100h-100v100h-100v500z" />
    <glyph glyph-name="uni048A" unicode="&#x48a;" 
d="M664 0h-100v300h-100v-100h-100v-100h-100v-100h-200v700h200v-300h100v100h100v100h100v100h200v-800h-100v100zM614 1000v-200h-400v200h100v-100h200v100h100zM564 -100h100v-100h-100v100z" />
    <glyph glyph-name="uni048A" unicode="&#x48b;" 
d="M664 0h-100v300h-100v-100h-100v-100h-100v-100h-200v700h200v-300h100v100h100v100h100v100h200v-800h-100v100zM614 1000v-200h-400v200h100v-100h200v100h100zM564 -100h100v-100h-100v100z" />
    <glyph glyph-name="uni048C" unicode="&#x48c;" 
d="M64 600h100v100h200v-100h200v-100h-200v-100h300v-100h100v-200h-100v-100h-500v500h-100v100zM364 300v-200h200v200h-200z" />
    <glyph glyph-name="uni048C" unicode="&#x48d;" 
d="M64 600h100v100h200v-100h200v-100h-200v-100h300v-100h100v-200h-100v-100h-500v500h-100v100zM364 300v-200h200v200h-200z" />
    <glyph glyph-name="uni048E" unicode="&#x48e;" 
d="M564 200h-300v-200h-200v700h600v-100h100v-300h-100v-200h-100v100zM264 500h100v-100h100v-100h100v300h-300v-100zM264 300h100v100h-100v-100z" />
    <glyph glyph-name="uni048E" unicode="&#x48f;" 
d="M564 200h-300v-200h-200v700h600v-100h100v-300h-100v-200h-100v100zM264 500h100v-100h100v-100h100v300h-300v-100zM264 300h100v100h-100v-100z" />
    <glyph glyph-name="uni0490" unicode="&#x490;" 
d="M264 0h-200v700h600v200h100v-300h-500v-600z" />
    <glyph glyph-name="uni0490" unicode="&#x491;" 
d="M264 0h-200v700h600v200h100v-300h-500v-600z" />
    <glyph glyph-name="uni0492" unicode="&#x492;" 
d="M364 0h-200v300h-100v100h100v300h600v-100h-400v-200h200v-100h-200v-300z" />
    <glyph glyph-name="uni0492" unicode="&#x493;" 
d="M364 0h-200v300h-100v100h100v300h600v-100h-400v-200h200v-100h-200v-300z" />
    <glyph glyph-name="uni0494" unicode="&#x494;" 
d="M264 -100h300v400h-300v-300h-200v700h500v-100h-300v-200h400v-100h100v-400h-100v-100h-400v100z" />
    <glyph glyph-name="uni0494" unicode="&#x495;" 
d="M264 -100h300v400h-300v-300h-200v700h500v-100h-300v-200h400v-100h100v-400h-100v-100h-400v100z" />
    <glyph glyph-name="uni0496" unicode="&#x496;" 
d="M564 400v-100h100v-100h100v-400h-100v300h-100v100h-100v-200h-100v200h-100v-100h-100v-100h-100v200h100v100h100v100h-100v100h-100v200h100v-100h100v-100h100v200h100v-200h100v100h100v100h100v-200h-100v-100h-100z" />
    <glyph glyph-name="uni0496" unicode="&#x497;" 
d="M564 400v-100h100v-100h100v-400h-100v300h-100v100h-100v-200h-100v200h-100v-100h-100v-100h-100v200h100v100h100v100h-100v100h-100v200h100v-100h100v-100h100v200h100v-200h100v100h100v100h100v-200h-100v-100h-100z" />
    <glyph glyph-name="uni0498" unicode="&#x498;" 
d="M264 -200v200h-100v100h-100v100h200v-100h300v200h-300v100h300v200h-300v-100h-200v100h100v100h500v-100h100v-200h-100v-100h100v-200h-100v-100h-300v-100h200v-100h-300z" />
    <glyph glyph-name="uni0498" unicode="&#x499;" 
d="M264 -200v200h-100v100h-100v100h200v-100h300v200h-300v100h300v200h-300v-100h-200v100h100v100h500v-100h100v-200h-100v-100h100v-200h-100v-100h-300v-100h200v-100h-300z" />
    <glyph glyph-name="uni049A" unicode="&#x49a;" 
d="M664 0h-200v100h-100v100h-100v-200h-200v700h200v-300h100v100h100v100h100v100h200v-100h-100v-100h-100v-100h-100v-100h100v-100h100v-100h100v-300h-100v200z" />
    <glyph glyph-name="uni049A" unicode="&#x49b;" 
d="M664 0h-200v100h-100v100h-100v-200h-200v700h200v-300h100v100h100v100h100v100h200v-100h-100v-100h-100v-100h-100v-100h100v-100h100v-100h100v-300h-100v200z" />
    <glyph glyph-name="uni049C" unicode="&#x49c;" 
d="M264 300h-100v-300h-100v700h100v-300h100v200h100v-200h100v-100h100v-100h100v-100h100v-100h-100v100h-100v100h-100v100h-100v-200h-100v200zM464 400v100h100v-100h-100zM564 500v100h100v-100h-100zM664 600v100h100v-100h-100z" />
    <glyph glyph-name="uni049C" unicode="&#x49d;" 
d="M264 300h-100v-300h-100v700h100v-300h100v200h100v-200h100v-100h100v-100h100v-100h100v-100h-100v100h-100v100h-100v100h-100v-200h-100v200zM464 400v100h100v-100h-100zM564 500v100h100v-100h-100zM664 600v100h100v-100h-100z" />
    <glyph glyph-name="uni049E" unicode="&#x49e;" 
d="M64 600h100v100h100v-100h100v-100h100v100h100v100h200v-100h-100v-100h-100v-100h-100v-100h100v-100h100v-100h100v-100h-300v100h-100v100h-100v-200h-100v500h-100v100zM364 500h-100v-100h100v100z" />
    <glyph glyph-name="uni049E" unicode="&#x49f;" 
d="M64 600h100v100h100v-100h100v-100h100v100h100v100h200v-100h-100v-100h-100v-100h-100v-100h100v-100h100v-100h100v-100h-300v100h-100v100h-100v-200h-100v500h-100v100zM364 500h-100v-100h100v100z" />
    <glyph glyph-name="uni04A0" unicode="&#x4a0;" 
d="M764 0h-300v100h-100v100h-100v-200h-100v600h-100v100h200v-300h100v100h100v100h100v100h200v-100h-100v-100h-100v-100h-100v-100h100v-100h100v-100h100v-100z" />
    <glyph glyph-name="uni04A0" unicode="&#x4a1;" 
d="M764 0h-300v100h-100v100h-100v-200h-100v600h-100v100h200v-300h100v100h100v100h100v100h200v-100h-100v-100h-100v-100h-100v-100h100v-100h100v-100h100v-100z" />
    <glyph glyph-name="uni04A2" unicode="&#x4a2;" 
d="M664 0h-200v300h-200v-300h-200v700h200v-300h200v300h200v-600h100v-300h-100v200z" />
    <glyph glyph-name="uni04A2" unicode="&#x4a3;" 
d="M664 0h-200v300h-200v-300h-200v700h200v-300h200v300h200v-600h100v-300h-100v200z" />
    <glyph glyph-name="uni04A4" unicode="&#x4a4;" 
d="M64 700h300v-300h200v300h200v-700h-200v300h-200v-300h-200v600h-100v100z" />
    <glyph glyph-name="uni04A4" unicode="&#x4a5;" 
d="M64 700h300v-300h200v300h200v-700h-200v300h-200v-300h-200v600h-100v100z" />
    <glyph glyph-name="uni04A6" unicode="&#x4a6;" 
d="M364 -100h200v400h-100v-300h-100v600h-100v-600h-200v700h400v-300h200v-100h100v-400h-100v-100h-300v100z" />
    <glyph glyph-name="uni04A6" unicode="&#x4a7;" 
d="M364 -100h200v400h-100v-300h-100v600h-100v-600h-200v700h400v-300h200v-100h100v-400h-100v-100h-300v100z" />
    <glyph glyph-name="uni04A8" unicode="&#x4a8;" 
d="M164 100h-100v500h100v100h400v-100h-300v-500h200v-100h-300v100zM464 100v100h-100v200h100v-200h200v-100h100v-100h-100v100h-200zM464 400v100h200v-100h-200zM764 400v-200h-100v200h100z" />
    <glyph glyph-name="uni04A8" unicode="&#x4a9;" 
d="M164 100h-100v500h100v100h400v-100h-300v-500h200v-100h-300v100zM464 100v100h-100v200h100v-200h200v-100h100v-100h-100v100h-200zM464 400v100h200v-100h-200zM764 400v-200h-100v200h100z" />
    <glyph glyph-name="uni04AA" unicode="&#x4aa;" 
d="M364 -200v200h-100v100h-100v100h-100v300h100v100h100v100h400v-100h100v-100h-200v100h-200v-100h-100v-300h100v-100h200v100h200v-100h-100v-100h-200v-100h200v-100h-300z" />
    <glyph glyph-name="uni04AA" unicode="&#x4ab;" 
d="M364 -200v200h-100v100h-100v100h-100v300h100v100h100v100h400v-100h100v-100h-200v100h-200v-100h-100v-300h100v-100h200v100h200v-100h-100v-100h-200v-100h200v-100h-300z" />
    <glyph glyph-name="uni04AC" unicode="&#x4ac;" 
d="M514 0h-200v600h-200v100h600v-100h-200v-500h100v-300h-100v200z" />
    <glyph glyph-name="uni04AC" unicode="&#x4ad;" 
d="M514 0h-200v600h-200v100h600v-100h-200v-500h100v-300h-100v200z" />
    <glyph glyph-name="uni04B0" unicode="&#x4b0;" 
d="M514 100v-100h-200v100h-200v100h200v100h-101v100h-99v300h200v-300h200v300h200v-300h-100v-100h-100v-100h200v-100h-200z" />
    <glyph glyph-name="uni04B0" unicode="&#x4b1;" 
d="M514 100v-100h-200v100h-200v100h200v100h-101v100h-99v300h200v-300h200v300h200v-300h-100v-100h-100v-100h200v-100h-200z" />
    <glyph glyph-name="uni04B2" unicode="&#x4b2;" 
d="M664 0h-100v100h-100v100h-100v-100h-100v-100h-200v200h100v100h100v100h-100v100h-100v200h200v-100h100v-100h100v100h100v100h200v-200h-100v-100h-100v-100h100v-100h100v-400h-100v200z" />
    <glyph glyph-name="uni04B2" unicode="&#x4b3;" 
d="M664 0h-100v100h-100v100h-100v-100h-100v-100h-200v200h100v100h100v100h-100v100h-100v200h200v-100h100v-100h100v100h100v100h200v-200h-100v-100h-100v-100h100v-100h100v-400h-100v200z" />
    <glyph glyph-name="uni04B4" unicode="&#x4b4;" 
d="M664 0h-500v600h-100v100h400v-100h-100v-500h200v600h100v-600h100v-300h-100v200z" />
    <glyph glyph-name="uni04B4" unicode="&#x4b5;" 
d="M664 0h-500v600h-100v100h400v-100h-100v-500h200v600h100v-600h100v-300h-100v200z" />
    <glyph glyph-name="uni04B6" unicode="&#x4b6;" 
d="M664 0h-200v300h-300v100h-100v300h200v-300h200v300h200v-600h100v-300h-100v200z" />
    <glyph glyph-name="uni04B6" unicode="&#x4b7;" 
d="M664 0h-200v300h-300v100h-100v300h200v-300h200v300h200v-600h100v-300h-100v200z" />
    <glyph glyph-name="uni04B8" unicode="&#x4b8;" 
d="M364 300h-200v100h-100v300h200v-300h100v200h100v-200h100v300h200v-700h-200v300h-100v-200h-100v200z" />
    <glyph glyph-name="uni04B8" unicode="&#x4b9;" 
d="M364 300h-200v100h-100v300h200v-300h100v200h100v-200h100v300h200v-700h-200v300h-100v-200h-100v200z" />
    <glyph glyph-name="uni04BA" unicode="&#x4ba;" 
d="M764 0h-200v300h-300v-300h-200v700h200v-300h400v-100h100v-300z" />
    <glyph glyph-name="uni04BA" unicode="&#x4bb;" 
d="M764 0h-200v300h-300v-300h-200v700h200v-300h400v-100h100v-300z" />
    <glyph glyph-name="uni04BC" unicode="&#x4bc;" 
d="M64 500h100v-100h100v200h100v100h300v-100h100v-300h-300v-200h100v100h200v-100h-100v-100h-300v100h-100v200h-200v200zM564 400v200h-100v-200h100z" />
    <glyph glyph-name="uni04BC" unicode="&#x4bd;" 
d="M64 500h100v-100h100v200h100v100h300v-100h100v-300h-300v-200h100v100h200v-100h-100v-100h-300v100h-100v200h-200v200zM564 400v200h-100v-200h100z" />
    <glyph glyph-name="uni04BE" unicode="&#x4be;" 
d="M64 500h100v-100h100v200h100v100h300v-100h100v-300h-300v-200h100v100h200v-100h-100v-100h-100v-200h-100v200h-100v100h-100v200h-200v200zM564 400v200h-100v-200h100z" />
    <glyph glyph-name="uni04BE" unicode="&#x4bf;" 
d="M64 500h100v-100h100v200h100v100h300v-100h100v-300h-300v-200h100v100h200v-100h-100v-100h-100v-200h-100v200h-100v100h-100v200h-200v200zM564 400v200h-100v-200h100z" />
    <glyph glyph-name="uni04C1" unicode="&#x4c1;" 
d="M564 400v-100h100v-100h100v-200h-100v100h-100v100h-100v-200h-100v200h-100v-100h-100v-100h-100v200h100v100h100v100h-100v100h-100v200h100v-100h100v-100h100v200h100v-200h100v100h100v100h100v-200h-100v-100h-100zM614 1000v-200h-400v200h100v-100h200v100h100
z" />
    <glyph glyph-name="uni04C1" unicode="&#x4c2;" 
d="M564 400v-100h100v-100h100v-200h-100v100h-100v100h-100v-200h-100v200h-100v-100h-100v-100h-100v200h100v100h100v100h-100v100h-100v200h100v-100h100v-100h100v200h100v-200h100v100h100v100h100v-200h-100v-100h-100zM614 1000v-200h-400v200h100v-100h200v100h100
z" />
    <glyph glyph-name="uni04C3" unicode="&#x3d7;" 
d="M364 -100h200v100h-100v100h-100v100h-100v-200h-200v700h200v-300h100v100h100v100h100v100h200v-100h-100v-100h-100v-100h-100v-100h100v-100h100v-100h100v-200h-100v-100h-300v100z" />
    <glyph glyph-name="uni04C3" unicode="&#x4c4;" 
d="M364 -100h200v100h-100v100h-100v100h-100v-200h-200v700h200v-300h100v100h100v100h100v100h200v-100h-100v-100h-100v-100h-100v-100h100v-100h100v-100h100v-200h-100v-100h-300v100z" />
    <glyph glyph-name="uni04C3" unicode="&#x4c3;" 
d="M364 -100h200v100h-100v100h-100v100h-100v-200h-200v700h200v-300h100v100h100v100h100v100h200v-100h-100v-100h-100v-100h-100v-100h100v-100h100v-100h100v-200h-100v-100h-300v100z" />
    <glyph glyph-name="uni04C5" unicode="&#x4c5;" 
d="M664 0h-200v600h-100v-500h-100v-100h-200v100h100v100h100v500h400v-600h100v-200h-100v100zM564 -100h100v-100h-100v100z" />
    <glyph glyph-name="uni04C5" unicode="&#x4c6;" 
d="M664 0h-200v600h-100v-500h-100v-100h-200v100h100v100h100v500h400v-600h100v-200h-100v100zM564 -100h100v-100h-100v100z" />
    <glyph glyph-name="uni04C7" unicode="&#x4c7;" 
d="M364 -100h200v400h-300v-300h-200v700h200v-300h300v300h200v-800h-100v-100h-300v100z" />
    <glyph glyph-name="uni04C7" unicode="&#x4c8;" 
d="M364 -100h200v400h-300v-300h-200v700h200v-300h300v300h200v-800h-100v-100h-300v100z" />
    <glyph glyph-name="uni04C9" unicode="&#x4c9;" 
d="M664 0h-200v300h-200v-300h-200v700h200v-300h200v300h200v-600h100v-200h-100v100zM564 -100h100v-100h-100v100z" />
    <glyph glyph-name="uni04C9" unicode="&#x4ca;" 
d="M664 0h-200v300h-200v-300h-200v700h200v-300h200v300h200v-600h100v-200h-100v100zM564 -100h100v-100h-100v100z" />
    <glyph glyph-name="uni04CB" unicode="&#x4cb;" 
d="M664 0h-200v300h-300v100h-100v300h200v-300h200v300h200v-600h100v-200h-100v100zM564 -100h100v-100h-100v100z" />
    <glyph glyph-name="uni04CB" unicode="&#x4cc;" 
d="M664 0h-200v300h-300v100h-100v300h200v-300h200v300h200v-600h100v-200h-100v100zM564 -100h100v-100h-100v100z" />
    <glyph glyph-name="uni04CD" unicode="&#x4cd;" 
d="M664 0h-100v300h-100v-100h-200v100h-100v-300h-100v700h100v-100h100v-100h200v100h100v100h100v-600h100v-200h-100v100zM564 -100h100v-100h-100v100z" />
    <glyph glyph-name="uni04CD" unicode="&#x4ce;" 
d="M664 0h-100v300h-100v-100h-200v100h-100v-300h-100v700h100v-100h100v-100h200v100h100v100h100v-600h100v-200h-100v100zM564 -100h100v-100h-100v100z" />
    <glyph glyph-name="uni04DA" unicode="&#x4da;" 
d="M64 600h100v100h500v-100h100v-500h-100v-100h-500v100h-100v300h500v200h-300v-100h-200v100zM264 300v-200h300v200h-300zM664 1000v-200h-200v200h200zM164 1000h200v-200h-200v200z" />
    <glyph glyph-name="uni04DA" unicode="&#x4db;" 
d="M64 600h100v100h500v-100h100v-500h-100v-100h-500v100h-100v300h500v200h-300v-100h-200v100zM264 300v-200h300v200h-300zM664 1000v-200h-200v200h200zM164 1000h200v-200h-200v200z" />
    <glyph glyph-name="uni04DC" unicode="&#x4dc;" 
d="M564 400v-100h100v-100h100v-200h-100v100h-100v100h-100v-200h-100v200h-100v-100h-100v-100h-100v200h100v100h100v100h-100v100h-100v200h100v-100h100v-100h100v200h100v-200h100v100h100v100h100v-200h-100v-100h-100zM664 1000v-200h-200v200h200zM164 1000h200
v-200h-200v200z" />
    <glyph glyph-name="uni04DC" unicode="&#x4dd;" 
d="M564 400v-100h100v-100h100v-200h-100v100h-100v100h-100v-200h-100v200h-100v-100h-100v-100h-100v200h100v100h100v100h-100v100h-100v200h100v-100h100v-100h100v200h100v-200h100v100h100v100h100v-200h-100v-100h-100zM664 1000v-200h-200v200h200zM164 1000h200
v-200h-200v200z" />
    <glyph glyph-name="uni04DE" unicode="&#x4de;" 
d="M564 600h-300v-100h-200v100h100v100h500v-100h100v-200h-100v-100h100v-200h-100v-100h-500v100h-100v100h200v-100h300v200h-300v100h300v200zM664 1000v-200h-200v200h200zM164 1000h200v-200h-200v200z" />
    <glyph glyph-name="uni04DE" unicode="&#x4df;" 
d="M564 600h-300v-100h-200v100h100v100h500v-100h100v-200h-100v-100h100v-200h-100v-100h-500v100h-100v100h200v-100h300v200h-300v100h300v200zM664 1000v-200h-200v200h200zM164 1000h200v-200h-200v200z" />
    <glyph glyph-name="uni04E2" unicode="&#x4e2;" 
d="M64 700h200v-300h100v100h100v100h100v100h200v-700h-200v300h-100v-100h-100v-100h-100v-100h-200v700zM264 800v100h300v-100h-300z" />
    <glyph glyph-name="uni04E2" unicode="&#x4e3;" 
d="M64 700h200v-300h100v100h100v100h100v100h200v-700h-200v300h-100v-100h-100v-100h-100v-100h-200v700zM264 800v100h300v-100h-300z" />
    <glyph glyph-name="uni04E4" unicode="&#x4e4;" 
d="M64 700h200v-300h100v100h100v100h100v100h200v-700h-200v300h-100v-100h-100v-100h-100v-100h-200v700zM664 1000v-200h-200v200h200zM164 1000h200v-200h-200v200z" />
    <glyph glyph-name="uni04E4" unicode="&#x4e5;" 
d="M64 700h200v-300h100v100h100v100h100v100h200v-700h-200v300h-100v-100h-100v-100h-100v-100h-200v700zM664 1000v-200h-200v200h200zM164 1000h200v-200h-200v200z" />
    <glyph glyph-name="uni04E8" unicode="&#x398;" 
d="M764 100h-100v-100h-500v100h-100v500h100v100h500v-100h100v-500zM264 400h300v200h-300v-200zM564 100v200h-300v-200h300z" />
    <glyph glyph-name="uni04E8" unicode="&#x4e9;" 
d="M764 100h-100v-100h-500v100h-100v500h100v100h500v-100h100v-500zM264 400h300v200h-300v-200zM564 100v200h-300v-200h300z" />
    <glyph glyph-name="uni04E8" unicode="&#x4e8;" 
d="M764 100h-100v-100h-500v100h-100v500h100v100h500v-100h100v-500zM264 400h300v200h-300v-200zM564 100v200h-300v-200h300z" />
    <glyph glyph-name="uni04E8" unicode="&#x473;" 
d="M764 100h-100v-100h-500v100h-100v500h100v100h500v-100h100v-500zM264 400h300v200h-300v-200zM564 100v200h-300v-200h300z" />
    <glyph glyph-name="uni04E8" unicode="&#x472;" 
d="M764 100h-100v-100h-500v100h-100v500h100v100h500v-100h100v-500zM264 400h300v200h-300v-200zM564 100v200h-300v-200h300z" />
    <glyph glyph-name="uni04E8" unicode="&#x3b8;" 
d="M764 100h-100v-100h-500v100h-100v500h100v100h500v-100h100v-500zM264 400h300v200h-300v-200zM564 100v200h-300v-200h300z" />
    <glyph glyph-name="uni04EA" unicode="&#x4ea;" 
d="M764 100h-100v-100h-500v100h-100v500h100v100h500v-100h100v-500zM264 400h300v200h-300v-200zM564 100v200h-300v-200h300zM664 1000v-200h-200v200h200zM164 1000h200v-200h-200v200z" />
    <glyph glyph-name="uni04EA" unicode="&#x4eb;" 
d="M764 100h-100v-100h-500v100h-100v500h100v100h500v-100h100v-500zM264 400h300v200h-300v-200zM564 100v200h-300v-200h300zM664 1000v-200h-200v200h200zM164 1000h200v-200h-200v200z" />
    <glyph glyph-name="uni04EC" unicode="&#x4ec;" 
d="M64 200h200v-100h200v100h100v100h-300v100h300v100h-100v100h-200v-100h-200v100h100v100h400v-100h100v-100h100v-300h-100v-100h-100v-100h-400v100h-100v100zM664 1000v-200h-200v200h200zM164 1000h200v-200h-200v200z" />
    <glyph glyph-name="uni04EC" unicode="&#x4ed;" 
d="M64 200h200v-100h200v100h100v100h-300v100h300v100h-100v100h-200v-100h-200v100h100v100h400v-100h100v-100h100v-300h-100v-100h-100v-100h-400v100h-100v100zM664 1000v-200h-200v200h200zM164 1000h200v-200h-200v200z" />
    <glyph glyph-name="uni04EE" unicode="&#x4ee;" 
d="M64 200h200v-100h300v200h-400v100h-100v300h200v-300h300v300h200v-600h-100v-100h-500v100h-100v100zM264 800v100h300v-100h-300z" />
    <glyph glyph-name="uni04EE" unicode="&#x4ef;" 
d="M64 200h200v-100h300v200h-400v100h-100v300h200v-300h300v300h200v-600h-100v-100h-500v100h-100v100zM264 800v100h300v-100h-300z" />
    <glyph glyph-name="uni04F0" unicode="&#x4f0;" 
d="M64 200h200v-100h300v200h-400v100h-100v300h200v-300h300v300h200v-600h-100v-100h-500v100h-100v100zM664 1000v-200h-200v200h200zM164 1000h200v-200h-200v200z" />
    <glyph glyph-name="uni04F0" unicode="&#x4f1;" 
d="M64 200h200v-100h300v200h-400v100h-100v300h200v-300h300v300h200v-600h-100v-100h-500v100h-100v100zM664 1000v-200h-200v200h200zM164 1000h200v-200h-200v200z" />
    <glyph glyph-name="uni04F2" unicode="&#x4f2;" 
d="M64 200h200v-100h300v200h-400v100h-100v300h200v-300h300v300h200v-600h-100v-100h-500v100h-100v100zM164 800v100h100v100h200v-100h-100v-100h-200zM464 800v100h100v100h200v-100h-100v-100h-200z" />
    <glyph glyph-name="uni04F2" unicode="&#x4f3;" 
d="M64 200h200v-100h300v200h-400v100h-100v300h200v-300h300v300h200v-600h-100v-100h-500v100h-100v100zM164 800v100h100v100h200v-100h-100v-100h-200zM464 800v100h100v100h200v-100h-100v-100h-200z" />
    <glyph glyph-name="uni04F4" unicode="&#x4f4;" 
d="M64 700h200v-300h300v300h200v-700h-200v300h-400v100h-100v300zM664 1000v-200h-200v200h200zM164 1000h200v-200h-200v200z" />
    <glyph glyph-name="uni04F4" unicode="&#x4f5;" 
d="M64 700h200v-300h300v300h200v-700h-200v300h-400v100h-100v300zM664 1000v-200h-200v200h200zM164 1000h200v-200h-200v200z" />
    <glyph glyph-name="uni04F6" unicode="&#x4f6;" 
d="M264 0h-200v700h700v-100h-500v-500h100v-300h-100v200z" />
    <glyph glyph-name="uni04F6" unicode="&#x4f7;" 
d="M264 0h-200v700h700v-100h-500v-500h100v-300h-100v200z" />
    <glyph glyph-name="uni04F8" unicode="&#x4f8;" 
d="M236 300v-200h100v200h-100zM536 100h-100v-100h-400v700h200v-300h200v-100h100v-200zM786 700v-700h-200v700h200zM664 1000v-200h-200v200h200zM164 1000h200v-200h-200v200z" />
    <glyph glyph-name="uni04F8" unicode="&#x4f9;" 
d="M236 300v-200h100v200h-100zM536 100h-100v-100h-400v700h200v-300h200v-100h100v-200zM786 700v-700h-200v700h200zM664 1000v-200h-200v200h200zM164 1000h200v-200h-200v200z" />
    <glyph glyph-name="uni04FA" unicode="&#x4fa;" 
d="M64 -100h100v400h-100v100h100v300h600v-100h-400v-200h200v-100h-200v-400h-100v-100h-200v100z" />
    <glyph glyph-name="uni04FA" unicode="&#x4fb;" 
d="M64 -100h100v400h-100v100h100v300h600v-100h-400v-200h200v-100h-200v-400h-100v-100h-200v100z" />
    <glyph glyph-name="uni04FC" unicode="&#x4fc;" 
d="M764 -100h-100v-100h-300v100h200v200h-100v100h-100v-100h-100v-100h-200v200h100v100h100v100h-100v100h-100v200h200v-100h100v-100h100v100h100v100h200v-200h-100v-100h-100v-100h100v-100h100v-300z" />
    <glyph glyph-name="uni04FC" unicode="&#x4fd;" 
d="M764 -100h-100v-100h-300v100h200v200h-100v100h-100v-100h-100v-100h-200v200h100v100h100v100h-100v100h-100v200h200v-100h100v-100h100v100h100v100h200v-200h-100v-100h-100v-100h100v-100h100v-300z" />
    <glyph glyph-name="uni04FE" unicode="&#x4fe;" 
d="M64 400h100v100h-100v200h200v-100h100v-100h100v100h100v100h200v-200h-100v-100h100v-100h-100v-100h100v-200h-200v100h-100v100h-100v-100h-100v-100h-200v200h100v100h-100v100z" />
    <glyph glyph-name="uni04FE" unicode="&#x4ff;" 
d="M64 400h100v100h-100v200h200v-100h100v-100h100v100h100v100h200v-200h-100v-100h100v-100h-100v-100h100v-200h-200v100h-100v100h-100v-100h-100v-100h-200v200h100v100h-100v100z" />
    <glyph glyph-name="uni0510" unicode="&#x510;" 
d="M264 400h300v-100h-300v-200h300v100h200v-100h-100v-100h-500v100h-100v200h100v100h-100v200h100v100h500v-100h100v-100h-200v100h-300v-200z" />
    <glyph glyph-name="uni0510" unicode="&#x511;" 
d="M264 400h300v-100h-300v-200h300v100h200v-100h-100v-100h-500v100h-100v200h100v100h-100v200h100v100h500v-100h100v-100h-200v100h-300v-200z" />
    <glyph glyph-name="uni0512" unicode="&#x512;" 
d="M364 -100h200v700h-200v-500h-100v-100h-200v100h100v100h100v500h500v-800h-100v-100h-300v100z" />
    <glyph glyph-name="uni0512" unicode="&#x513;" 
d="M364 -100h200v700h-200v-500h-100v-100h-200v100h100v100h100v500h500v-800h-100v-100h-300v100z" />
    <glyph glyph-name="uni0524" unicode="&#x524;" 
d="M664 0h-200v600h-200v-600h-200v700h600v-600h100v-300h-100v200z" />
    <glyph glyph-name="uni0524" unicode="&#x525;" 
d="M664 0h-200v600h-200v-600h-200v700h600v-600h100v-300h-100v200z" />
    <glyph glyph-name="uni0526" unicode="&#x526;" 
d="M664 100h100v-300h-100v200h-200v300h-200v-300h-200v700h200v-300h300v-100h100v-200z" />
    <glyph glyph-name="uni0526" unicode="&#x527;" 
d="M664 100h100v-300h-100v200h-200v300h-200v-300h-200v700h200v-300h300v-100h100v-200z" />
    <glyph glyph-name="uni052E" unicode="&#x52e;" 
d="M664 0h-200v600h-100v-500h-100v-100h-200v100h100v100h100v500h400v-600h100v-300h-100v200z" />
    <glyph glyph-name="uni052E" unicode="&#xf531;" 
d="M664 0h-200v600h-100v-500h-100v-100h-200v100h100v100h100v500h400v-600h100v-300h-100v200z" />
    <glyph glyph-name="uni052E" unicode="&#xf530;" 
d="M664 0h-200v600h-100v-500h-100v-100h-200v100h100v100h100v500h400v-600h100v-300h-100v200z" />
    <glyph glyph-name="uni052E" unicode="&#x52f;" 
d="M664 0h-200v600h-100v-500h-100v-100h-200v100h100v100h100v500h400v-600h100v-300h-100v200z" />
    <glyph glyph-name="uni058F" unicode="&#x58f;" 
d="M64 600h100v100h400v-100h100v-100h100v-100h-100v-100h100v-100h-100v-200h-200v200h-100v100h100v100h-100v100h100v100h-200v-100h-100v-100h-100v200z" />
    <glyph glyph-name="uni1E02" unicode="&#x1e02;" 
d="M764 100h-100v-100h-600v700h600v-100h100v-200h-100v-100h100v-200zM564 400v200h-300v-200h300zM564 100v200h-300v-200h300zM264 1000h200v-200h-200v200z" />
    <glyph glyph-name="uni1E02" unicode="&#x1e03;" 
d="M764 100h-100v-100h-600v700h600v-100h100v-200h-100v-100h100v-200zM564 400v200h-300v-200h300zM564 100v200h-300v-200h300zM264 1000h200v-200h-200v200z" />
    <glyph glyph-name="uni1E0A" unicode="&#x1e0a;" 
d="M764 200h-100v-100h-100v-100h-500v700h500v-100h100v-100h100v-300zM564 200v300h-100v100h-200v-500h200v100h100zM264 1000h200v-200h-200v200z" />
    <glyph glyph-name="uni1E0A" unicode="&#x1e0b;" 
d="M764 200h-100v-100h-100v-100h-500v700h500v-100h100v-100h100v-300zM564 200v300h-100v100h-200v-500h200v100h100zM264 1000h200v-200h-200v200z" />
    <glyph glyph-name="uni1E0C" unicode="&#x1e0c;" 
d="M264 0h-200v700h500v-100h100v-100h100v-300h-100v-100h-100v-100h-100v-200h-200v200zM564 200v300h-100v100h-200v-500h200v100h100z" />
    <glyph glyph-name="uni1E0C" unicode="&#x1e0d;" 
d="M264 0h-200v700h500v-100h100v-100h100v-300h-100v-100h-100v-100h-100v-200h-200v200zM564 200v300h-100v100h-200v-500h200v100h100z" />
    <glyph glyph-name="uni1E12" unicode="&#x1e12;" 
d="M64 -200v100h100v100h-100v700h500v-100h100v-100h100v-300h-100v-100h-100v-100h-100v-100h100v-100h-200v100h-100v-100h-200zM564 200v300h-100v100h-200v-500h200v100h100z" />
    <glyph glyph-name="uni1E12" unicode="&#x1e13;" 
d="M64 -200v100h100v100h-100v700h500v-100h100v-100h100v-300h-100v-100h-100v-100h-100v-100h100v-100h-200v100h-100v-100h-200zM564 200v300h-100v100h-200v-500h200v100h100z" />
    <glyph glyph-name="uni1E1E" unicode="&#x1e1e;" 
d="M764 600h-500v-200h400v-100h-400v-300h-200v700h700v-100zM314 1000h200v-200h-200v200z" />
    <glyph glyph-name="uni1E1E" unicode="&#x1e1f;" 
d="M764 600h-500v-200h400v-100h-400v-300h-200v700h700v-100zM314 1000h200v-200h-200v200z" />
    <glyph glyph-name="uni1E22" unicode="&#x1e22;" 
d="M764 0h-200v300h-300v-300h-200v700h200v-300h300v300h200v-700zM314 1000h200v-200h-200v200z" />
    <glyph glyph-name="uni1E22" unicode="&#x1e23;" 
d="M764 0h-200v300h-300v-300h-200v700h200v-300h300v300h200v-700zM314 1000h200v-200h-200v200z" />
    <glyph glyph-name="uni1E24" unicode="&#x1e24;" 
d="M764 0h-200v300h-300v-300h-200v700h200v-300h300v300h200v-700zM314 0h200v-200h-200v200z" />
    <glyph glyph-name="uni1E24" unicode="&#x1e25;" 
d="M764 0h-200v300h-300v-300h-200v700h200v-300h300v300h200v-700zM314 0h200v-200h-200v200z" />
    <glyph glyph-name="uni1E3C" unicode="&#x1e3c;" 
d="M164 -200v100h100v100h-200v700h200v-600h500v-100h-200v-100h100v-100h-200v100h-100v-100h-200z" />
    <glyph glyph-name="uni1E3C" unicode="&#x1e3d;" 
d="M164 -200v100h100v100h-200v700h200v-600h500v-100h-200v-100h100v-100h-200v100h-100v-100h-200z" />
    <glyph glyph-name="uni1E44" unicode="&#x1e44;" 
d="M764 0h-200v100h-100v100h-100v100h-100v-300h-200v700h200v-100h100v-100h100v-100h100v300h200v-700zM314 1000h200v-200h-200v200z" />
    <glyph glyph-name="uni1E44" unicode="&#x1e45;" 
d="M764 0h-200v100h-100v100h-100v100h-100v-300h-200v700h200v-100h100v-100h100v-100h100v300h200v-700zM314 1000h200v-200h-200v200z" />
    <glyph glyph-name="uni1E4A" unicode="&#x1e4a;" 
d="M764 0h-200v100h-100v100h-100v100h-100v-300h-200v700h200v-100h100v-100h100v-100h100v300h200v-700zM164 -200v100h100v100h300v-100h100v-100h-200v100h-100v-100h-200z" />
    <glyph glyph-name="uni1E4A" unicode="&#x1e4b;" 
d="M764 0h-200v100h-100v100h-100v100h-100v-300h-200v700h200v-100h100v-100h100v-100h100v300h200v-700zM164 -200v100h100v100h300v-100h100v-100h-200v100h-100v-100h-200z" />
    <glyph glyph-name="uni1E56" unicode="&#x1e56;" 
d="M764 300h-100v-100h-400v-200h-200v700h600v-100h100v-300zM564 300v300h-300v-300h300zM314 1000h200v-200h-200v200z" />
    <glyph glyph-name="uni1E56" unicode="&#x1e57;" 
d="M764 300h-100v-100h-400v-200h-200v700h600v-100h100v-300zM564 300v300h-300v-300h300zM314 1000h200v-200h-200v200z" />
    <glyph glyph-name="uni1E5A" unicode="&#x1e5a;" 
d="M764 0h-300v100h-100v100h-100v-200h-200v700h600v-100h100v-300h-200v-100h100v-100h100v-100zM564 400v200h-300v-300h200v100h100zM264 0h200v-200h-200v200z" />
    <glyph glyph-name="uni1E5A" unicode="&#x1e5b;" 
d="M764 0h-300v100h-100v100h-100v-200h-200v700h600v-100h100v-300h-200v-100h100v-100h100v-100zM564 400v200h-300v-300h200v100h100zM264 0h200v-200h-200v200z" />
    <glyph glyph-name="uni1E60" unicode="&#x1e60;" 
d="M764 100h-100v-100h-500v100h-100v100h200v-100h300v200h-400v100h-100v200h100v100h400v-100h100v-100h-200v100h-200v-200h400v-100h100v-200zM264 1000h200v-200h-200v200z" />
    <glyph glyph-name="uni1E60" unicode="&#x1e61;" 
d="M764 100h-100v-100h-500v100h-100v100h200v-100h300v200h-400v100h-100v200h100v100h400v-100h100v-100h-200v100h-200v-200h400v-100h100v-200zM264 1000h200v-200h-200v200z" />
    <glyph glyph-name="uni1E62" unicode="&#x1e62;" 
d="M314 0h-150v100h-100v100h200v-100h300v200h-400v100h-100v200h100v100h400v-100h100v-100h-200v100h-200v-200h400v-100h100v-200h-100v-100h-150v-200h-200v200z" />
    <glyph glyph-name="uni1E62" unicode="&#x1e63;" 
d="M314 0h-150v100h-100v100h200v-100h300v200h-400v100h-100v200h100v100h400v-100h100v-100h-200v100h-200v-200h400v-100h100v-200h-100v-100h-150v-200h-200v200z" />
    <glyph glyph-name="uni1E6A" unicode="&#x1e6a;" 
d="M714 600h-200v-600h-200v600h-200v100h600v-100zM314 1000h200v-200h-200v200z" />
    <glyph glyph-name="uni1E6A" unicode="&#x1e6b;" 
d="M714 600h-200v-600h-200v600h-200v100h600v-100zM314 1000h200v-200h-200v200z" />
    <glyph glyph-name="uni1E6C" unicode="&#x1e6c;" 
d="M314 600h-200v100h600v-100h-200v-800h-200v800z" />
    <glyph glyph-name="uni1E6C" unicode="&#x1e6d;" 
d="M314 600h-200v100h600v-100h-200v-800h-200v800z" />
    <glyph glyph-name="Wgrave" unicode="&#x1e80;" 
d="M764 0h-200v100h-100v100h-100v-100h-100v-100h-200v700h200v-300h100v100h100v-100h100v300h200v-700zM324 800v100h-100v100h200v-100h100v-100h-200z" />
    <glyph glyph-name="Wgrave" unicode="&#x1e81;" 
d="M764 0h-200v100h-100v100h-100v-100h-100v-100h-200v700h200v-300h100v100h100v-100h100v300h200v-700zM324 800v100h-100v100h200v-100h100v-100h-200z" />
    <glyph glyph-name="Wacute" unicode="&#x1e82;" 
d="M764 0h-200v100h-100v100h-100v-100h-100v-100h-200v700h200v-300h100v100h100v-100h100v300h200v-700zM304 800v100h100v100h200v-100h-100v-100h-200z" />
    <glyph glyph-name="Wacute" unicode="&#x1e83;" 
d="M764 0h-200v100h-100v100h-100v-100h-100v-100h-200v700h200v-300h100v100h100v-100h100v300h200v-700zM304 800v100h100v100h200v-100h-100v-100h-200z" />
    <glyph glyph-name="Wdieresis" unicode="&#x1e84;" 
d="M764 0h-200v100h-100v100h-100v-100h-100v-100h-200v700h200v-300h100v100h100v-100h100v300h200v-700zM664 1000v-200h-200v200h200zM164 1000h200v-200h-200v200z" />
    <glyph glyph-name="Wdieresis" unicode="&#x1e85;" 
d="M764 0h-200v100h-100v100h-100v-100h-100v-100h-200v700h200v-300h100v100h100v-100h100v300h200v-700zM664 1000v-200h-200v200h200zM164 1000h200v-200h-200v200z" />
    <glyph glyph-name="uni1E92" unicode="&#x1e92;" 
d="M364 0h-300v200h100v100h100v100h100v100h100v100h-400v100h700v-200h-100v-100h-100v-100h-100v-100h-100v-100h400v-100h-200v-200h-200v200z" />
    <glyph glyph-name="uni1E92" unicode="&#x1e93;" 
d="M364 0h-300v200h100v100h100v100h100v100h100v100h-400v100h700v-200h-100v-100h-100v-100h-100v-100h-100v-100h400v-100h-200v-200h-200v200z" />
    <glyph glyph-name="uni1E9E" unicode="&#x1e9e;" 
d="M464 400h-100v100h100v100h-200v-600h-200v600h100v100h600v-100h-100v-100h-100v-100h100v-100h100v-200h-200v200h-100v100zM364 100h300v-100h-300v100z" />
    <glyph glyph-name="uni1EA0" unicode="&#x1ea0;" 
d="M764 0h-200v200h-300v-200h-200v500h100v100h100v100h300v-100h100v-100h100v-500zM564 300v200h-100v100h-100v-100h-100v-200h300zM312 0h200v-200h-200v200z" />
    <glyph glyph-name="uni1EA0" unicode="&#x1ea1;" 
d="M764 0h-200v200h-300v-200h-200v500h100v100h100v100h300v-100h100v-100h100v-500zM564 300v200h-100v100h-100v-100h-100v-200h300zM312 0h200v-200h-200v200z" />
    <glyph glyph-name="uni1EA2" unicode="&#x1ea2;" 
d="M364 800h100v-100h100v-100h100v-100h100v-500h-200v200h-300v-200h-200v500h100v100h100v100h100v100zM564 300v200h-100v100h-100v-100h-100v-200h300zM264 1000h300v-200h-100v100h-200v100z" />
    <glyph glyph-name="uni1EA2" unicode="&#x1ea3;" 
d="M364 800h100v-100h100v-100h100v-100h100v-500h-200v200h-300v-200h-200v500h100v100h100v100h100v100zM564 300v200h-100v100h-100v-100h-100v-200h300zM264 1000h300v-200h-100v100h-200v100z" />
    <glyph glyph-name="uni1EA4" unicode="&#x1ea4;" 
d="M764 0h-200v200h-300v-200h-200v500h100v100h100v100h300v-100h100v-100h100v-500zM564 300v200h-100v100h-100v-100h-100v-200h300zM227 750v75h75v75h225v-75h75v-75h-150v75h-75v-75h-150zM377 950v75h75v75h150v-75h-75v-75h-150z" />
    <glyph glyph-name="uni1EA4" unicode="&#x1ea5;" 
d="M764 0h-200v200h-300v-200h-200v500h100v100h100v100h300v-100h100v-100h100v-500zM564 300v200h-100v100h-100v-100h-100v-200h300zM227 750v75h75v75h225v-75h75v-75h-150v75h-75v-75h-150zM377 950v75h75v75h150v-75h-75v-75h-150z" />
    <glyph glyph-name="uni1EA6" unicode="&#x1ea6;" 
d="M764 0h-200v200h-300v-200h-200v500h100v100h100v100h300v-100h100v-100h100v-500zM564 300v200h-100v100h-100v-100h-100v-200h300zM228 750v75h75v75h225v-75h75v-75h-150v75h-75v-75h-150zM303 950v75h-75v75h150v-75h75v-75h-150z" />
    <glyph glyph-name="uni1EA6" unicode="&#x1ea7;" 
d="M764 0h-200v200h-300v-200h-200v500h100v100h100v100h300v-100h100v-100h100v-500zM564 300v200h-100v100h-100v-100h-100v-200h300zM228 750v75h75v75h225v-75h75v-75h-150v75h-75v-75h-150zM303 950v75h-75v75h150v-75h75v-75h-150z" />
    <glyph glyph-name="uni1EA8" unicode="&#x1ea8;" 
d="M764 0h-200v200h-300v-200h-200v500h100v100h100v100h300v-100h100v-100h100v-500zM564 300v200h-100v100h-100v-100h-100v-200h300zM228 750v75h75v75h225v-75h75v-75h-150v75h-75v-75h-150zM528 1100h225v-150h-75v75h-150v75zM603 950h75v-75h-75v75z" />
    <glyph glyph-name="uni1EA8" unicode="&#x1ea9;" 
d="M764 0h-200v200h-300v-200h-200v500h100v100h100v100h300v-100h100v-100h100v-500zM564 300v200h-100v100h-100v-100h-100v-200h300zM228 750v75h75v75h225v-75h75v-75h-150v75h-75v-75h-150zM528 1100h225v-150h-75v75h-150v75zM603 950h75v-75h-75v75z" />
    <glyph glyph-name="uni1EAA" unicode="&#x1eaa;" 
d="M764 0h-200v200h-300v-200h-200v500h100v100h100v100h300v-100h100v-100h100v-500zM564 300v200h-100v100h-100v-100h-100v-200h300zM228 750v75h75v75h225v-75h75v-75h-150v75h-75v-75h-150zM264.5 950v75h75v75h75v-75h-75v-75h-75zM414.5 950v75h75v75h75v-75h-75v-75
h-75z" />
    <glyph glyph-name="uni1EAA" unicode="&#x1eab;" 
d="M764 0h-200v200h-300v-200h-200v500h100v100h100v100h300v-100h100v-100h100v-500zM564 300v200h-100v100h-100v-100h-100v-200h300zM228 750v75h75v75h225v-75h75v-75h-150v75h-75v-75h-150zM264.5 950v75h75v75h75v-75h-75v-75h-75zM414.5 950v75h75v75h75v-75h-75v-75
h-75z" />
    <glyph glyph-name="uni1EAC" unicode="&#x1eac;" 
d="M764 0h-200v200h-300v-200h-200v500h100v100h100v100h300v-100h100v-100h100v-500zM564 300v200h-100v100h-100v-100h-100v-200h300zM164 800v100h100v100h300v-100h100v-100h-200v100h-100v-100h-200zM312 0h200v-200h-200v200z" />
    <glyph glyph-name="uni1EAC" unicode="&#x1ead;" 
d="M764 0h-200v200h-300v-200h-200v500h100v100h100v100h300v-100h100v-100h100v-500zM564 300v200h-100v100h-100v-100h-100v-200h300zM164 800v100h100v100h300v-100h100v-100h-200v100h-100v-100h-200zM312 0h200v-200h-200v200z" />
    <glyph glyph-name="uni1EAE" unicode="&#x1eae;" 
d="M764 0h-200v200h-300v-200h-200v500h100v100h100v100h300v-100h100v-100h100v-500zM564 300v200h-100v100h-100v-100h-100v-200h300zM563.5 900v-150h-300v150h75v-75h150v75h75zM304 950v75h75v75h150v-75h-75v-75h-150z" />
    <glyph glyph-name="uni1EAE" unicode="&#x1eaf;" 
d="M764 0h-200v200h-300v-200h-200v500h100v100h100v100h300v-100h100v-100h100v-500zM564 300v200h-100v100h-100v-100h-100v-200h300zM563.5 900v-150h-300v150h75v-75h150v75h75zM304 950v75h75v75h150v-75h-75v-75h-150z" />
    <glyph glyph-name="uni1EB0" unicode="&#x1eb0;" 
d="M764 0h-200v200h-300v-200h-200v500h100v100h100v100h300v-100h100v-100h100v-500zM564 300v200h-100v100h-100v-100h-100v-200h300zM564.5 900v-150h-300v150h75v-75h150v75h75zM378 950v75h-75v75h150v-75h75v-75h-150z" />
    <glyph glyph-name="uni1EB0" unicode="&#x1eb1;" 
d="M764 0h-200v200h-300v-200h-200v500h100v100h100v100h300v-100h100v-100h100v-500zM564 300v200h-100v100h-100v-100h-100v-200h300zM564.5 900v-150h-300v150h75v-75h150v75h75zM378 950v75h-75v75h150v-75h75v-75h-150z" />
    <glyph glyph-name="uni1EB2" unicode="&#x1eb2;" 
d="M764 0h-200v200h-300v-200h-200v500h100v100h100v100h300v-100h100v-100h100v-500zM564 300v200h-100v100h-100v-100h-100v-200h300zM564.5 900v-150h-300v150h75v-75h150v75h75zM562 1100h225v-150h-75v75h-150v75zM637 950h75v-75h-75v75z" />
    <glyph glyph-name="uni1EB2" unicode="&#x1eb3;" 
d="M764 0h-200v200h-300v-200h-200v500h100v100h100v100h300v-100h100v-100h100v-500zM564 300v200h-100v100h-100v-100h-100v-200h300zM564.5 900v-150h-300v150h75v-75h150v75h75zM562 1100h225v-150h-75v75h-150v75zM637 950h75v-75h-75v75z" />
    <glyph glyph-name="uni1EB4" unicode="&#x1eb4;" 
d="M764 0h-200v200h-300v-200h-200v500h100v100h100v100h300v-100h100v-100h100v-500zM564 300v200h-100v100h-100v-100h-100v-200h300zM564.5 900v-150h-300v150h75v-75h150v75h75zM264.5 950v75h75v75h75v-75h-75v-75h-75zM414.5 950v75h75v75h75v-75h-75v-75h-75z" />
    <glyph glyph-name="uni1EB4" unicode="&#x1eb5;" 
d="M764 0h-200v200h-300v-200h-200v500h100v100h100v100h300v-100h100v-100h100v-500zM564 300v200h-100v100h-100v-100h-100v-200h300zM564.5 900v-150h-300v150h75v-75h150v75h75zM264.5 950v75h75v75h75v-75h-75v-75h-75zM414.5 950v75h75v75h75v-75h-75v-75h-75z" />
    <glyph glyph-name="uni1EB6" unicode="&#x1eb6;" 
d="M764 0h-200v200h-300v-200h-200v500h100v100h100v100h300v-100h100v-100h100v-500zM564 300v200h-100v100h-100v-100h-100v-200h300zM612 1000v-200h-400v200h100v-100h200v100h100zM312 0h200v-200h-200v200z" />
    <glyph glyph-name="uni1EB6" unicode="&#x1eb7;" 
d="M764 0h-200v200h-300v-200h-200v500h100v100h100v100h300v-100h100v-100h100v-500zM564 300v200h-100v100h-100v-100h-100v-200h300zM612 1000v-200h-400v200h100v-100h200v100h100zM312 0h200v-200h-200v200z" />
    <glyph glyph-name="uni1EB8" unicode="&#x1eb8;" 
d="M303 0h-239v700h700v-100h-500v-200h400v-100h-400v-200h500v-100h-261v-200h-200v200z" />
    <glyph glyph-name="uni1EB8" unicode="&#x1eb9;" 
d="M303 0h-239v700h700v-100h-500v-200h400v-100h-400v-200h500v-100h-261v-200h-200v200z" />
    <glyph glyph-name="uni1EBA" unicode="&#x1eba;" 
d="M364 800h100v-100h300v-100h-500v-200h400v-100h-400v-200h500v-100h-700v700h300v100zM264 1000h300v-200h-100v100h-200v100z" />
    <glyph glyph-name="uni1EBA" unicode="&#x1ebb;" 
d="M364 800h100v-100h300v-100h-500v-200h400v-100h-400v-200h500v-100h-700v700h300v100zM264 1000h300v-200h-100v100h-200v100z" />
    <glyph glyph-name="uni1EBC" unicode="&#x1ebc;" 
d="M764 0h-700v700h700v-100h-500v-200h400v-100h-400v-200h500v-100zM264 800v100h100v100h100v-100h-100v-100h-100zM464 800v100h100v100h100v-100h-100v-100h-100z" />
    <glyph glyph-name="uni1EBC" unicode="&#x1ebd;" 
d="M764 0h-700v700h700v-100h-500v-200h400v-100h-400v-200h500v-100zM264 800v100h100v100h100v-100h-100v-100h-100zM464 800v100h100v100h100v-100h-100v-100h-100z" />
    <glyph glyph-name="uni1EBE" unicode="&#x1ebe;" 
d="M764 0h-700v700h700v-100h-500v-200h400v-100h-400v-200h500v-100zM227 750v75h75v75h225v-75h75v-75h-150v75h-75v-75h-150zM377 950v75h75v75h150v-75h-75v-75h-150z" />
    <glyph glyph-name="uni1EBE" unicode="&#x1ebf;" 
d="M764 0h-700v700h700v-100h-500v-200h400v-100h-400v-200h500v-100zM227 750v75h75v75h225v-75h75v-75h-150v75h-75v-75h-150zM377 950v75h75v75h150v-75h-75v-75h-150z" />
    <glyph glyph-name="uni1EC0" unicode="&#x1ec0;" 
d="M764 0h-700v700h700v-100h-500v-200h400v-100h-400v-200h500v-100zM228 750v75h75v75h225v-75h75v-75h-150v75h-75v-75h-150zM303 950v75h-75v75h150v-75h75v-75h-150z" />
    <glyph glyph-name="uni1EC0" unicode="&#x1ec1;" 
d="M764 0h-700v700h700v-100h-500v-200h400v-100h-400v-200h500v-100zM228 750v75h75v75h225v-75h75v-75h-150v75h-75v-75h-150zM303 950v75h-75v75h150v-75h75v-75h-150z" />
    <glyph glyph-name="uni1EC2" unicode="&#x1ec2;" 
d="M764 0h-700v700h700v-100h-500v-200h400v-100h-400v-200h500v-100zM228 750v75h75v75h225v-75h75v-75h-150v75h-75v-75h-150zM528 1100h225v-150h-75v75h-150v75zM603 950h75v-75h-75v75z" />
    <glyph glyph-name="uni1EC2" unicode="&#x1ec3;" 
d="M764 0h-700v700h700v-100h-500v-200h400v-100h-400v-200h500v-100zM228 750v75h75v75h225v-75h75v-75h-150v75h-75v-75h-150zM528 1100h225v-150h-75v75h-150v75zM603 950h75v-75h-75v75z" />
    <glyph glyph-name="uni1EC4" unicode="&#x1ec4;" 
d="M764 0h-700v700h700v-100h-500v-200h400v-100h-400v-200h500v-100zM228 750v75h75v75h225v-75h75v-75h-150v75h-75v-75h-150zM264.5 950v75h75v75h75v-75h-75v-75h-75zM414.5 950v75h75v75h75v-75h-75v-75h-75z" />
    <glyph glyph-name="uni1EC4" unicode="&#x1ec5;" 
d="M764 0h-700v700h700v-100h-500v-200h400v-100h-400v-200h500v-100zM228 750v75h75v75h225v-75h75v-75h-150v75h-75v-75h-150zM264.5 950v75h75v75h75v-75h-75v-75h-75zM414.5 950v75h75v75h75v-75h-75v-75h-75z" />
    <glyph glyph-name="uni1EC6" unicode="&#x1ec6;" 
d="M176 800v100h100v100h300v-100h100v-100h-200v100h-100v-100h-200zM303 0h-239v700h700v-100h-500v-200h400v-100h-400v-200h500v-100h-261v-200h-200v200z" />
    <glyph glyph-name="uni1EC6" unicode="&#x1ec7;" 
d="M176 800v100h100v100h300v-100h100v-100h-200v100h-100v-100h-200zM303 0h-239v700h700v-100h-500v-200h400v-100h-400v-200h500v-100h-261v-200h-200v200z" />
    <glyph glyph-name="uni1EC8" unicode="&#x1ec8;" 
d="M414 800h100v-100h200v-100h-200v-500h200v-100h-600v100h200v500h-200v100h300v100zM314 1000h300v-200h-100v100h-200v100z" />
    <glyph glyph-name="uni1EC8" unicode="&#x1ec9;" 
d="M414 800h100v-100h200v-100h-200v-500h200v-100h-600v100h200v500h-200v100h300v100zM314 1000h300v-200h-100v100h-200v100z" />
    <glyph glyph-name="uni1ECA" unicode="&#x1eca;" 
d="M314 0h-200v100h200v500h-200v100h600v-100h-200v-500h200v-100h-200v-200h-200v200z" />
    <glyph glyph-name="uni1ECA" unicode="&#x1ecb;" 
d="M314 0h-200v100h200v500h-200v100h600v-100h-200v-500h200v-100h-200v-200h-200v200z" />
    <glyph glyph-name="uni1ECC" unicode="&#x1ecc;" 
d="M314 0h-150v100h-100v500h100v100h500v-100h100v-500h-100v-100h-150v-200h-200v200zM564 100v500h-300v-500h300z" />
    <glyph glyph-name="uni1ECC" unicode="&#x1ecd;" 
d="M314 0h-150v100h-100v500h100v100h500v-100h100v-500h-100v-100h-150v-200h-200v200zM564 100v500h-300v-500h300z" />
    <glyph glyph-name="uni1ECE" unicode="&#x1ece;" 
d="M364 800h100v-100h200v-100h100v-500h-100v-100h-500v100h-100v500h100v100h200v100zM564 100v500h-300v-500h300zM264 1000h300v-200h-100v100h-200v100z" />
    <glyph glyph-name="uni1ECE" unicode="&#x1ecf;" 
d="M364 800h100v-100h200v-100h100v-500h-100v-100h-500v100h-100v500h100v100h200v100zM564 100v500h-300v-500h300zM264 1000h300v-200h-100v100h-200v100z" />
    <glyph glyph-name="uni1ED0" unicode="&#x1ed0;" 
d="M764 100h-100v-100h-500v100h-100v500h100v100h500v-100h100v-500zM564 100v500h-300v-500h300zM227 750v75h75v75h225v-75h75v-75h-150v75h-75v-75h-150zM377 950v75h75v75h150v-75h-75v-75h-150z" />
    <glyph glyph-name="uni1ED0" unicode="&#x1ed1;" 
d="M764 100h-100v-100h-500v100h-100v500h100v100h500v-100h100v-500zM564 100v500h-300v-500h300zM227 750v75h75v75h225v-75h75v-75h-150v75h-75v-75h-150zM377 950v75h75v75h150v-75h-75v-75h-150z" />
    <glyph glyph-name="uni1ED2" unicode="&#x1ed2;" 
d="M764 100h-100v-100h-500v100h-100v500h100v100h500v-100h100v-500zM564 100v500h-300v-500h300zM228 750v75h75v75h225v-75h75v-75h-150v75h-75v-75h-150zM303 950v75h-75v75h150v-75h75v-75h-150z" />
    <glyph glyph-name="uni1ED2" unicode="&#x1ed3;" 
d="M764 100h-100v-100h-500v100h-100v500h100v100h500v-100h100v-500zM564 100v500h-300v-500h300zM228 750v75h75v75h225v-75h75v-75h-150v75h-75v-75h-150zM303 950v75h-75v75h150v-75h75v-75h-150z" />
    <glyph glyph-name="uni1ED4" unicode="&#x1ed4;" 
d="M764 100h-100v-100h-500v100h-100v500h100v100h500v-100h100v-500zM564 100v500h-300v-500h300zM228 750v75h75v75h225v-75h75v-75h-150v75h-75v-75h-150zM528 1100h225v-150h-75v75h-150v75zM603 950h75v-75h-75v75z" />
    <glyph glyph-name="uni1ED4" unicode="&#x1ed5;" 
d="M764 100h-100v-100h-500v100h-100v500h100v100h500v-100h100v-500zM564 100v500h-300v-500h300zM228 750v75h75v75h225v-75h75v-75h-150v75h-75v-75h-150zM528 1100h225v-150h-75v75h-150v75zM603 950h75v-75h-75v75z" />
    <glyph glyph-name="uni1ED6" unicode="&#x1ed6;" 
d="M764 100h-100v-100h-500v100h-100v500h100v100h500v-100h100v-500zM564 100v500h-300v-500h300zM228 750v75h75v75h225v-75h75v-75h-150v75h-75v-75h-150zM264.5 950v75h75v75h75v-75h-75v-75h-75zM414.5 950v75h75v75h75v-75h-75v-75h-75z" />
    <glyph glyph-name="uni1ED6" unicode="&#x1ed7;" 
d="M764 100h-100v-100h-500v100h-100v500h100v100h500v-100h100v-500zM564 100v500h-300v-500h300zM228 750v75h75v75h225v-75h75v-75h-150v75h-75v-75h-150zM264.5 950v75h75v75h75v-75h-75v-75h-75zM414.5 950v75h75v75h75v-75h-75v-75h-75z" />
    <glyph glyph-name="uni1ED8" unicode="&#x1ed8;" 
d="M164 800v100h100v100h300v-100h100v-100h-200v100h-100v-100h-200zM314 0h-150v100h-100v500h100v100h500v-100h100v-500h-100v-100h-150v-200h-200v200zM564 100v500h-300v-500h300z" />
    <glyph glyph-name="uni1ED8" unicode="&#x1ed9;" 
d="M164 800v100h100v100h300v-100h100v-100h-200v100h-100v-100h-200zM314 0h-150v100h-100v500h100v100h500v-100h100v-500h-100v-100h-150v-200h-200v200zM564 100v500h-300v-500h300z" />
    <glyph glyph-name="uni1EDA" unicode="&#x1eda;" 
d="M664 100h-100v-100h-400v100h-100v500h100v100h500v100h100v-200h-100v-500zM464 100v500h-200v-500h200zM264 800v100h100v100h200v-100h-100v-100h-200z" />
    <glyph glyph-name="uni1EDA" unicode="&#x1edb;" 
d="M664 100h-100v-100h-400v100h-100v500h100v100h500v100h100v-200h-100v-500zM464 100v500h-200v-500h200zM264 800v100h100v100h200v-100h-100v-100h-200z" />
    <glyph glyph-name="uni1EDC" unicode="&#x1edc;" 
d="M664 100h-100v-100h-400v100h-100v500h100v100h500v100h100v-200h-100v-500zM464 100v500h-200v-500h200zM264 800v100h-100v100h200v-100h100v-100h-200z" />
    <glyph glyph-name="uni1EDC" unicode="&#x1edd;" 
d="M664 100h-100v-100h-400v100h-100v500h100v100h500v100h100v-200h-100v-500zM464 100v500h-200v-500h200zM264 800v100h-100v100h200v-100h100v-100h-200z" />
    <glyph glyph-name="uni1EDE" unicode="&#x1ede;" 
d="M714 100h-100v-100h-500v100h-100v500h100v100h200v100h100v-100h300v100h100v-200h-100v-500zM514 100v500h-300v-500h300zM214 1000h300v-200h-100v100h-200v100z" />
    <glyph glyph-name="uni1EDE" unicode="&#x1edf;" 
d="M714 100h-100v-100h-500v100h-100v500h100v100h200v100h100v-100h300v100h100v-200h-100v-500zM514 100v500h-300v-500h300zM214 1000h300v-200h-100v100h-200v100z" />
    <glyph glyph-name="uni1EE0" unicode="&#x1ee0;" 
d="M664 100h-100v-100h-400v100h-100v500h100v100h500v100h100v-200h-100v-500zM464 100v500h-200v-500h200zM164 800v100h100v100h100v-100h-100v-100h-100zM364 800v100h100v100h100v-100h-100v-100h-100z" />
    <glyph glyph-name="uni1EE0" unicode="&#x1ee1;" 
d="M664 100h-100v-100h-400v100h-100v500h100v100h500v100h100v-200h-100v-500zM464 100v500h-200v-500h200zM164 800v100h100v100h100v-100h-100v-100h-100zM364 800v100h100v100h100v-100h-100v-100h-100z" />
    <glyph glyph-name="uni1EE2" unicode="&#x1ee2;" 
d="M263 0h-99v100h-100v500h100v100h500v100h100v-200h-100v-500h-100v-100h-100v-200h-201v200zM464 100v500h-200v-500h200z" />
    <glyph glyph-name="uni1EE2" unicode="&#x1ee3;" 
d="M263 0h-99v100h-100v500h100v100h500v100h100v-200h-100v-500h-100v-100h-100v-200h-201v200zM464 100v500h-200v-500h200z" />
    <glyph glyph-name="uni1EE4" unicode="&#x1ee4;" 
d="M314 0h-150v100h-100v600h200v-600h300v600h200v-600h-100v-100h-150v-200h-200v200z" />
    <glyph glyph-name="uni1EE4" unicode="&#x1ee5;" 
d="M314 0h-150v100h-100v600h200v-600h300v600h200v-600h-100v-100h-150v-200h-200v200z" />
    <glyph glyph-name="uni1EE6" unicode="&#x1ee6;" 
d="M764 100h-100v-100h-500v100h-100v600h200v-600h300v600h200v-600zM264 1000h300v-200h-100v100h-200v100zM364 800h100v-100h-100v100z" />
    <glyph glyph-name="uni1EE6" unicode="&#x1ee7;" 
d="M764 100h-100v-100h-500v100h-100v600h200v-600h300v600h200v-600zM264 1000h300v-200h-100v100h-200v100zM364 800h100v-100h-100v100z" />
    <glyph glyph-name="uni1EE8" unicode="&#x1ee8;" 
d="M564 100h-100v-100h-300v100h-100v600h200v-600h100v600h300v100h100v-200h-200v-500zM264 800v100h100v100h200v-100h-100v-100h-200z" />
    <glyph glyph-name="uni1EE8" unicode="&#x1ee9;" 
d="M564 100h-100v-100h-300v100h-100v600h200v-600h100v600h300v100h100v-200h-200v-500zM264 800v100h100v100h200v-100h-100v-100h-200z" />
    <glyph glyph-name="uni1EEA" unicode="&#x1eea;" 
d="M564 100h-100v-100h-300v100h-100v600h200v-600h100v600h300v100h100v-200h-200v-500zM164 800v100h-100v100h200v-100h100v-100h-200z" />
    <glyph glyph-name="uni1EEA" unicode="&#x1eeb;" 
d="M564 100h-100v-100h-300v100h-100v600h200v-600h100v600h300v100h100v-200h-200v-500zM164 800v100h-100v100h200v-100h100v-100h-200z" />
    <glyph glyph-name="uni1EEC" unicode="&#x1eec;" 
d="M564 100h-100v-100h-300v100h-100v600h200v-600h100v600h300v100h100v-200h-200v-500zM164 1000h300v-200h-100v100h-200v100zM264 800h100v-100h-100v100z" />
    <glyph glyph-name="uni1EEC" unicode="&#x1eed;" 
d="M564 100h-100v-100h-300v100h-100v600h200v-600h100v600h300v100h100v-200h-200v-500zM164 1000h300v-200h-100v100h-200v100zM264 800h100v-100h-100v100z" />
    <glyph glyph-name="uni1EEE" unicode="&#x1eee;" 
d="M564 100h-100v-100h-300v100h-100v600h200v-600h100v600h300v100h100v-200h-200v-500zM164 800v100h100v100h100v-100h-100v-100h-100zM364 800v100h100v100h100v-100h-100v-100h-100z" />
    <glyph glyph-name="uni1EEE" unicode="&#x1eef;" 
d="M564 100h-100v-100h-300v100h-100v600h200v-600h100v600h300v100h100v-200h-200v-500zM164 800v100h100v100h100v-100h-100v-100h-100zM364 800v100h100v100h100v-100h-100v-100h-100z" />
    <glyph glyph-name="uni1EF0" unicode="&#x1ef0;" 
d="M214 0h-50v100h-100v600h200v-600h100v600h300v100h100v-200h-200v-500h-100v-100h-50v-200h-200v200z" />
    <glyph glyph-name="uni1EF0" unicode="&#x1ef1;" 
d="M214 0h-50v100h-100v600h200v-600h100v600h300v100h100v-200h-200v-500h-100v-100h-50v-200h-200v200z" />
    <glyph glyph-name="Ygrave" unicode="&#x1ef2;" 
d="M714 400h-100v-100h-100v-300h-200v300h-101v100h-99v300h200v-300h200v300h200v-300zM310 800v100h-100v100h200v-100h100v-100h-200z" />
    <glyph glyph-name="Ygrave" unicode="&#x1ef3;" 
d="M714 400h-100v-100h-100v-300h-200v300h-101v100h-99v300h200v-300h200v300h200v-300zM310 800v100h-100v100h200v-100h100v-100h-200z" />
    <glyph glyph-name="uni1EF6" unicode="&#x1ef6;" 
d="M714 400h-100v-100h-100v-300h-200v300h-101v100h-99v300h200v-300h200v300h200v-300zM264 1000h300v-200h-100v100h-200v100zM364 800h100v-100h-100v100z" />
    <glyph glyph-name="uni1EF6" unicode="&#x1ef7;" 
d="M714 400h-100v-100h-100v-300h-200v300h-101v100h-99v300h200v-300h200v300h200v-300zM264 1000h300v-200h-100v100h-200v100zM364 800h100v-100h-100v100z" />
    <glyph glyph-name="zerospace" unicode="&#x200b;" 
 />
    <glyph glyph-name="endash" unicode="&#x2013;" 
d="M764 300h-700v100h700v-100z" />
    <glyph glyph-name="emdash" unicode="&#x2014;" 
d="M828 300h-828v100h828v-100z" />
    <glyph glyph-name="quoteleft" unicode="&#x2018;" 
d="M314 600h100v-100h100v-200h-200v300zM414 700h100v-100h-100v100z" />
    <glyph glyph-name="quoteright" unicode="&#x2019;" 
d="M514 400h-100v100h-100v200h200v-300zM414 300h-100v100h100v-100z" />
    <glyph glyph-name="quotesinglbase" unicode="&#x201a;" 
d="M514 -100h-100v100h-100v200h200v-300zM414 -200h-100v100h100v-100z" />
    <glyph glyph-name="quotedblleft" unicode="&#x201c;" 
d="M164 600h100v-100h100v-200h-200v300zM264 700h100v-100h-100v100zM464 600h100v-100h100v-200h-200v300zM564 700h100v-100h-100v100z" />
    <glyph glyph-name="quotedblright" unicode="&#x201d;" 
d="M664 400h-100v100h-100v200h200v-300zM564 300h-100v100h100v-100zM364 400h-100v100h-100v200h200v-300zM264 300h-100v100h100v-100z" />
    <glyph glyph-name="quotedblbase" unicode="&#x201e;" 
d="M664 -100h-100v100h-100v200h200v-300zM564 -200h-100v100h100v-100zM364 -100h-100v100h-100v200h200v-300zM264 -200h-100v100h100v-100z" />
    <glyph glyph-name="dagger" unicode="&#x2020;" 
d="M464 0h-100v500h-200v100h200v100h100v-100h200v-100h-200v-500z" />
    <glyph glyph-name="daggerdbl" unicode="&#x2021;" 
d="M664 100h-200v-100h-100v100h-200v100h200v300h-200v100h200v100h100v-100h200v-100h-200v-300h200v-100z" />
    <glyph glyph-name="bullet" unicode="&#x2022;" 
d="M564 200h-300v300h300v-300z" />
    <glyph glyph-name="ellipsis" unicode="&#x2026;" 
d="M214 0h-150v200h150v-200zM489 0h-150v200h150v-200zM764 0h-150v200h150v-200z" />
    <glyph glyph-name="perthousand" unicode="&#x2030;" 
d="M264 700v-200h-200v200h200zM164 200h-100v100h100v-100zM464 500h-100v100h100v-100zM364 400h-100v100h100v-100zM264 300h-100v100h100v-100zM564 600h-100v100h100v-100zM764 300v-200h-200v200h200zM464 300v-200h-200v200h200z" />
    <glyph glyph-name="uni2032" unicode="&#x2032;" 
d="M464 400h-200v100h100v200h200v-200h-100v-100z" />
    <glyph glyph-name="uni2033" unicode="&#x2033;" 
d="M464 500h100v200h200v-200h-100v-100h-200v100zM264 400h-200v100h100v200h200v-200h-100v-100z" />
    <glyph glyph-name="guilsinglleft" unicode="&#x2039;" 
d="M364 200h100v-100h100v-100h-200v100h-100v100h-100v100h100v100h100v100h200v-100h-100v-100h-100v-100z" />
    <glyph glyph-name="guilsinglright" unicode="&#x203a;" 
d="M464 400h100v-100h100v-100h-100v-100h-100v-100h-200v100h100v100h100v100h-100v100h-100v100h200v-100z" />
    <glyph glyph-name="fraction" unicode="&#x2044;" horiz-adv-x="0" 
d="M350 600h-100v100h100v-100zM250 500h-100v100h100v-100zM150 400h-100v100h100v-100zM50 300h-100v100h100v-100zM-50 200h-100v100h100v-100zM-150 100h-100v100h100v-100zM-250 0h-100v100h100v-100z" />
    <glyph glyph-name="zerosuperior" unicode="&#x2070;" 
d="M264 400h-100v300h100v-300h300v-100h-300v100zM264 800h300v-100h100v-300h-100v300h-300v100z" />
    <glyph glyph-name="foursuperior" unicode="&#x2074;" 
d="M564 300h-100v100h-300v100h100v100h100v-100h100v100h-100v100h100v100h100v-300h100v-100h-100v-100z" />
    <glyph glyph-name="fivesuperior" unicode="&#x2075;" 
d="M564 500h-400v300h500v-100h-400v-100h300v-100h100v-100h-100v100zM164 400h400v-100h-400v100z" />
    <glyph glyph-name="sixsuperior" unicode="&#x2076;" 
d="M264 400h300v-100h-300v100h-100v300h100v-100h300v-100h100v-100h-100v100h-300v-100zM264 800h300v-100h-300v100z" />
    <glyph glyph-name="sevensuperior" unicode="&#x2077;" 
d="M164 800h500v-200h-100v100h-400v100zM364 500h100v-200h-100v200zM464 600h100v-100h-100v100z" />
    <glyph glyph-name="eightsuperior" unicode="&#x2078;" 
d="M564 500h-300v100h-100v100h100v-100h300v-100h100v-100h-100v100zM564 700h-300v100h300v-100h100v-100h-100v100zM264 400h-100v100h100v-100h300v-100h-300v100z" />
    <glyph glyph-name="ninesuperior" unicode="&#x2079;" 
d="M164 700h100v-100h300v100h-300v100h300v-100h100v-300h-100v100h-300v100h-100v100zM264 400h300v-100h-300v100z" />
    <glyph glyph-name="zeroinferior" unicode="&#x2080;" 
d="M264 100h-100v300h100v-300h300v-100h-300v100zM264 500h300v-100h100v-300h-100v300h-300v100z" />
    <glyph glyph-name="oneinferior" unicode="&#x2081;" 
d="M164 100h200v200h-200v100h200v100h100v-400h200v-100h-500v100z" />
    <glyph glyph-name="twoinferior" unicode="&#x2082;" 
d="M164 200h100v-100h400v-100h-500v200zM564 400h-400v100h400v-100h100v-100h-100v100zM264 300h300v-100h-300v100z" />
    <glyph glyph-name="threeinferior" unicode="&#x2083;" 
d="M164 500h500v-200h-100v100h-400v100zM164 100h400v-100h-400v100zM564 200h-200v100h200v-100h100v-100h-100v100z" />
    <glyph glyph-name="fourinferior" unicode="&#x2084;" 
d="M564 0h-100v100h-300v100h100v100h100v-100h100v100h-100v100h100v100h100v-300h100v-100h-100v-100z" />
    <glyph glyph-name="fiveinferior" unicode="&#x2085;" 
d="M564 200h-400v300h500v-100h-400v-100h300v-100h100v-100h-100v100zM164 100h400v-100h-400v100z" />
    <glyph glyph-name="sixinferior" unicode="&#x2086;" 
d="M264 100h300v-100h-300v100h-100v300h100v-100h300v-100h100v-100h-100v100h-300v-100zM264 500h300v-100h-300v100z" />
    <glyph glyph-name="seveninferior" unicode="&#x2087;" 
d="M164 500h500v-200h-100v100h-400v100zM364 200h100v-200h-100v200zM464 300h100v-100h-100v100z" />
    <glyph glyph-name="eightinferior" unicode="&#x2088;" 
d="M564 200h-300v100h-100v100h100v-100h300v-100h100v-100h-100v100zM564 400h-300v100h300v-100h100v-100h-100v100zM264 100h-100v100h100v-100h300v-100h-300v100z" />
    <glyph glyph-name="nineinferior" unicode="&#x2089;" 
d="M164 400h100v-100h300v100h-300v100h300v-100h100v-300h-100v100h-300v100h-100v100zM264 100h300v-100h-300v100z" />
    <glyph glyph-name="uni20A9" unicode="&#x20a9;" 
d="M564 200h200v-100h-200v-100h-100v100h-100v-100h-100v100h-200v100h200v100h-100v100h-100v100h100v100h-100v100h100v-100h100v-100h100v200h100v-200h100v100h100v-100h100v-100h-100v-100h-100v-100zM664 700h100v-100h-100v100zM364 200h100v100h-100v-100zM364 400
h-100v-100h100v100zM564 300v100h-100v-100h100z" />
    <glyph glyph-name="uni20AA" unicode="&#x20aa;" 
d="M164 0h-100v700h400v-100h100v-300h-100v200h-300v-500zM264 400h100v-200h300v500h100v-700h-400v100h-100v300z" />
    <glyph glyph-name="dong" unicode="&#x20ab;" 
d="M264 800h200v100h200v-100h100v-100h-100v-500h-500v100h-100v200h100v100h300v100h-200v100zM64 100h700v-100h-700v100zM464 300v200h-200v-200h200z" />
    <glyph glyph-name="Euro" unicode="&#x20ac;" 
d="M664 200h-300v-100h400v-100h-500v100h-100v100h-100v100h101v100h-101v100h100v100h100v100h500v-100h-400v-100h400v-100h-400v-100h300v-100z" />
    <glyph glyph-name="uni20AD" unicode="&#x20ad;" 
d="M64 400h100v300h100v-300h100v100h100v100h100v100h200v-100h-100v-100h-100v-100h200v-100h-200v-100h100v-100h100v-100h-300v100h-100v100h-100v-200h-100v300h-100v100z" />
    <glyph glyph-name="uni20AE" unicode="&#x20ae;" 
d="M714 600h-200v-100h100v-100h-100v-100h100v-100h-100v-200h-200v100h-100v100h100v100h-100v100h100v200h-200v100h600v-100z" />
    <glyph glyph-name="uni20B1" unicode="&#x20b1;" 
d="M364 0h-200v400h-100v100h100v200h500v-100h100v-300h-100v-100h-300v-200zM364 500h200v100h-200v-100zM564 400h-200v-100h200v100z" />
    <glyph glyph-name="uni20B2" unicode="&#x20b2;" 
d="M564 400h200v-400h-500v100h-100v100h-100v300h100v100h100v100h500v-100h-100v-100h-100v100h-200v-100h-100v-200h100v-200h200v200h-200v100h100v100h100v-100zM164 0h-100v100h100v-100z" />
    <glyph glyph-name="uni20B4" unicode="&#x20b4;" 
d="M64 600h400v100h-300v100h400v-100h100v-100h100v-100h-100v-100h-200v-100h300v-100h-400v-100h300v-100h-400v100h-100v100h-100v100h100v100h200v100h-300v100z" />
    <glyph glyph-name="uni20B8" unicode="&#x20b8;" 
d="M714 400h-200v-400h-200v400h-200v100h600v-100zM114 600v100h600v-100h-600z" />
    <glyph glyph-name="uni20B9" unicode="&#x20b9;" 
d="M713 400h-100v-99h-101v-101h101v-98h100v-102h-300v102h-100v98h-101v101h201v99h-299v100h398v100h-398v100h599v-100h-100v-100h100v-100z" />
    <glyph glyph-name="uni20BA" unicode="&#x20ba;" 
d="M64 300h100v100h-100v100h100v200h200v-100h200v-100h-200v-100h200v-100h-200v-200h200v100h200v-100h-100v-100h-500v200h-100v100z" />
    <glyph glyph-name="uni20BC" unicode="&#x20bc;" 
d="M514 500h200v-100h100v-400h-200v400h-100v-400h-200v400h-100v-400h-200v400h100v100h200v200h200v-200z" />
    <glyph glyph-name="uni20BD" unicode="&#x20bd;" 
d="M64 200h100v100h-100v100h100v300h500v-100h100v-200h-100v-100h-300v-100h200v-100h-200v-100h-200v100h-100v100zM364 400h200v200h-200v-200z" />
    <glyph glyph-name="uni20BE" unicode="&#x20be;" 
d="M64 100h100v100h-100v400h100v100h200v100h100v-100h100v100h100v-100h100v-100h-100v-200h-100v200h-100v-200h-100v200h-100v-400h100v-100h100v-100h-400v100z" />
    <glyph glyph-name="litre" unicode="&#x2113;" 
d="M664 400h-100v200h-200v-300h100v-100h-100v-100h200v-100h-300v100h-100v500h100v100h300v-100h100v-200zM464 400h100v-100h-100v100z" />
    <glyph glyph-name="uni2116" unicode="&#x2116;" 
d="M164 0h-100v700h100v-100h100v-100h100v200h100v-700h-100v300h-100v100h-100v-400zM564 700h200v-300h-200v300z" />
    <glyph glyph-name="uni2117" unicode="&#x2117;" 
d="M764 101h-100v499h-500v100h500v-100h100v-499zM579 306h-253v-152h-77v383h330v-231zM64 101v499h100v-499h-100zM164 101h500v-101h-500v101zM502 384v77h-176v-77h176z" />
    <glyph glyph-name="trademark" unicode="&#x2122;" 
d="M564 400h-100v300h300v-300h-100v100h-100v-100zM64 700h300v-100h-100v-200h-100v200h-100v100z" />
    <glyph glyph-name="uni212E" unicode="&#x212e;" 
d="M764 100h-100v-100h-500v100h-100v500h100v100h500v-100h100v-300h-500v-200h300v100h200v-100zM564 400v200h-300v-200h300z" />
    <glyph glyph-name="onethird" unicode="&#x2153;" 
d="M464 300h-100v100h-300v100h100v100h-100v100h100v100h100v-300h100v-100h100v-100h300v-100h-100v-100h100v-100h-100v100h-100v100h-100v100zM464 0h200v-100h-200v100zM664 500h-100v100h100v-100zM164 0h-100v100h100v-100zM264 100h-100v100h100v-100zM364 200h-100
v100h100v-100zM764 600h-100v100h100v-100zM564 400h-100v100h100v-100z" />
    <glyph glyph-name="twothirds" unicode="&#x2154;" 
d="M464 300h-100v100h-300v100h100v100h100v-100h100v-100h100v-100h300v-100h-100v-100h100v-100h-100v100h-100v100h-100v100zM264 700h-200v100h200v-100h100v-100h-100v100zM464 0h200v-100h-200v100zM264 100h-100v100h100v-100zM364 200h-100v100h100v-100zM564 400
h-100v100h100v-100zM664 500h-100v100h100v-100zM764 600h-100v100h100v-100zM164 0h-100v100h100v-100z" />
    <glyph glyph-name="oneeighth" unicode="&#x215b;" 
d="M464 300h100v-100h100v-100h100v-100h-100v100h-100v100h-100v100h-100v100h-300v100h100v100h-100v100h100v100h100v-300h100v-100h100v-100zM564 400h100v-100h100v-100h-100v100h-100v100h-100v100h100v-100zM564 0h-100v100h100v-100h100v-100h-100v100zM364 200
h-100v100h100v-100zM664 500h-100v100h100v-100zM764 600h-100v100h100v-100zM264 100h-100v100h100v-100zM164 0h-100v100h100v-100z" />
    <glyph glyph-name="threeeighths" unicode="&#x215c;" 
d="M64 700h300v-100h-100v-100h100v-100h100v-100h100v-100h100v-100h100v-100h-100v100h-100v100h-100v100h-100v100h-100v100h-100v100h-100v100zM364 200h-100v100h-200v100h200v-100h100v-100zM664 300h-100v100h-100v100h100v-100h100v-100h100v-100h-100v100zM564 0
h-100v100h100v-100h100v-100h-100v100zM664 500h-100v100h100v-100zM164 0h-100v100h100v-100zM764 600h-100v100h100v-100zM264 100h-100v100h100v-100z" />
    <glyph glyph-name="fiveeighths" unicode="&#x215d;" 
d="M664 100h-100v100h-100v100h-100v100h-100v100h-200v200h300v-100h-100v-100h100v-100h100v-100h100v-100h100v-100h100v-100h-100v100zM364 200h-100v100h-200v100h200v-100h100v-100zM664 300h-100v100h-100v100h100v-100h100v-100h100v-100h-100v100zM564 0h-100v100
h100v-100h100v-100h-100v100zM664 500h-100v100h100v-100zM164 0h-100v100h100v-100zM764 600h-100v100h100v-100zM264 100h-100v100h100v-100z" />
    <glyph glyph-name="seveneighths" unicode="&#x215e;" 
d="M64 700h300v-200h-100v100h-200v100zM664 100h-100v100h-100v100h-100v100h100v-100h100v-100h100v-100h100v-100h-100v100zM664 300h-100v100h-100v100h100v-100h100v-100h100v-100h-100v100zM564 0h-100v100h100v-100h100v-100h-100v100zM364 200h-100v100h100v-100z
M664 500h-100v100h100v-100zM164 500h100v-100h-100v100zM64 400h100v-100h-100v100zM764 600h-100v100h100v-100zM164 0h-100v100h100v-100zM264 100h-100v100h100v-100z" />
    <glyph glyph-name="uni2190" unicode="&#x2190;" 
d="M464 0h-100v100h-100v100h-100v100h-100v100h100v100h100v100h100v100h100v-200h300v-300h-300v-200z" />
    <glyph glyph-name="uni2191" unicode="&#x2191;" 
d="M64 300v100h100v100h100v100h100v100h100v-100h100v-100h100v-100h100v-100h-200v-300h-300v300h-200z" />
    <glyph glyph-name="uni2192" unicode="&#x2192;" 
d="M364 700h100v-100h100v-100h100v-100h100v-100h-100v-100h-100v-100h-100v-100h-100v200h-300v300h300v200z" />
    <glyph glyph-name="uni2193" unicode="&#x2193;" 
d="M764 400v-100h-100v-100h-100v-100h-100v-100h-100v100h-100v100h-100v100h-100v100h200v300h300v-300h200z" />
    <glyph glyph-name="partialdiff" unicode="&#x2202;" 
d="M564 100v200h-300v-200h300zM64 300h100v100h400v100h-100v100h-300v100h400v-100h100v-100h100v-400h-100v-100h-500v100h-100v200z" />
    <glyph glyph-name="product" unicode="&#x220f;" 
d="M764 -200h-200v800h-300v-800h-200v900h700v-900z" />
    <glyph glyph-name="summation" unicode="&#x2211;" 
d="M764 600h-500v-100h100v-100h100v-100h100v-200h-100v-100h-100v-100h400v-100h-700v200h100v100h100v100h100v100h-100v100h-100v100h-100v200h700v-100z" />
    <glyph glyph-name="minus" unicode="&#x2212;" 
d="M714 300h-600v100h600v-100z" />
    <glyph glyph-name="radical" unicode="&#x221a;" 
d="M264 100h100v-100h-100v100h-100v100h-100v100h200v-200zM664 500h-100v200h200v-100h-100v-100zM364 300h100v-200h-100v200zM564 300h-100v200h100v-200z" />
    <glyph glyph-name="infinity" unicode="&#x221e;" 
d="M664 200v-100h-200v100h-100v300h-200v100h200v-100h100v-300h200zM364 200v-100h-200v100h-100v300h100v-300h200zM764 200h-100v300h-200v100h200v-100h100v-300z" />
    <glyph glyph-name="integral" unicode="&#x222b;" 
d="M214 -100h100v800h100v100h200v-100h-100v-800h-100v-100h-200v100z" />
    <glyph glyph-name="approxequal" unicode="&#x2248;" 
d="M714 500h-100v100h100v-100zM614 400h-200v100h-200v100h200v-100h200v-100zM214 400h-100v100h100v-100zM714 100h-100v100h100v-100zM614 0h-200v100h-200v100h200v-100h200v-100zM214 0h-100v100h100v-100z" />
    <glyph glyph-name="notequal" unicode="&#x2260;" 
d="M664 500h100v-100h-300v-100h300v-100h-500v-100h-100v100h-100v100h300v100h-300v100h500v100h100v-100zM764 600h-100v100h100v-100zM164 0h-100v100h100v-100z" />
    <glyph glyph-name="lessequal" unicode="&#x2264;" 
d="M664 -100h-500v100h500v-100zM664 100h-200v100h-100v100h-100v101h-100v99h100v100h100v100h100v100h200v-100h-100v-100h-100v-100h-100v-99h100v-101h100v-100h100v-100z" />
    <glyph glyph-name="greaterequal" unicode="&#x2265;" 
d="M164 0h500v-100h-500v100zM164 200h100v100h100v100h100v100h-100v100h-100v100h-100v100h200v-100h100v-100h100v-100h99v-100h-99v-100h-100v-100h-100v-100h-200v100z" />
    <glyph glyph-name="block" unicode="&#x2588;" 
d="M764 0h-700v700h700v-700z" />
    <glyph glyph-name="lozenge" unicode="&#x25ca;" 
d="M664 300h-100v-100h-100v-101h-100v101h-100v100h-100v200h100v100h100v100h100v-100h100v-100h100v-200zM364 300h100v200h-100v-200z" />
    <glyph glyph-name="uni2605" unicode="&#x2605;" 
d="M764 500v-100h-100v-100h-100v-100h100v-200h-100v100h-100v100h-100v-100h-100v-100h-100v200h100v100h-100v100h-100v100h300v200h100v-200h300z" />
    <glyph glyph-name="uni2606" unicode="&#x2606;" 
d="M564 300v-100h100v-200h-100v100h-100v100h-100v-100h-100v-100h-100v200h100v100h-100v100h-100v100h300v200h100v-200h300v-100h-100v-100h-100v100h-300v-100h300z" />
    <glyph glyph-name="uni2610" unicode="&#x2610;" 
d="M64 700h700v-700h-700v700zM664 600h-500v-500h500v500z" />
    <glyph glyph-name="uni2611" unicode="&#x2611;" 
d="M764 0h-700v700h700v-700zM564 600h-400v-500h200v100h-100v100h100v-100h100v-100h200v300h-100v200zM464 200h100v200h-100v-200z" />
    <glyph glyph-name="uni2612" unicode="&#x2612;" 
d="M64 700h700v-700h-700v700zM664 600h-500v-500h500v500zM464 300h-100v100h-100v100h100v-100h100v-100h100v-100h-100v100zM464 500h100v-100h-100v100zM264 300h100v-100h-100v100z" />
    <glyph glyph-name="uni263A" unicode="&#x263a;" 
d="M264 0h-100v100h-100v500h100v-500h100v-100h300v-100h-300v100zM264 800h300v-100h100v-100h100v-500h-100v500h-100v100h-300v100zM364 200h-100v100h100v-100h100v-100h-100v100zM264 500h100v-100h-100v100zM164 700h100v-100h-100v100zM564 100h100v-100h-100v100z
M464 500h100v-100h-100v100zM464 300h100v-100h-100v100z" />
    <glyph glyph-name="uni263B" unicode="&#x263b;" 
d="M264 0h-100v100h-100v500h100v100h100v100h300v-100h100v-100h100v-500h-100v-100h-100v-100h-300v100zM464 100v100h-100v100h-100v-100h100v-100h100zM564 400v100h-100v-100h100zM364 400v100h-100v-100h100zM564 200v100h-100v-100h100z" />
    <glyph glyph-name="uni2640" unicode="&#x2640;" 
d="M264 100h100v100h-100v100h-100v300h100v-300h300v-100h-100v-100h100v-100h-100v-100h-100v100h-100v100zM564 600h-300v100h300v-100h100v-300h-100v300z" />
    <glyph glyph-name="uni2642" unicode="&#x2642;" 
d="M664 500h-100v100h-100v100h300v-300h-100v100zM164 500h400v-400h-100v300h-300v100zM164 100h-100v300h100v-300h300v-100h-300v100z" />
    <glyph glyph-name="uni2660" unicode="&#x2660;" 
d="M164 100h200v100h-300v200h100v100h100v100h100v100h100v-100h100v-100h100v-100h100v-200h-300v-100h200v-100h-500v100z" />
    <glyph glyph-name="uni2663" unicode="&#x2663;" 
d="M64 500h200v200h300v-200h200v-300h-200v100h-100v-200h200v-100h-500v100h200v200h-100v-100h-200v300zM564 500h-100v-100h100v100zM264 400h100v100h-100v-100z" />
    <glyph glyph-name="heart" unicode="&#x2665;" 
d="M764 400h-100v-100h-100v-100h-100v-100h-100v100h-100v100h-100v100h-100v200h100v100h200v-100h100v100h200v-100h100v-200z" />
    <glyph glyph-name="uni2666" unicode="&#x2666;" 
d="M264 200h-100v100h-100v100h100v100h100v100h100v100h100v-100h100v-100h100v-100h100v-100h-100v-100h-100v-100h-100v-100h-100v100h-100v100z" />
    <glyph glyph-name="uni2667" unicode="&#x2667;" 
d="M64 500h200v200h300v-200h200v-300h-200v100h-100v-200h200v-100h-500v100h200v200h-100v-100h-200v300zM564 500h-100v-100h100v100zM264 400h100v100h-100v-100z" />
    <glyph glyph-name="uni2669" unicode="&#x2669;" 
d="M464 0h-200v100h-100v100h100v100h200v400h100v-600h-100v-100z" />
    <glyph glyph-name="uni266A" unicode="&#x266a;" 
d="M564 500h-100v-400h-100v-100h-200v100h-100v100h100v100h200v400h200v-100h100v-200h-100v100z" />
    <glyph glyph-name="uni266B" unicode="&#x266b;" 
d="M364 0h-100v-100h-100v100h-100v100h100v100h100v400h200v100h300v-600h-100v-100h-100v100h-100v100h100v100h100v200h-100v-100h-200v-400z" />
    <glyph glyph-name="uni266C" unicode="&#x266c;" 
d="M364 0h-100v-100h-100v100h-100v100h100v100h100v500h500v-700h-100v-100h-100v100h-100v100h100v100h100v200h-300v-400zM664 500v100h-300v-100h300z" />
    <glyph glyph-name="uni266D" unicode="&#x266d;" 
d="M564 100v-100h-300v700h100v-400h100v-100h-100v-100h200zM464 300v100h200v-300h-100v200h-100z" />
    <glyph glyph-name="uni266E" unicode="&#x266e;" 
d="M564 200h-100v100h-100v-100h100v-100h-100v-100h-100v700h100v-300h100v-100h100v100h-100v100h100v100h100v-700h-100v300z" />
    <glyph glyph-name="uni266F" unicode="&#x266f;" 
d="M164 200h100v100h-100v100h100v200h100v-100h100v200h100v-100h100v-100h-100v-100h100v-100h-100v-200h-100v100h-100v-200h-100v100h-100v100zM364 300h100v100h-100v-100z" />
    <glyph glyph-name="uni26A2" unicode="&#x26a2;" 
d="M164 400h-100v200h100v-200h200v-200h100v200h-100v200h-200v100h200v-100h100v-200h200v-100h-100v-100h100v-100h-100v-100h-100v100h-100v-100h-100v100h-100v100h100v100h-100v100zM664 600h100v-200h-100v200zM464 700h192v-100h-192v100z" />
    <glyph glyph-name="uni26A3" unicode="&#x26a3;" 
d="M164 600h300v-100h100v100h-100v100h-100v100h300v-300h100v-300h-100v100h-100v100h-100v-100h100v-300h-100v200h-200v-200h200v-100h-200v100h-100v300h-100v200h100v100zM164 300h200v200h-200v-200z" />
    <glyph glyph-name="uni26A4" unicode="&#x26a4;" 
d="M364 300h-100v100h-100v100h100v100h100v100h200v-100h100v-300h-100v-100h-100v200h-100v-100zM464 200v-100h-100v-100h100v-100h-100v-100h-100v100h-100v100h100v100h-100v100h-100v200h100v-200h300zM664 700h-100v100h-100v100h300v-300h-100v100zM364 500h100
v-100h100v200h-200v-100z" />
    <glyph glyph-name="uni26A5" unicode="&#x26a5;" 
d="M164 100h100v100h-100v100h-100v200h100v-200h300v-100h-100v-100h100v-100h-100v-100h-100v100h-100v100zM664 600h-100v100h-100v100h300v-300h-100v100zM164 600h400v-300h-100v200h-300v100z" />
    <glyph glyph-name="uni26A6" unicode="&#x26a6;" 
d="M664 500h-100v100h-100v100h300v-300h-100v100zM164 400h300v-300h-100v200h-200v100zM164 100h-100v200h100v-200h200v-100h-200v100zM364 600h100v-100h100v-100h100v-100h-100v100h-100v100h-100v100z" />
    <glyph glyph-name="uni26A7" unicode="&#x26a7;" 
d="M276 800h-92v-100h92v-100h367v-300h-92v200h-275v100h-92v-100h92v-200h275v-100h-92v-100h92v-100h-92v-100h-91v100h-92v100h92v100h-92v100h-92v200h-92v100h-92v300h276v-100h92v-100h-92v100zM735 600h-92v100h-92v100h276v-300h-92v100zM184 700h-92v-100h92v100z
" />
    <glyph glyph-name="old.equal" unicode="&#xe000;" 
d="M764 500h-700v200h700v-200zM764 201h-700v199h700v-199z" />
    <glyph glyph-name="I.1" unicode="&#x4c0;" 
d="M514 700v-700h-200v700h200z" />
    <glyph glyph-name="I.1" unicode="&#xe001;" 
d="M514 700v-700h-200v700h200z" />
    <glyph glyph-name="I.1" unicode="&#x4cf;" 
d="M514 700v-700h-200v700h200z" />
    <glyph glyph-name="uniF43A" unicode="&#xf43a;" 
d="M714 400h-100v-100h-100v-300h-200v300h-101v100h-99v300h200v-300h200v300h200v-300zM264 800v100h300v-100h-300z" />
    <glyph glyph-name="uniF43A" unicode="&#xf43b;" 
d="M714 400h-100v-100h-100v-300h-200v300h-101v100h-99v300h200v-300h200v300h200v-300zM264 800v100h300v-100h-300z" />
    <glyph glyph-name="uniF462" unicode="&#xf462;" 
d="M64 700h200v-300h100v100h100v100h100v100h200v-700h-200v300h-100v-100h-100v-100h-100v-100h-200v700zM364 800v100h100v100h200v-100h-100v-100h-200z" />
    <glyph glyph-name="uniF462" unicode="&#xf46c;" 
d="M64 700h200v-300h100v100h100v100h100v100h200v-700h-200v300h-100v-100h-100v-100h-100v-100h-200v700zM364 800v100h100v100h200v-100h-100v-100h-200z" />
    <glyph glyph-name="uniF464" unicode="&#xf464;" 
d="M64 200h200v-100h300v200h-400v100h-100v300h200v-300h300v300h200v-600h-100v-100h-500v100h-100v100zM314 800v100h100v100h200v-100h-100v-100h-200z" />
    <glyph glyph-name="uniF464" unicode="&#xf4cd;" 
d="M64 200h200v-100h300v200h-400v100h-100v300h200v-300h300v300h200v-600h-100v-100h-500v100h-100v100zM314 800v100h100v100h200v-100h-100v-100h-200z" />
    <glyph glyph-name="uniF464" unicode="&#xf4cc;" 
d="M64 200h200v-100h300v200h-400v100h-100v300h200v-300h300v300h200v-600h-100v-100h-500v100h-100v100zM314 800v100h100v100h200v-100h-100v-100h-200z" />
    <glyph glyph-name="uniF464" unicode="&#xf46e;" 
d="M64 200h200v-100h300v200h-400v100h-100v300h200v-300h300v300h200v-600h-100v-100h-500v100h-100v100zM314 800v100h100v100h200v-100h-100v-100h-200z" />
    <glyph glyph-name="uniF465" unicode="&#xf465;" 
d="M236 300v-200h100v200h-100zM536 100h-100v-100h-400v700h200v-300h200v-100h100v-200zM786 700v-700h-200v700h200zM264 800v100h100v100h200v-100h-100v-100h-200z" />
    <glyph glyph-name="uniF465" unicode="&#xf46f;" 
d="M236 300v-200h100v200h-100zM536 100h-100v-100h-400v700h200v-300h200v-100h100v-200zM786 700v-700h-200v700h200zM264 800v100h100v100h200v-100h-100v-100h-200z" />
    <glyph glyph-name="uniF466" unicode="&#xf466;" 
d="M64 200h200v-100h200v100h100v100h-300v100h300v100h-100v100h-200v-100h-200v100h100v100h400v-100h100v-100h100v-300h-100v-100h-100v-100h-400v100h-100v100zM264 800v100h100v100h200v-100h-100v-100h-200z" />
    <glyph glyph-name="uniF466" unicode="&#xf470;" 
d="M64 200h200v-100h200v100h100v100h-300v100h300v100h-100v100h-200v-100h-200v100h100v100h400v-100h100v-100h100v-300h-100v-100h-100v-100h-400v100h-100v100zM264 800v100h100v100h200v-100h-100v-100h-200z" />
    <glyph glyph-name="uniF467" unicode="&#xf467;" 
d="M364 700h300v-100h100v-500h-100v-100h-300v100h-100v200h-100v-300h-100v700h100v-300h100v200h100v100zM564 600h-100v-500h100v500zM264 800v100h100v100h200v-100h-100v-100h-200z" />
    <glyph glyph-name="uniF467" unicode="&#xf471;" 
d="M364 700h300v-100h100v-500h-100v-100h-300v100h-100v200h-100v-300h-100v700h100v-300h100v200h100v100zM564 600h-100v-500h100v500zM264 800v100h100v100h200v-100h-100v-100h-200z" />
    <glyph glyph-name="uniF468" unicode="&#xf468;" 
d="M64 100h100v100h100v100h-200v300h100v100h600v-700h-200v200h-100v-100h-100v-100h-300v100zM364 400v-100h200v300h-300v-200h100zM364 800v100h100v100h200v-100h-100v-100h-200z" />
    <glyph glyph-name="uniF468" unicode="&#xf472;" 
d="M64 100h100v100h100v100h-200v300h100v100h600v-700h-200v200h-100v-100h-100v-100h-300v100zM364 400v-100h200v300h-300v-200h100zM364 800v100h100v100h200v-100h-100v-100h-200z" />
    <glyph glyph-name="uniF469" unicode="&#xf469;" 
d="M764 0h-700v700h700v-100h-500v-200h400v-100h-400v-200h500v-100zM64 1000h100v-200h-100v200zM664 1000h100v-200h-100v200zM264 800v100h100v100h200v-100h-100v-100h-200z" />
    <glyph glyph-name="uniF469" unicode="&#xf473;" 
d="M764 0h-700v700h700v-100h-500v-200h400v-100h-400v-200h500v-100zM64 1000h100v-200h-100v200zM664 1000h100v-200h-100v200zM264 800v100h100v100h200v-100h-100v-100h-200z" />
    <glyph glyph-name="uniF498" unicode="&#xf498;" 
d="M364 700h300v-100h100v-500h-100v-100h-300v100h-100v200h-100v-300h-100v700h100v-300h100v200h100v100zM564 600h-100v-500h100v500zM664 1000v-200h-200v200h200zM164 1000h200v-200h-200v200z" />
    <glyph glyph-name="uniF498" unicode="&#xf499;" 
d="M364 700h300v-100h100v-500h-100v-100h-300v100h-100v200h-100v-300h-100v700h100v-300h100v200h100v100zM564 600h-100v-500h100v500zM664 1000v-200h-200v200h200zM164 1000h200v-200h-200v200z" />
    <glyph glyph-name="uniF49A" unicode="&#xf49a;" 
d="M764 100h-100v-100h-500v100h-100v500h100v100h500v-100h100v-500zM264 400h300v200h-300v-200zM564 100v200h-300v-200h300zM264 800v100h300v-100h-300z" />
    <glyph glyph-name="uniF49A" unicode="&#xf49b;" 
d="M764 100h-100v-100h-500v100h-100v500h100v100h500v-100h100v-500zM264 400h300v200h-300v-200zM564 100v200h-300v-200h300zM264 800v100h300v-100h-300z" />
    <glyph glyph-name="uniF49C" unicode="&#xf49c;" 
d="M64 600h100v100h500v-100h100v-500h-100v-100h-500v100h-100v300h500v200h-300v-100h-200v100zM264 300v-200h300v200h-300zM264 800v100h300v-100h-300z" />
    <glyph glyph-name="uniF49C" unicode="&#xf49d;" 
d="M64 600h100v100h500v-100h100v-500h-100v-100h-500v100h-100v300h500v200h-300v-100h-200v100zM264 300v-200h300v200h-300zM264 800v100h300v-100h-300z" />
    <glyph glyph-name="uniF49E" unicode="&#xf49e;" 
d="M364 500v-100h300v-100h100v-300h-200v300h-200v-300h-200v500h-100v100h100v100h200v-100h200v-100h-200z" />
    <glyph glyph-name="uniF49E" unicode="&#xf49f;" 
d="M364 500v-100h300v-100h100v-300h-200v300h-200v-300h-200v500h-100v100h100v100h200v-100h200v-100h-200z" />
    <glyph glyph-name="uniF4C6" unicode="&#xf4c6;" 
d="M564 300h-400v100h-100v300h200v-300h300v300h200v-800h-200v400zM364 -100h300v-100h-300v100z" />
    <glyph glyph-name="uniF4C6" unicode="&#xf4c7;" 
d="M564 300h-400v100h-100v300h200v-300h300v300h200v-800h-200v400zM364 -100h300v-100h-300v100z" />
    <glyph glyph-name="uniF4D4" unicode="&#xf4d4;" 
d="M764 300h-100v-100h-400v-200h-200v700h600v-100h100v-300zM564 300v300h-300v-300h300zM664 1000v-100h-100v-100h-300v100h-100v100h200v-100h100v100h200z" />
    <glyph glyph-name="uniF4D4" unicode="&#xf4d5;" 
d="M764 300h-100v-100h-400v-200h-200v700h600v-100h100v-300zM564 300v300h-300v-300h300zM664 1000v-100h-100v-100h-300v100h-100v100h200v-100h100v100h200z" />
    <glyph glyph-name="uniF4D6" unicode="&#xf4d6;" 
d="M64 200h200v-100h200v100h100v100h-300v100h300v100h-100v100h-200v-100h-200v100h100v100h400v-100h100v-100h100v-300h-100v-100h-100v-100h-400v100h-100v100zM263 1000h200v-200h-200v200z" />
    <glyph glyph-name="uniF4D6" unicode="&#xf4d7;" 
d="M64 200h200v-100h200v100h100v100h-300v100h300v100h-100v100h-200v-100h-200v100h100v100h400v-100h100v-100h100v-300h-100v-100h-100v-100h-400v100h-100v100zM263 1000h200v-200h-200v200z" />
    <glyph glyph-name="uniF4D8" unicode="&#xf4d8;" 
d="M64 100h100v100h100v100h-200v300h100v100h600v-700h-200v200h-100v-100h-100v-100h-300v100zM364 400v-100h200v300h-300v-200h100zM664 1000v-200h-200v200h200zM164 1000h200v-200h-200v200z" />
    <glyph glyph-name="uniF4D8" unicode="&#xf4d9;" 
d="M64 100h100v100h100v100h-200v300h100v100h600v-700h-200v200h-100v-100h-100v-100h-300v100zM364 400v-100h200v300h-300v-200h100zM664 1000v-200h-200v200h200zM164 1000h200v-200h-200v200z" />
    <glyph glyph-name="uniF50A" unicode="&#xf50a;" 
d="M364 0h-200v100h-100v100h200v-100h300v200h-300v100h300v200h-300v-100h-200v100h100v100h500v-100h100v-200h-100v-100h100v-200h-100v-100h-200v-200h-100v200z" />
    <glyph glyph-name="uniF50A" unicode="&#xf50b;" 
d="M364 0h-200v100h-100v100h200v-100h300v200h-300v100h300v200h-300v-100h-200v100h100v100h500v-100h100v-200h-100v-100h100v-200h-100v-100h-200v-200h-100v200z" />
    <glyph glyph-name="uniF512" unicode="&#xf513;" 
d="M664 800v-100h100v-100h-500v-200h400v-100h-400v-200h500v-100h-700v700h100v100h200v-100h100v100h200zM164 1000h500v-100h-500v100z" />
    <glyph glyph-name="uniF514" unicode="&#xf514;" 
d="M664 800v-100h100v-100h-500v-200h400v-100h-400v-200h500v-100h-700v700h100v100h200v-100h100v100h200zM614 1100v-200h-400v200h100v-100h200v100h100z" />
    <glyph glyph-name="uniF514" unicode="&#xf515;" 
d="M664 800v-100h100v-100h-500v-200h400v-100h-400v-200h500v-100h-700v700h100v100h200v-100h100v100h200zM614 1100v-200h-400v200h100v-100h200v100h100z" />
    <glyph glyph-name="uniF516" unicode="&#xf516;" 
d="M564 600h-300v-100h-200v100h100v100h500v-100h100v-200h-100v-100h100v-200h-100v-100h-500v100h-100v100h200v-100h300v200h-300v100h300v200zM664 1000v-100h-100v-100h-300v100h-100v100h200v-100h100v100h200z" />
    <glyph glyph-name="uniF516" unicode="&#xf517;" 
d="M564 600h-300v-100h-200v100h100v100h500v-100h100v-200h-100v-100h100v-200h-100v-100h-500v100h-100v100h200v-100h300v200h-300v100h300v200zM664 1000v-100h-100v-100h-300v100h-100v100h200v-100h100v100h200z" />
    <glyph glyph-name="uniF51C" unicode="&#xf31d;" 
d="M764 100h-100v-100h-500v100h-100v500h100v100h500v-100h100v-500zM264 400h300v200h-300v-200zM564 100v200h-300v-200h300zM614 1000v-200h-400v200h100v-100h200v100h100z" />
    <glyph glyph-name="uniF51C" unicode="&#xf51c;" 
d="M764 100h-100v-100h-500v100h-100v500h100v100h500v-100h100v-500zM264 400h300v200h-300v-200zM564 100v200h-300v-200h300zM614 1000v-200h-400v200h100v-100h200v100h100z" />
    <glyph glyph-name="uniF51E" unicode="&#xf51e;" 
d="M664 800v-200h100v-500h-100v-100h-500v100h-100v500h100v200h200v-100h100v100h200zM564 100v200h-300v-200h300zM264 400h300v200h-300v-200zM164 1000h500v-100h-500v100z" />
    <glyph glyph-name="uniF51E" unicode="&#xf51f;" 
d="M664 800v-200h100v-500h-100v-100h-500v100h-100v500h100v200h200v-100h100v100h200zM564 100v200h-300v-200h300zM264 400h300v200h-300v-200zM164 1000h500v-100h-500v100z" />
    <glyph glyph-name="uniF520" unicode="&#xf520;" 
d="M236 300v-200h100v200h-100zM536 100h-100v-100h-400v700h200v-300h200v-100h100v-200zM786 700v-700h-200v700h200zM264 800v100h300v-100h-300z" />
    <glyph glyph-name="uniF520" unicode="&#xf521;" 
d="M236 300v-200h100v200h-100zM536 100h-100v-100h-400v700h200v-300h200v-100h100v-200zM786 700v-700h-200v700h200zM264 800v100h300v-100h-300z" />
    <glyph glyph-name="uniF522" unicode="&#xf522;" 
d="M64 200h200v-100h200v100h100v100h-300v100h300v100h-100v100h-200v-100h-200v100h100v100h400v-100h100v-100h100v-300h-100v-100h-100v-100h-400v100h-100v100zM214 800v100h300v-100h-300z" />
    <glyph glyph-name="uniF522" unicode="&#xf523;" 
d="M64 200h200v-100h200v100h100v100h-300v100h300v100h-100v100h-200v-100h-200v100h100v100h400v-100h100v-100h100v-300h-100v-100h-100v-100h-400v100h-100v100zM214 800v100h300v-100h-300z" />
    <glyph glyph-name="uniF524" unicode="&#xf524;" 
d="M64 200h200v-100h200v100h100v100h-300v100h300v100h-100v100h-200v-100h-200v100h100v100h400v-100h100v-100h100v-300h-100v-100h-100v-100h-400v100h-100v100zM564 1000v-200h-400v200h100v-100h200v100h100z" />
    <glyph glyph-name="uniF524" unicode="&#xf525;" 
d="M64 200h200v-100h200v100h100v100h-300v100h300v100h-100v100h-200v-100h-200v100h100v100h400v-100h100v-100h100v-300h-100v-100h-100v-100h-400v100h-100v100zM564 1000v-200h-400v200h100v-100h200v100h100z" />
    <glyph glyph-name="uniF526" unicode="&#xf526;" 
d="M764 100h-100v-100h-400v100h-100v100h-100v300h100v100h100v100h400v-100h100v-100h-200v100h-200v-100h-100v-100h300v-100h-300v-100h100v-100h200v100h200v-100zM714 1000v-200h-200v200h200zM214 1000h200v-200h-200v200z" />
    <glyph glyph-name="uniF526" unicode="&#xf527;" 
d="M764 100h-100v-100h-400v100h-100v100h-100v300h100v100h100v100h400v-100h100v-100h-200v100h-200v-100h-100v-100h300v-100h-300v-100h100v-100h200v100h200v-100zM714 1000v-200h-200v200h200zM214 1000h200v-200h-200v200z" />
    <glyph glyph-name="uniF528" unicode="&#xf528;" 
d="M64 100h100v100h100v100h-200v300h100v100h600v-700h-200v200h-100v-100h-100v-100h-300v100zM364 400v-100h200v300h-300v-200h100zM314 800v100h300v-100h-300z" />
    <glyph glyph-name="uniF528" unicode="&#xf529;" 
d="M64 100h100v100h100v100h-200v300h100v100h600v-700h-200v200h-100v-100h-100v-100h-300v100zM364 400v-100h200v300h-300v-200h100zM314 800v100h300v-100h-300z" />
    <glyph glyph-name="uniF52A" unicode="&#xf52a;" 
d="M64 100h100v100h100v100h-200v300h100v100h600v-700h-200v200h-100v-100h-100v-100h-300v100zM364 400v-100h200v300h-300v-200h100zM664 1000v-200h-400v200h100v-100h200v100h100z" />
    <glyph glyph-name="uniF52A" unicode="&#xf52b;" 
d="M64 100h100v100h100v100h-200v300h100v100h600v-700h-200v200h-100v-100h-100v-100h-300v100zM364 400v-100h200v300h-300v-200h100zM664 1000v-200h-400v200h100v-100h200v100h100z" />
    <glyph glyph-name="uniF52C" unicode="&#xf52c;" 
d="M364 700h300v-100h100v-500h-100v-100h-300v100h-100v200h-100v-300h-100v700h100v-300h100v200h100v100zM564 600h-100v-500h100v500zM264 800v100h300v-100h-300z" />
    <glyph glyph-name="uniF52C" unicode="&#xf52d;" 
d="M364 700h300v-100h100v-500h-100v-100h-300v100h-100v200h-100v-300h-100v700h100v-300h100v200h100v100zM564 600h-100v-500h100v500zM264 800v100h300v-100h-300z" />
    <glyph glyph-name="uniF52E" unicode="&#xf52e;" 
d="M364 700h300v-100h100v-500h-100v-100h-300v100h-100v200h-100v-300h-100v700h100v-300h100v200h100v100zM564 600h-100v-500h100v500zM564 1000v-200h-400v200h100v-100h200v100h100z" />
    <glyph glyph-name="uniF52E" unicode="&#xf52f;" 
d="M364 700h300v-100h100v-500h-100v-100h-300v100h-100v200h-100v-300h-100v700h100v-300h100v200h100v100zM564 600h-100v-500h100v500zM564 1000v-200h-400v200h100v-100h200v100h100z" />
    <glyph glyph-name="uniF532" unicode="&#xf532;" 
d="M564 300h-100v-100h-100v-100h-100v-100h-200v700h200v-300h100v100h100v100h100v100h200v-800h-200v400zM364 -100h300v-100h-300v100zM614 1000v-200h-400v200h100v-100h200v100h100z" />
    <glyph glyph-name="uniF532" unicode="&#xf533;" 
d="M564 300h-100v-100h-100v-100h-100v-100h-200v700h200v-300h100v100h100v100h100v100h200v-800h-200v400zM364 -100h300v-100h-300v100zM614 1000v-200h-400v200h100v-100h200v100h100z" />
    <glyph glyph-name="uniF536" unicode="&#xf536;" 
d="M236 300v-200h100v200h-100zM536 100h-100v-100h-400v700h200v-300h200v-100h100v-200zM786 700v-700h-200v700h200zM614 1000v-200h-400v200h100v-100h200v100h100z" />
    <glyph glyph-name="uniF536" unicode="&#xf537;" 
d="M236 300v-200h100v200h-100zM536 100h-100v-100h-400v700h200v-300h200v-100h100v-200zM786 700v-700h-200v700h200zM614 1000v-200h-400v200h100v-100h200v100h100z" />
    <glyph glyph-name="uniF538" unicode="&#xf538;" 
d="M264 400h300v-100h-300v-200h300v100h200v-100h-100v-100h-500v100h-100v200h100v100h-100v200h100v100h500v-100h100v-100h-200v100h-300v-200zM664 1000v-200h-200v200h200zM164 1000h200v-200h-200v200z" />
    <glyph glyph-name="uniF538" unicode="&#xf539;" 
d="M264 400h300v-100h-300v-200h300v100h200v-100h-100v-100h-500v100h-100v200h100v100h-100v200h100v100h500v-100h100v-100h-200v100h-300v-200zM664 1000v-200h-200v200h200zM164 1000h200v-200h-200v200z" />
    <glyph glyph-name="uniF53E" unicode="&#xf53e;" 
d="M414 0h-150v100h-100v100h-100v300h100v100h100v100h400v-100h100v-100h-200v100h-199v-100h-101v-300h100v-100h200v100h200v-100h-100v-100h-150v-200h-100v200z" />
    <glyph glyph-name="uniF53E" unicode="&#xf53f;" 
d="M414 0h-150v100h-100v100h-100v300h100v100h100v100h400v-100h100v-100h-200v100h-199v-100h-101v-300h100v-100h200v100h200v-100h-100v-100h-150v-200h-100v200z" />
    <glyph glyph-name="uniF8FF" unicode="&#xf8ff;" 
d="M64 600h100v100h200v-100h100v100h-100v100h100v-100h200v-100h100v-100h-100v-200h100v-100h-100v-200h-200v100h-100v-100h-100v1h-100v199h-100v400zM464 900h100v-100h-100v100z" />
    <glyph glyph-name="nonmarkingreturn" 
 />
    <glyph glyph-name=".null" horiz-adv-x="0" 
 />
    </font>
</defs>
</svg>
